/* XPM */
static char *result[] = {
/* columns rows colors chars-per-pixel */
"56 56 170 2 ",
"   c #000000",
".  c #000308",
"X  c #080408",
"o  c #000410",
"O  c #080818",
"+  c #080C10",
"@  c #101018",
"#  c #181810",
"$  c #181000",
"%  c #290C05",
"&  c #080B24",
"*  c #0A0E2A",
"=  c #0C102C",
"-  c #12142A",
";  c #181829",
":  c #181923",
">  c #171934",
",  c #0D0E34",
"<  c #393431",
"1  c #3A3C3A",
"2  c #282A2E",
"3  c #422000",
"4  c #5A2008",
"5  c #422C18",
"6  c #523A37",
"7  c #423B34",
"8  c #4F4A19",
"9  c #704815",
"0  c #41403E",
"q  c #484338",
"w  c #654E37",
"e  c #10164C",
"r  c #121A4D",
"t  c #191A43",
"y  c #050E57",
"u  c #080C52",
"i  c #051057",
"p  c #081057",
"a  c #09115B",
"s  c #151C54",
"d  c #101652",
"f  c #0D1541",
"g  c #18214A",
"h  c #1B2052",
"j  c #232345",
"k  c #282546",
"l  c #2C2E5D",
"z  c #3C3E5A",
"x  c #0C1464",
"c  c #0D1860",
"v  c #101463",
"b  c #111B63",
"n  c #11156B",
"m  c #10186C",
"M  c #1B1D68",
"N  c #141B74",
"B  c #191D7B",
"V  c #181873",
"C  c #182063",
"Z  c #18236B",
"A  c #192473",
"S  c #18207B",
"D  c #21286B",
"F  c #292C6B",
"G  c #21306B",
"H  c #222C74",
"J  c #212B7B",
"K  c #2B2B76",
"L  c #29307B",
"P  c #3E405A",
"I  c #444244",
"U  c #525152",
"Y  c #5A5952",
"T  c #525573",
"R  c #636563",
"E  c #717271",
"W  c #7C7B7C",
"Q  c #76767B",
"!  c #6C6773",
"~  c #73665D",
"^  c #A55908",
"/  c #BB680A",
"(  c #915715",
")  c #D1770D",
"_  c #847668",
"`  c #897C6E",
"'  c #807E78",
"]  c #9F9636",
"[  c #B78123",
"{  c #E78610",
"}  c #C88F23",
"|  c #FFBA31",
" . c #FFC731",
".. c #8E846E",
"X. c #EFDB4A",
"o. c #EFDF52",
"O. c #FFED53",
"+. c #FFF559",
"@. c #181C84",
"#. c #1A2083",
"$. c #212284",
"%. c #21248B",
"&. c #363485",
"*. c #3B3B89",
"=. c #282694",
"-. c #292994",
";. c #2A2C9B",
":. c #312C9C",
">. c #31319F",
",. c #3133A5",
"<. c #3934A5",
"1. c #3A3BAD",
"2. c #413FB5",
"3. c #43448C",
"4. c #484894",
"5. c #545697",
"6. c #656583",
"7. c #4241AD",
"8. c #4243B5",
"9. c #4A4ABD",
"0. c #4A45BD",
"q. c #5255B5",
"w. c #4F4FC2",
"e. c #524DC6",
"r. c #5251C5",
"t. c #5A59C6",
"y. c #5656C9",
"u. c #5B5CCD",
"i. c #5D5ED0",
"p. c #5F61D0",
"a. c #6362CE",
"s. c #6465D4",
"d. c #6369D6",
"f. c #6B69D6",
"g. c #6A6CDB",
"h. c #6569D8",
"j. c #6C71DC",
"k. c #7172DE",
"l. c #7A7DE2",
"z. c #7378E1",
"x. c #7E81E3",
"c. c #8B898B",
"v. c #9F9F9F",
"b. c #919394",
"n. c #8C8AAD",
"m. c #A4A4A3",
"M. c #ADAAA5",
"N. c #A1A0AA",
"B. c #ADACAD",
"V. c #B5B6B5",
"C. c #BBBBBB",
"Z. c #C6B29C",
"A. c #D6C7A5",
"S. c #9193E9",
"D. c #9496E7",
"F. c #8588E6",
"G. c #A5A5EF",
"H. c #A5A7F1",
"J. c #9998CB",
"K. c #BDC3C6",
"L. c #C6C5C6",
"P. c #C8C8C8",
"I. c #C6CBC6",
"U. c #CED3CE",
"Y. c #DEDFDE",
"T. c #D6D7D6",
"R. c #DEDBFF",
"E. c #D6DBE7",
"W. c #E7E7E7",
"Q. c None",
/* pixels */
"Q.Q.Q.Q.Q.Q.Q.Q.Q.Q.Q.Q.Q.Q.Q.Q.Q.Q.Q.Q.Q.Q.Q.Q.Q.Q.Q.Q.Q.Q.Q.Q.Q.Q.Q.Q.Q.Q.Q.Q.Q.Q.Q.Q.Q.Q.Q.Q.Q.Q.Q.Q.Q.Q.Q.Q.",
"Q.Q.Q.Q.Q.Q.Q.Q.Q.Q.Q.Q.Q.Q.Q.Q.Q.Q.Q.Q.Q.Q.Q.Q.Q.Q.Q.Q.Q.Q.Q.Q.Q.Q.Q.Q.Q.Q.Q.Q.Q.Q.Q.Q.Q.Q.Q.Q.Q.Q.Q.Q.Q.Q.Q.Q.",
"Q.Q.Q.Q.Q.Q.Q.Q.Q.Q.Q.Q.Q.Q.Q.Q.Q.Q.Q.Q.Q.Q.Q.Q.Q.Q.Q.Q.Q.Q.Q.Q.Q.Q.Q.Q.Q.Q.Q.Q.Q.Q.Q.Q.Q.Q.Q.Q.Q.Q.Q.Q.Q.Q.Q.Q.",
"Q.Q.Q.Q.Q.Q.Q.Q.Q.Q.Q.Q.Q.Q.Q.Q.Q.Q.Q.Q.Q.Q.Q.Q.Q.Q.          Q.Q.Q.Q.Q.Q.Q.Q.Q.Q.Q.Q.Q.Q.Q.Q.Q.Q.Q.Q.Q.Q.Q.Q.Q.",
"Q.Q.Q.Q.Q.Q.Q.Q.Q.Q.Q.Q.Q.Q.Q.Q.Q.Q.Q.Q.        . . . . . . . .         Q.Q.Q.Q.Q.Q.Q.Q.Q.Q.Q.Q.Q.Q.Q.Q.Q.Q.Q.Q.",
"Q.Q.Q.Q.Q.Q.Q.Q.Q.Q.Q.Q.Q.Q.Q.Q.Q.  . .   j t *.&.&.&.&.1.1.H K l > ;         Q.Q.Q.Q.Q.Q.Q.Q.Q.Q.Q.Q.Q.Q.Q.Q.Q.",
"Q.Q.Q.Q.Q.Q.Q.Q.Q.Q.Q.Q.Q.Q.Q.      j *.t.t.t.t.r.e.e.e.1.1.1.1.3.3.l >   0 z 1 q q           Q.Q.Q.Q.Q.Q.Q.Q.Q.",
"Q.Q.Q.Q.Q.Q.Q.Q.Q.Q.Q.Q.Q.Q.  . j 3.s.s.t.t.t.t.e.e.r.r.1.1.1.1.l ; l 3.C.C.C.K.A...q ..o.o.] 8   Q.Q.Q.Q.Q.Q.Q.",
"Q.Q.Q.Q.Q.Q.Q.Q.Q.Q.Q.Q.    k 3.h.f.a.a.p.p.i.u.u.e.r.r.5.5.5.n 1 E B.B.V.V.V.V.9 % | | O.O.+.O.8 Q.Q.Q.Q.Q.Q.Q.",
"Q.Q.Q.Q.Q.Q.Q.Q.Q.Q.Q.  . k f.f.s.s.s.s.s.s.p.a.i.y.y.r.5.5.n x B.W.W.W.V.V.V...% [ | | O.O.O.O.X.  Q.Q.Q.Q.Q.Q.",
"Q.Q.Q.Q.Q.Q.Q.Q.Q.Q.    4.f.f.f.f.g.h.f.f.s.s.s.i.i.y.y.5.5.x R.W.W.W.W.V.V.V.I 9 [ | | O.O.O.O.X.8 Q.Q.Q.Q.Q.Q.",
"Q.Q.Q.Q.Q.Q.Q.Q.Q.    3.f.f.f.g.f.h.f.h.f.f.f.s.h.i.i.y.5.v J.R.W.W.W.B.V.V.' $ [ [ | | O.O.O.O.X.8 Q.Q.Q.Q.Q.Q.",
"Q.Q.Q.Q.Q.Q.Q.Q.. . 4.k.k.k.k.g.j.j.j.j.g.g.h.g.d.s.p.a.! j Y.Y.T.T.P.C.m.m.6 6 / ) { { |  . . ._   Q.Q.Q.Q.Q.Q.",
"Q.Q.Q.Q.Q.Q.Q.Q.. k k.k.g.g.g.g.j.j.j.j.j.j.j.h.d.d.p.d.j ! Y.Y.L.C.P.C.m.M.6 6 ^ / ) { } }  .} 1 q Q.Q.Q.Q.Q.Q.",
"Q.Q.Q.Q.Q.Q.Q.  . k.k.k.x.S.S.x.z.j.j.j.j.j.j.g.d.d.s.s.k N.Y.N.V.B.L.C.M.m.6 6 ^ ^ / ) } } } 4 _ _   Q.Q.Q.Q.Q.",
"Q.Q.Q.Q.Q.Q.    4.k.k.k.G.G.G.H.x.j.j.j.j.j.j.j.d.d.s.t.k N.N.N.B.B.C.C.m.B.E % ^ ^ ^ / } ( 4 4 Z._ Q.Q.Q.Q.Q.Q.",
"Q.Q.Q.Q.Q.Q.  g g.g.S.G.H.H.H.H.S.x.j.j.j.j.j.f.j.g.g.q.; m.B.m.v.v.V.I.v.m.m.I 3 w w w 5 5 ~ m.I.I Q.Q.Q.Q.Q.Q.",
"Q.Q.Q.Q.Q.Q.  3.g.l.G.G.H.H.H.H.S.x.j.j.k.j.j.j.g.g.g.q.; m.m.m.v.v.V.I.m.v.m.m.w 3 3 3 5 m.v.m.L.I   Q.Q.Q.Q.Q.",
"Q.Q.Q.Q.Q.  j a.g.l.G.G.H.H.H.H.S.x.j.j.j.j.j.j.g.j.g.u.; m.m.B.v.v.v.B.U.m.m.m.M.M...` m.m.m.E.c.    Q.Q.Q.Q.Q.",
"Q.Q.Q.Q.Q.  3.s.g.S.G.G.H.H.H.H.x.j.j.j.j.j.k.j.k.g.j.g.; Q m.m.v.v.c.c.U.U.v.m.M.M.M.M.v.v.E.v.I     Q.Q.Q.Q.Q.",
"Q.Q.Q.Q.. . 4.g.g.x.H.H.G.G.G.D.z.z.z.g.g.k.j.j.g.f.h.j.P P n.n.c.c.c.E W v.L.P.V.V.V.V.K.K.b.< g X X X Q.Q.Q.Q.",
"Q.Q.Q.Q.. . g.g.g.x.S.H.G.G.D.x.z.j.g.z.j.j.j.j.g.g.h.f.6.> n.n.c.W E R U U Q v.V.V.V.V.b.R < < = - = X Q.Q.Q.Q.",
"Q.Q.Q.Q.. l g.g.g.g.x.x.D.x.j.j.j.j.j.g.j.j.j.j.j.h.f.s.n.> P n.W E R R U U U U 1 1 1 1 < < < < X G g X Q.Q.Q.Q.",
"Q.Q.Q.Q.. 7.k.g.g.k.g.g.j.j.j.j.z.j.z.z.j.j.j.j.g.g.d.a.n.6.> 6.W E R R U U U U 1 1 1 1 < < < < - G g X Q.Q.Q.Q.",
"Q.Q.Q.Q.X 3.s.s.g.j.j.j.j.j.j.j.j.j.j.j.j.j.g.j.g.f.s.p.e.e.&.+ T T T T Y Y 0 0 1 1 1 1 = : # : C Z Z o   Q.Q.Q.",
"Q.Q.Q.Q.X 4.s.s.f.j.g.j.j.j.j.j.j.j.j.j.j.j.g.f.f.s.s.u.e.e.e.&.= z T T Y Y 0 0 1 1 1 1 : # - c r Z Z o   Q.Q.Q.",
"Q.Q.Q.  o s.s.h.f.f.g.j.j.j.j.j.j.j.j.j.g.j.j.f.s.s.p.u.e.e.e.e.z = - k 0 0 0 0 1 1 2 : # f a a r Z Z o   Q.Q.Q.",
"Q.Q.Q.  X s.s.s.f.g.f.g.j.j.j.j.j.j.j.j.j.h.f.f.s.p.u.u.e.e.e.e.T T 2 = @ @ @ @ O + & + a a a a r Z Z .   Q.Q.Q.",
"Q.Q.Q.  . i.i.u.s.f.f.f.g.g.j.g.f.g.g.g.f.f.f.s.p.a.t.r.9.9.8.1.,.-.;.$.B n u u i a a a i i i i s A A o   Q.Q.Q.",
"Q.Q.Q.  . i.u.u.p.s.s.f.f.f.g.s.j.f.d.g.f.s.s.a.p.t.u.w.9.8.8.1.,.;.%.B B n n v i i i i i i i i d A A o   Q.Q.Q.",
"Q.Q.Q.Q.o *.u.u.p.p.s.s.g.f.h.g.h.h.d.g.s.s.s.u.t.t.w.9.w.8.1.,.;.#.%.B n n v a a p i a i i i a d A A o   Q.Q.Q.",
"Q.Q.Q.Q.o *.u.i.u.u.s.u.d.d.d.d.d.d.d.p.p.p.u.u.t.e.9.9.2.1.,.,.-.%.S B n v a x i p p p i i i a d A A o   Q.Q.Q.",
"Q.Q.Q.Q.  &.e.e.y.u.u.u.p.a.a.a.s.p.a.i.u.u.y.r.9.9.8.8.1.1.>.-.J $.B V n x a a y y y y a a a y s J s . Q.Q.Q.Q.",
"Q.Q.Q.Q.  t e.e.w.y.y.u.u.u.t.u.u.u.t.t.u.e.y.y.9.8.8.7.1.>.-.-.J B V n x x a a y y y y a y y x h J s . Q.Q.Q.Q.",
"Q.Q.Q.Q.  t e.e.9.w.w.y.y.y.t.y.y.y.y.r.e.r.9.9.8.8.7.<.>.>.-.$.B B V x x a a a y y y y y a a a s J = . Q.Q.Q.Q.",
"Q.Q.Q.Q.    &.e.9.9.0.w.e.r.r.r.r.r.r.r.9.9.8.8.1.7.<.<.-.-.$.$.B N n n a a a i y y y y a a a v J J . . Q.Q.Q.Q.",
"Q.Q.Q.Q.Q.  K 7.2.2.0.0.9.9.9.9.9.9.9.9.8.2.2.1.,.,.:.;.%.%.#.B n n x x y a a i y y y y a a a v L h   Q.Q.Q.Q.Q.",
"Q.Q.Q.Q.Q.  > 7.1.1.2.8.8.8.8.8.2.2.2.8.8.1.1.,.,.;.-.=.%.S N N m x x a a a i i y y y y y a v Z L =   Q.Q.Q.Q.Q.",
"Q.Q.Q.Q.Q.    K 1.1.2.<.2.2.2.2.1.1.1.1.1.,.,.;.;.-.%.$.#.B N m x a x i a p y i y y y y a a b H L     Q.Q.Q.Q.Q.",
"Q.Q.Q.Q.Q.Q.  > ,.,.>.:.:.:.2.:.,.,.,.,.,.;.;.;.-.%.$.$.A N m m x x a a a y y i y y y y a s Z H =   Q.Q.Q.Q.Q.Q.",
"Q.Q.Q.Q.Q.Q.    M ;.;.;.:.:.:.:.:.:.:.:.=.;.=.%.#.@.B B n n x x x a i a i i i i a a a a h h H H .   Q.Q.Q.Q.Q.Q.",
"Q.Q.Q.Q.Q.Q.Q.  , ;.;.;.=.=.-.-.=.=.=.=.%.%.@.B B B B m m x x a a a a a i i i i a y a a g A H =   Q.Q.Q.Q.Q.Q.Q.",
"Q.Q.Q.Q.Q.Q.Q.Q.  , ;.;.%.%.#.=.#.%.=.#.@.@.B B B m m m x a x y a y i a i y i i a a a a H H g .   Q.Q.Q.Q.Q.Q.Q.",
"Q.Q.Q.Q.Q.Q.Q.Q.    M ;.%.#.#.#.@.@.@.@.B N N N m m x x a x a a a a i i y y i i y x x b A H . . Q.Q.Q.Q.Q.Q.Q.Q.",
"Q.Q.Q.Q.Q.Q.Q.Q.Q.    C #.S S S N N S N V n n n x x a a a a a a a a a y a c i i h s s J F     Q.Q.Q.Q.Q.Q.Q.Q.Q.",
"Q.Q.Q.Q.Q.Q.Q.Q.Q.Q.    p S S S m N m m b n v x x a x a i a i i y a a a a a c i s s J J     Q.Q.Q.Q.Q.Q.Q.Q.Q.Q.",
"Q.Q.Q.Q.Q.Q.Q.Q.Q.Q.Q.    d S S N m m m x x x x a a a a a i i i a a y a a a C C J J h .   Q.Q.Q.Q.Q.Q.Q.Q.Q.Q.Q.",
"Q.Q.Q.Q.Q.Q.Q.Q.Q.Q.Q.Q.    * S S M m m a v a a y a y a a i i i a a a a b C A L $.= . . Q.Q.Q.Q.Q.Q.Q.Q.Q.Q.Q.Q.",
"Q.Q.Q.Q.Q.Q.Q.Q.Q.Q.Q.Q.Q.    . = A A A C C C C e e e p r r g r s s s s D D D t X     Q.Q.Q.Q.Q.Q.Q.Q.Q.Q.Q.Q.Q.",
"Q.Q.Q.Q.Q.Q.Q.Q.Q.Q.Q.Q.Q.Q.Q.      * r C C C C M A Z M Z Z Z Z J J J J D t   .   Q.Q.Q.Q.Q.Q.Q.Q.Q.Q.Q.Q.Q.Q.Q.",
"Q.Q.Q.Q.Q.Q.Q.Q.Q.Q.Q.Q.Q.Q.Q.Q.Q.      O & f C Z M Z Z Z Z Z Z s s = .       Q.Q.Q.Q.Q.Q.Q.Q.Q.Q.Q.Q.Q.Q.Q.Q.Q.",
"Q.Q.Q.Q.Q.Q.Q.Q.Q.Q.Q.Q.Q.Q.Q.Q.Q.Q.Q.Q.        o o o o o o o o . . . . Q.Q.Q.Q.Q.Q.Q.Q.Q.Q.Q.Q.Q.Q.Q.Q.Q.Q.Q.Q.",
"Q.Q.Q.Q.Q.Q.Q.Q.Q.Q.Q.Q.Q.Q.Q.Q.Q.Q.Q.Q.Q.Q.Q.Q.                Q.Q.Q.Q.Q.Q.Q.Q.Q.Q.Q.Q.Q.Q.Q.Q.Q.Q.Q.Q.Q.Q.Q.Q.",
"Q.Q.Q.Q.Q.Q.Q.Q.Q.Q.Q.Q.Q.Q.Q.Q.Q.Q.Q.Q.Q.Q.Q.Q.Q.Q.Q.Q.Q.Q.Q.Q.Q.Q.Q.Q.Q.Q.Q.Q.Q.Q.Q.Q.Q.Q.Q.Q.Q.Q.Q.Q.Q.Q.Q.Q.",
"Q.Q.Q.Q.Q.Q.Q.Q.Q.Q.Q.Q.Q.Q.Q.Q.Q.Q.Q.Q.Q.Q.Q.Q.Q.Q.Q.Q.Q.Q.Q.Q.Q.Q.Q.Q.Q.Q.Q.Q.Q.Q.Q.Q.Q.Q.Q.Q.Q.Q.Q.Q.Q.Q.Q.Q.",
"Q.Q.Q.Q.Q.Q.Q.Q.Q.Q.Q.Q.Q.Q.Q.Q.Q.Q.Q.Q.Q.Q.Q.Q.Q.Q.Q.Q.Q.Q.Q.Q.Q.Q.Q.Q.Q.Q.Q.Q.Q.Q.Q.Q.Q.Q.Q.Q.Q.Q.Q.Q.Q.Q.Q.Q."
};
