/* XPM */
static char *_29e9c6f788b455ecbbd7133a550028eadaSVJ7N59hprqog[] = {
/* columns rows colors chars-per-pixel */
"42 42 223 2 ",
"   c #000201",
".  c #020B03",
"X  c #000408",
"o  c #080408",
"O  c #051608",
"+  c #181000",
"@  c #000410",
"#  c #080818",
"$  c #131315",
"%  c #290400",
"&  c #0C2409",
"*  c #0F330B",
"=  c #182D19",
"-  c #173916",
";  c #1B351C",
":  c #1B3D1B",
">  c #203F1F",
",  c #0C102C",
"<  c #141529",
"1  c #10132C",
"2  c #1E3524",
"3  c #1E3B22",
"4  c #213C24",
"5  c #393431",
"6  c #3B3D3B",
"7  c #4A240B",
"8  c #523A37",
"9  c #13560A",
"0  c #194516",
"q  c #184915",
"w  c #1C441C",
"e  c #1E4B1C",
"r  c #195615",
"t  c #1D5C15",
"y  c #1E531B",
"u  c #1E5B1C",
"i  c #21441D",
"p  c #214C1D",
"a  c #284D1E",
"s  c #23531D",
"d  c #225D18",
"f  c #235C1E",
"g  c #1D6316",
"h  c #226A15",
"j  c #24631D",
"k  c #2A631E",
"l  c #246A1D",
"z  c #296D1E",
"x  c #25741D",
"c  c #2B741D",
"v  c #2C7C1D",
"b  c #337C1E",
"n  c #1E4522",
"m  c #1E4B21",
"M  c #1F4528",
"N  c #224423",
"B  c #234B23",
"V  c #234429",
"C  c #254C2A",
"Z  c #284A2E",
"A  c #245323",
"S  c #255B22",
"D  c #295C25",
"F  c #26542A",
"G  c #295528",
"H  c #2A5B2B",
"J  c #2B5833",
"K  c #1F6220",
"L  c #266322",
"P  c #2A6424",
"I  c #266C24",
"U  c #2B6C23",
"Y  c #27672A",
"T  c #2B632B",
"R  c #2D6B2C",
"E  c #326B28",
"W  c #2C7424",
"Q  c #2D7C23",
"!  c #2C7529",
"~  c #317325",
"^  c #327C24",
"/  c #32742C",
"(  c #327B2B",
")  c #397B2D",
"_  c #2E6832",
"`  c #326534",
"'  c #357A33",
"]  c #45423C",
"[  c #6B4B26",
"{  c #121748",
"}  c #111A4D",
"|  c #050E57",
" . c #080C52",
".. c #051057",
"X. c #081055",
"o. c #08115B",
"O. c #151C54",
"+. c #18214A",
"@. c #232344",
"#. c #292442",
"$. c #2C2E5D",
"%. c #3C3E5A",
"&. c #0B1463",
"*. c #121868",
"=. c #141A74",
"-. c #181873",
";. c #1A1D7B",
":. c #182063",
">. c #18236B",
",. c #182278",
"<. c #262C70",
"1. c #232C77",
"2. c #3E405A",
"3. c #4A454A",
"4. c #525152",
"5. c #635E68",
"6. c #636563",
"7. c #706972",
"8. c #7B7A7B",
"9. c #A55908",
"0. c #BB680A",
"q. c #847B6F",
"w. c #2A861A",
"e. c #32891E",
"r. c #37951E",
"t. c #3EA51E",
"y. c #2E8123",
"u. c #2D8625",
"i. c #348324",
"p. c #368C24",
"a. c #3A8C24",
"s. c #35842B",
"d. c #3A822B",
"f. c #358C2C",
"g. c #3B8929",
"h. c #359422",
"j. c #3B9323",
"k. c #3B9B24",
"l. c #3B972A",
"z. c #3C8434",
"x. c #3B8934",
"c. c #3E9633",
"v. c #3CA327",
"b. c #3DA632",
"n. c #48BB1F",
"m. c #449B2B",
"M. c #459A2C",
"N. c #448D31",
"B. c #449836",
"V. c #43AA25",
"C. c #46A729",
"Z. c #47B427",
"A. c #4CBA2C",
"S. c #50B72C",
"D. c #52BB2B",
"F. c #44A332",
"G. c #4CA938",
"H. c #53AE3C",
"J. c #54B637",
"K. c #4FC52B",
"L. c #56C72C",
"P. c #58C338",
"I. c #65CB3B",
"U. c #61B941",
"Y. c #5DC141",
"T. c #6ED345",
"R. c #AB8C2D",
"E. c #D88B1A",
"W. c #FFBA31",
"Q. c #FFC731",
"!. c #8E846E",
"~. c #EEDC4D",
"^. c #FFED53",
"/. c #181C84",
"(. c #1A2083",
"). c #212284",
"_. c #21248B",
"`. c #363384",
"'. c #292994",
"]. c #292C9C",
"[. c #312C9C",
"{. c #31319F",
"}. c #3133A5",
"|. c #3934A5",
" X c #3A3BAD",
".X c #43458D",
"XX c #4F5097",
"oX c #4344B5",
"OX c #4A4ABD",
"+X c #5255B5",
"@X c #4F4FC2",
"#X c #524DC6",
"$X c #5251C5",
"%X c #5A5AC6",
"&X c #5756C9",
"*X c #5A5CCE",
"=X c #5D5ED0",
"-X c #5F61D0",
";X c #6362CE",
":X c #6465D4",
">X c #6469D7",
",X c #6B69D6",
"<X c #6A6CDB",
"1X c #6C71DC",
"2X c #7272DE",
"3X c #7E80E3",
"4X c #888688",
"5X c #9C9C9C",
"6X c #8C8AAD",
"7X c #A3A3A3",
"8X c #AAA9AA",
"9X c #B8B8B8",
"0X c #C6B29C",
"qX c #D6C7A5",
"wX c #9998CB",
"eX c #8486E7",
"rX c #9294E8",
"tX c #A5A5EF",
"yX c #A5A7F1",
"uX c #BDC3C6",
"iX c #C6C7C6",
"pX c #DADBDA",
"aX c #E7E7E7",
/* pixels */
"v.F A.z / L h 0 S ( Q f ; 3 S H.C ` s.T : S e A V.A.; s N N p 3 Z 4 3 3 3 A e e e B ",
"k.y D.J.A U p.p U A e A H m c.3 F B M.J F.F m v.i.: s ^ T N N q v.S F f B g F B B w ",
"g.h.V.C.z R c S c y s S f.x.F V L ' x.m G.n h.N f B G D T N N s.H.k.S U D v.f V.l.y ",
"^ a.j.M.a.A Q c A.S u R V n 4 _ I ! B.B.e z.B - : N n B p B V ( f.H.p.S t ^ P c w l.",
"i.c v E s.u j t L.R m = S n u u.L l ' c.G ( Z ; B N N e G.V T U Y e W A j f d.^ ^ b ",
"z c k.i.u.f v T.I.N ( 3 w Z F ! ( H.A T S Z 3 B.s Z / L F.w S l L F.p w S y d j Z.j ",
"U i.z z s.S K.n.t U 4 G.J M n S s.' _ e n 3 N d 3 ! p ! c.F A F f V.S w S W i.Q b v ",
"c j W s W s.P.A.R 3 Y.J Z J 2 S w .   X X X X   & - A 9 / C Y A k.k.U n j U B e.B G ",
"p.P f.e U e.a.v.n P.F.Z J =   @.%X%X%X#X#X X X.X$.< 6 6 ]   O * Z.f.B e Q P i.a f Y ",
"p x.G.A D P i.B v.x.V F J   @.:X%X%X%X#X#X X X$.$..X9X9XqX!.~.R.j Y F L ` D ( s.z Z.",
"A j.F.B P L w w.C n O   .X,X,X,X,X:X:X&X&XXX&.aXaXaX9X] [ W.^.^.~.N S H f p Q B m.s ",
"s U j.i G 4 I 3 m B.  .X,X,X,X,X,X,X:X=X&XXXwXaXaX8Xq.+ R.W.^.^.~.n w w N ! A i.f p.",
"e e i.e w A L p.u.! XX2X<X<X1X1X<X,X,X:X:X7.pXpXiX9X8 8 0.E.Q.Q.q.B = 4 R Q ! s C.i.",
"B f ^ B N 4 e v s.  2X2XtXtXeX1X1X1X<X>X%X#.7X8X9X9X7.% 9.0.E.7 0XS ! F s.u D.P V.f ",
"W f Q w - p l k.& @.rXtXyXyXrX1X1X1X1X<X+X< 7X5X9XiX7X3.7 [ 7 6.iX^ C Y W h.v.s j.e.",
"A f ) F.g w L e.@.;XtXtXyXyXrX1X1X1X1X<X%X< 7X5X5X9X7X7X8Xq.7X7X4X. f.' S Q C.f j.S.",
"y f l e P.B P h XX<XtXtXtXrX2X2X1X1X1X,X<X2.6X4X8.7.iXiX9X9XuX5X+.o ~ / w B Q r j p.",
") A q p D.y i.& <X<X3X3XrX1X2X2X1X1X1X,X:X6X2.8.6.6.4.4.6 6 5 5 o +.o h.w m c.x.F.p.",
") B D f w.V.^ X <X<X<X<X1X1X2X2X1X1X1X:X;X6X< 8.6.6.4.4.6 6 5 5 1 +.o B.l.y f.s i.M.",
"d.e P L ^ V.a.o :X:X<X1X1X1X1X1X<X<X,X-X*X#X#X%.1 #.] ] 6 < $ o.} >.@ - s.c g i.e ^ ",
"k Y S Y Z.U ^ o :X:X,X<X1X1X1X1X<X,X,X*X*X#X#X5.#.1 $ $ # # o.o.} >.@ w ^ k f z.c z ",
"a.R f C.r.P k X *X*X,X,X<X<X<X<X,X,X:X%X$XOXoX}.'._. . .X.o.....O.,.@ P U s s 0 j f.",
"L y c d.~ z k X *X*X:X:X,X,X>X>X:X-X*X$XOXOX X'._.,.o.o.o.X.....O.,.@ ^ Q A S s.P G.",
"i.i.^ j j P f   #X#X*X*X;X;X;X;X*X*X$XoXoX X{.).;.=.o.o.o.| o.o.O.O.X S S L N M.s v ",
"N.U P i S I f * #X#X#X&X&X&X&X&X$XOXOX X|.{.'.;.=.*.o.o.| | o.o.O., O Q w T I ) b a.",
"= i.) ( L E p e `.#XOX@X$X$X$X$XOXoXoX|.|.'.).;.*.*.o.o.| | o.o.1.X s f p.s A i.Q ~ ",
"B ( / f e f f c . <. X X X X X X X}.]._.).(.=.&.o.o.....| | o.*.1.d w j Q b C.s j./ ",
"A D N ~ S y c U . 1 }.}.|.|.}.}.}.].].).).=.*.&.o.o.....| | o.>., l ^ s U e.U b C.A ",
"D F n 0 l.S S U 0   ].].[.[.[.[.'.'._.;.;.*.&.&.o.o.| | o.o.} 1.X g.I W s s L w a.; ",
": F G ! k.: I L Y C *.]._.(././.;.=.=.&.&.o.o.o.o.o.| | o.*.1.X e t I W j A h ' W : ",
"i C U U c ! / S N R   :.,.,.=.=.-.*.*.o.o.o.o.o.o.o.o.o.O.1.<.. B b.e j n f V.; j r ",
"F F r D l.S - ; D u B O . ,.=.*.&.&.&.o.o.o...o.o.o.*.*.1.X . C A b.C.f f r.k.y y y.",
"H A u A.L q l e t ( z : W X , ,.:.:.:.} } } } O.O.O.<.{ o v.T Z K h.' e.h.W U j K.x ",
"T y y x V.v l C.y.m.u R y.p U   # { :.>.>.>.>.O., X * q j i._ F Q G.U s y j j j L.A.",
"p u w.w C.W s S.l L r.P c B U N &     @ @ @ @ X O 0 L V.^ i.C.' Q H.: Z.f f j Z.r.V.",
"j w.N i w.r.z V.d r d.Q z D w e L w G B p.q B a.i.S f I.P h.r.A.B.G.y.S./ L L V.k.V.",
"v B x V y.i.l r.j p f h.H ; F e G Z J.N j F.i P g.B s L.Y Q i.M.x.Q m.l L s t ^ v v.",
"N v.V S A P / p.U.M.I l.n G.f Z C 4 4 u.B m.p E s W J.A.t I s./ S Q F.F w f p.i.v B ",
"s.V F B S s.f c c d C.s l.U V B J F / s.w m.w N.f j D.C.k p d.s S s l.w u N s.P I 3 ",
"J L N w y W s e.v.e.^ Q l t P.x.J F m N.( N.A a.D s J.j.B s ) A j ( C F N p B U 3 n ",
"G ( F f s U f e.i i.W P Z.b.A J V Z H f U s ~ i.M.d m.k i U D p.H N ` 4 s.A D > : V ",
"e F S J.S l s c s j j t.y.w 4 N H ` L V ~ T e q d.a.M.s i f i H V J 2 4 e m q N F B "
};
