/* XPM */
static char *_3a982b00c664884f3ca734cd5aa0fb74z7xVDKTCxNTWy89[] = {
/* columns rows colors chars-per-pixel */
"42 42 214 2 ",
"   c #000100",
".  c #010A01",
"X  c #000308",
"o  c #080408",
"O  c #051708",
"+  c #181000",
"@  c #000410",
"#  c #080916",
"$  c #131315",
"%  c #0B2608",
"&  c #11380C",
"*  c #142B14",
"=  c #163716",
"-  c #1A3C1A",
";  c #0C102C",
":  c #0E112C",
">  c #12142A",
",  c #181828",
"<  c #1D3222",
"1  c #1E3B22",
"2  c #282A2E",
"3  c #213C24",
"4  c #393431",
"5  c #3A3C3A",
"6  c #42260C",
"7  c #5A2008",
"8  c #523A37",
"9  c #184315",
"0  c #1A4B13",
"q  c #1C441C",
"w  c #1E4B1C",
"e  c #1C5917",
"r  c #1E541B",
"t  c #205A0C",
"y  c #20441D",
"u  c #244C19",
"i  c #214C1D",
"p  c #255C17",
"a  c #23531D",
"s  c #225C1D",
"d  c #1E641B",
"f  c #25641C",
"g  c #28651B",
"h  c #256B1C",
"j  c #296D1E",
"k  c #306B1C",
"l  c #25741D",
"z  c #2B741D",
"x  c #2C7C1D",
"c  c #337D1E",
"v  c #1E4722",
"b  c #224422",
"n  c #234B22",
"m  c #224429",
"M  c #254C2A",
"N  c #245323",
"B  c #295527",
"V  c #245B22",
"C  c #2A5C25",
"Z  c #26542A",
"A  c #2A5B2C",
"S  c #2B5732",
"D  c #335E3A",
"F  c #266222",
"G  c #2A6423",
"H  c #2C6D24",
"J  c #2B662A",
"K  c #32672A",
"L  c #2C7327",
"P  c #2D7424",
"I  c #2D7B23",
"U  c #337C24",
"Y  c #34762A",
"T  c #337D2A",
"R  c #336735",
"E  c #4F4B1A",
"W  c #704815",
"Q  c #41403E",
"!  c #494439",
"~  c #654E37",
"^  c #111749",
"/  c #121A4D",
"(  c #050E57",
")  c #080C52",
"_  c #051057",
"`  c #081056",
"'  c #09115B",
"]  c #151C54",
"[  c #18214A",
"{  c #232344",
"}  c #292442",
"|  c #2C2E5D",
" . c #3C3E5A",
".. c #0C1464",
"X. c #0D1860",
"o. c #131A64",
"O. c #11156B",
"+. c #10186C",
"@. c #141B74",
"#. c #181873",
"$. c #191D7B",
"%. c #182063",
"&. c #18236B",
"*. c #192473",
"=. c #18207B",
"-. c #262C71",
";. c #232C76",
":. c #3E405A",
">. c #464346",
",. c #535252",
"<. c #73665D",
"1. c #525573",
"2. c #636563",
"3. c #706972",
"4. c #7A7A7A",
"5. c #A55908",
"6. c #BB680A",
"7. c #D1770D",
"8. c #87796B",
"9. c #807E78",
"0. c #2A8418",
"q. c #33881F",
"w. c #37951F",
"e. c #3EA51E",
"r. c #2E8323",
"t. c #348324",
"y. c #368C23",
"u. c #3A8D24",
"i. c #35832A",
"p. c #3A822B",
"a. c #378B2A",
"s. c #3B9323",
"d. c #3A9826",
"f. c #3B8835",
"g. c #3E9B39",
"h. c #3CA427",
"j. c #48BB1F",
"k. c #43992B",
"l. c #439831",
"z. c #46A827",
"x. c #49B72A",
"c. c #4FB72B",
"v. c #49A532",
"b. c #53AD3A",
"n. c #54B534",
"m. c #54C52F",
"M. c #65C93F",
"N. c #61B941",
"B. c #6ED345",
"V. c #AB8C2D",
"C. c #E78610",
"Z. c #C88F23",
"A. c #FFBA31",
"S. c #FFC731",
"D. c #8E846E",
"F. c #EEDC4D",
"G. c #FFEE53",
"H. c #FFF75A",
"J. c #181C84",
"K. c #1A2083",
"L. c #212284",
"P. c #21248C",
"I. c #292A94",
"U. c #2A2C9B",
"Y. c #312C9C",
"T. c #343393",
"R. c #3134A5",
"E. c #3934A5",
"W. c #3A3BAD",
"Q. c #413FB5",
"!. c #43448C",
"~. c #4A4B96",
"^. c #545697",
"/. c #656583",
"(. c #4243B5",
"). c #4A4BB1",
"_. c #4A45BD",
"`. c #4A4ABD",
"'. c #524DC6",
"]. c #5251C5",
"[. c #5A5AC6",
"{. c #5656C9",
"}. c #5A5CCD",
"|. c #5F61D0",
" X c #6362CE",
".X c #6465D4",
"XX c #6369D6",
"oX c #6B69D6",
"OX c #6569D8",
"+X c #6A6CDB",
"@X c #6C71DC",
"#X c #7172DE",
"$X c #7378E1",
"%X c #7E80E3",
"&X c #8A888A",
"*X c #9C9D9D",
"=X c #8C8AAD",
"-X c #A4A4A3",
";X c #AAA8A9",
":X c #B4B6B4",
">X c #BBBBBB",
",X c #C6B29C",
"<X c #D6C7A5",
"1X c #9998CB",
"2X c #8588E6",
"3X c #9294E8",
"4X c #A5A4EF",
"5X c #A5A7F1",
"6X c #BDC3C6",
"7X c #C7C7C7",
"8X c #CED3CE",
"9X c #DCDDDC",
"0X c #DADBF3",
"qX c #E7E7E7",
/* pixels */
"h.Z x.j Y F h 9 V T I s 1 1 V b.M R i.A - V w N z.x.- a b y i 1 M 1 1 1 1 N w w w n ",
"d.r c.n.N H y.i j N w N A v g.1 Z n l.S v.Z v h.t.- a U G b b 9 h.V N s n d B n n q ",
"u.y.z.v.j J z V z r a V a.f.Z m V K H * G * h = w n A B K b b i.b.d.V H A h.s z.d.r ",
"U u.s.l.s.N I z x.V r J m v - v .   X X X X X X   O * = i n M T a.b.y.C e U J z - d.",
"t.z x K i.e f e m.K w O   { !.[.[.[.'.'.'.W.W.W.!.| ,   5 5 !     . 0 w g s p.U U c ",
"H z d.t.r.s x B.M.b O   { .X.X[.[.[.'.'.'.W.W.W.| | !.>X>X>X<X! D.F.V.E 9 r p g v.g ",
"H t.j j a.V m.j.e = { !.OX X X|.}.}.{.].].^.^...5 ;X;X:X:X:XW A.A.G.H.G.E P t.I x x ",
"z f P a P i.m.t   !.oXoXOXOXOXoX.X.X|.{.{.^...0XqXqXqX:X:X! W A.A.G.G.G.F.G n q.n B ",
"y.G a.w H q.q.  !.oXoXoXOXOXOXoXoX.X.X|.{.^.1X0XqXqX;X:X9.+ V.A.A.G.G.G.F.V t.u s G ",
"i f.v.N B G r ~.#X+X+X+X@X@X@X+XOXOXXX.X.X3.9X9X9X7X>X-X8 8 6.C.C.S.S.S.8.i T a.j x.",
"N s.v.n C % X #X#X%X3X%X$X@X@X@X@X+XXXXXXX} 9X-X>X7X>X-X8 8 5.6.7.Z.Z.7 8.& I n k.a ",
"a H s.y -   ~.#X#X4X4X4X2X@X@X@X@X+XXXXX[.} -X-X;X>X>X-X3.+ 5.5.6.Z.7 7 ,Xs N t.s y.",
"w w t.w   { +X3X4X5X5X5X3X@X@X@X@X@X+X+X)., -X-X*X:X7X-X-X>.6 ~ ~ 6 <.-X7Xf P a z.t.",
"n V U n {  X+X4X4X5X5X5X3X@X@X@X@X@X+X+X[., -X-X*X*X:X8X-X-X;X8.8.-X-X0X&XO c.G z.s ",
"P V I = !. X+X4X4X5X5X5X2X@X@X@X@X@X+X+X+X, -X-X*X&X&X8X-X-X;X;X;X-X0X-X>.  0.a d.t.",
"N s T z ~.+X+X4X4X4X4X3X#X#X#X@X@X@X+XOX+X:.=X=X&X4.3.4.7X7X:X:X:X6X&X4 [ o g s s.c.",
"r V f O +X+X+X%X%X3X@X@X#X#X#X@X@X@X+XOX.X=X:.=X4.2.2.,.,.,.5 5 5 4 4 4 o [ o 0 f y.",
"Y N 9 X +X+X+X+X+X@X@X@X#X#X#X@X@X@X+X.X X=X, /.4.2.2.,.,.,.5 5 5 4 4 4 > [ o L v.y.",
"p.n w o .X.XOX@X@X@X@X@X@X@X@X@X+X+XoX.X|.'.T.# 1.1.1.,.Q Q 5 5 5 > $ > &.&.@ & t.l.",
"p.w - o .X.XoX+X@X@X@X@X@X@X@X+X+XOX.X.X}.'.'.'. .> } Q Q Q 5 2 , $ ' ' / &.@ 0 w U ",
"g G = o .X.XoXOX+X@X@X@X@X@X@X+XOXoX.X}.}.'.'.'.1.} > $ $ $ # # # ' ' ' / &.@ q z j ",
"u.K & X }.}..XoXoX+X+X+X+X+X+XoXoX.X X[.].`.(.W.R.I.P.$.) ) ` ' ' _ _ _ ] *.@ % g a.",
"F r e X }.}..X.X.XOXOXOXOXOXOX.X.X}.[.].`.`.W.R.I.P.=.O.' ' ' ` ` _ _ ' ] *.@ r G v.",
"t.t.f X }.}.}.|.|..X.X.X.X.X.X|.}.}.[.`.`.(.R.R.I.=.=.O.' ' ` ` ` _ _ ' ] *.@ k a x ",
"k.H s   '.'.{.}.}. X X X X X}.{.{.].`.(.(.W.Y.I.L.$.@.O.' ' ' ( ( ' ' ' ] ] X G c u.",
"* t.T & '.'.`.].{.{.{.{.{.{.].].`.`.(.W.E.Y.I.L.$.@.O...' ' ( ( ( ' ' ' ] ; O t.I Y ",
"n T Y & T.'.`.`.].].].].].].].`.(.(.W.E.E.I.L.L.$.O.O.' ' ' ( ( ( ' ' X.;.X p a s.Y ",
"N C b g -.(.Q._._.`.`.`.`.`.`.(.(.W.R.U.U.P.K.@.+...' ' ' _ ( ( ( ' ' X.;.  a c z.N ",
"C B v 9 . -.W.W.W.W.W.W.W.W.W.W.R.U.U.P.L.K.@.+...' ' ' _ _ ( ( ( ' X.;.;.& F q u.= ",
"- B B P . > R.R.R.E.E.E.R.R.R.R.U.U.P.L.L.@.+.+...' ' ' _ _ ( ( ( ' &.;.; w h Y P - ",
"y M H H 0   o.U.U.Y.Y.Y.Y.Y.Y.I.I.P.L.$.$.+...' ..' ' ( ( ( ' ' ' / ;.;.X s z.= f e ",
"Z Z r A d.q   U.U.P.P.P.P.P.P.P.$.$.$.+.+...' ' ' ' ' ( ( ( ' ' X.;./ X & w.d.r r r.",
"A N e c.F 0 & o.U.P.K.K.J.J.J.$.@.@.+.....' ' ' ' ' ' ( ( ( ' X.o.;.X & y.P H f m.l ",
"J r r l z.x f   %.=.=.=.@.@.@.#.O.O...' ' ' ' ' ' ' ' ' ' ' ] ] ;.-.O u r g f g m.x.",
"i e 0.q z.P a z.%   =.=.@.+.+.......' ' ' ' _ _ ' ' ' ' o.o.;.] X % - x.s s f x.w.z.",
"f 0.b y 0.w.j z.r % ; =.=.+.+...' ' ' ' ' ' ' ' ' ' ' o.*.;.;.X = l.r.c.Y F F z.d.z.",
"x n l n r.t.h w.f i   X ; *.*.%.%.%.^ ^ ^ / / / ] ] ] -.-.^ o f f.I k.h F a e U x h.",
"b h.m V N G Y y.N.k.H d.-     # ^ %.&.&.&.&.&.&.] ; X   % a a.Y V I v.Z w s a.t.x n ",
"i.m B n V i.s z z p z.a d.g = *     @ @ @ @ @ @ X O g c g w p.a V a d.q r b i.G H 1 ",
"A F b w r P a q.h.y.U I h e m.f.M q * a 9 u & p w i n.s.n u Y N f T M Z b i n H 1 v ",
"Z T B s a H s q.y t.P F x.h.N S m M A s H a L t.k.p k.k y H C y.A b R 3 i.N B y - M ",
"w Z V n.V h a x a f f e.r.q 3 b A D F b L J w w p.u.k.V y s y A m S < 3 w v 0 b Z n "
};
