/* XPM */
static char * Bomb_xpm[] = {
"42 42 772 2",
"  	c None",
". 	c #000000",
"+ 	c #070716",
"@ 	c #141438",
"# 	c #14143D",
"$ 	c #14143C",
"% 	c #161851",
"& 	c #111544",
"* 	c #0E1035",
"= 	c #0D0E24",
"- 	c #05050E",
"; 	c #010102",
"> 	c #07070E",
", 	c #242559",
"' 	c #414091",
") 	c #444397",
"! 	c #4B4AA8",
"~ 	c #4644AA",
"{ 	c #4642AA",
"] 	c #4642AB",
"^ 	c #3B3CAF",
"/ 	c #3638A2",
"( 	c #333495",
"_ 	c #383A78",
": 	c #2C2E5D",
"< 	c #111329",
"[ 	c #212230",
"} 	c #27282F",
"| 	c #3A362E",
"1 	c #2E2B23",
"2 	c #040614",
"3 	c #282854",
"4 	c #4F4FA7",
"5 	c #5E5EC8",
"6 	c #5A59C7",
"7 	c #5A59C6",
"8 	c #524EC6",
"9 	c #524FC6",
"0 	c #5250C5",
"a 	c #3B3CAD",
"b 	c #3A3BAB",
"c 	c #303265",
"d 	c #2D2E55",
"e 	c #43447D",
"f 	c #A9A9AA",
"g 	c #ACACAD",
"h 	c #ADB1B3",
"i 	c #B8AB8F",
"j 	c #685F4E",
"k 	c #7E735B",
"l 	c #D8CA4A",
"m 	c #BBAF3F",
"n 	c #686221",
"o 	c #0E0C02",
"p 	c #000100",
"q 	c #2B2955",
"r 	c #4A4A98",
"s 	c #6567D4",
"t 	c #6665D2",
"u 	c #6363CF",
"v 	c #6062D1",
"w 	c #5F60D0",
"x 	c #5D5DCE",
"y 	c #5A5ACC",
"z 	c #5350C6",
"A 	c #5251C4",
"B 	c #545699",
"C 	c #515295",
"D 	c #242772",
"E 	c #696A6A",
"F 	c #A7A7A7",
"G 	c #B9B8B9",
"H 	c #B5B6B5",
"I 	c #AFAFAB",
"J 	c #684826",
"K 	c #C38D26",
"L 	c #FEBB34",
"M 	c #FFEC52",
"N 	c #FEF055",
"O 	c #FBEB53",
"P 	c #857A28",
"Q 	c #383876",
"R 	c #605EC1",
"S 	c #6C6AD7",
"T 	c #6867D5",
"U 	c #6668D7",
"V 	c #6767D5",
"W 	c #6364D3",
"X 	c #6363D1",
"Y 	c #5C5DCF",
"Z 	c #5858CB",
"` 	c #5454C7",
" .	c #35387E",
"..	c #9593B8",
"+.	c #D3D2D3",
"@.	c #E9E9E9",
"#.	c #E8E8E8",
"$.	c #B6B7B6",
"%.	c #B7B8B7",
"&.	c #817C73",
"*.	c #6F4A17",
"=.	c #E1A22B",
"-.	c #FFBB32",
";.	c #FFED53",
">.	c #DCC944",
",.	c #0D1107",
"'.	c #383978",
").	c #6665CD",
"!.	c #6B69D7",
"~.	c #6A6BD9",
"{.	c #6A69D7",
"].	c #6869D8",
"^.	c #6769D7",
"/.	c #6B69D6",
"(.	c #6A68D6",
"_.	c #6566D5",
":.	c #6265D5",
"<.	c #5758C9",
"[.	c #4E4F91",
"}.	c #66669A",
"|.	c #D2D0F4",
"1.	c #E7E7E7",
"2.	c #C4C3C4",
"3.	c #A3A3A0",
"4.	c #4C4741",
"5.	c #AD7921",
"6.	c #DFA02A",
"7.	c #FFEB52",
"8.	c #DAC844",
"9.	c #3C3914",
"0.	c #010306",
"a.	c #393A77",
"b.	c #6B6CD4",
"c.	c #6F71DD",
"d.	c #6B6DDB",
"e.	c #6C71DC",
"f.	c #6A6DDB",
"g.	c #686CDA",
"h.	c #686BDA",
"i.	c #6368D6",
"j.	c #6163D2",
"k.	c #6263CE",
"l.	c #5B576A",
"m.	c #A6A6AA",
"n.	c #DEDFDF",
"o.	c #D3D4D3",
"p.	c #CDCECD",
"q.	c #BDBDBD",
"r.	c #A5A5A4",
"s.	c #857F7D",
"t.	c #543A35",
"u.	c #BA680D",
"v.	c #D97D0F",
"w.	c #E78812",
"x.	c #F5B52F",
"y.	c #FBC431",
"z.	c #F6C032",
"A.	c #766957",
"B.	c #101009",
"C.	c #23244C",
"D.	c #6666C8",
"E.	c #7172DE",
"F.	c #7678DF",
"G.	c #7F81E2",
"H.	c #6F74DE",
"I.	c #6369D6",
"J.	c #6266D4",
"K.	c #6266D3",
"L.	c #46455E",
"M.	c #BDBCBF",
"N.	c #C9C9CB",
"O.	c #BCBCBC",
"P.	c #BEBDBE",
"Q.	c #A9A8A5",
"R.	c #867F7C",
"S.	c #A65A0A",
"T.	c #BB680A",
"U.	c #D87D0F",
"V.	c #C78E22",
"W.	c #D9A127",
"X.	c #AD7A1F",
"Y.	c #675D52",
"Z.	c #584F44",
"`.	c #040412",
" +	c #4D4D9D",
".+	c #7273E0",
"++	c #7374DF",
"@+	c #9E9FED",
"#+	c #A2A2EE",
"$+	c #9FA0EE",
"%+	c #7A7EE2",
"&+	c #6C70DC",
"*+	c #6467D5",
"=+	c #5D5DC9",
"-+	c #535267",
";+	c #AAA9B1",
">+	c #A4A3AC",
",+	c #AEADAE",
"'+	c #B5B5B5",
")+	c #BBBBBB",
"!+	c #A7A7A6",
"~+	c #919090",
"{+	c #473734",
"]+	c #A25809",
"^+	c #BA690D",
"/+	c #BF8721",
"(+	c #8C5716",
"_+	c #643520",
":+	c #B19F8C",
"<+	c #76695D",
"[+	c #232756",
"}+	c #696BD9",
"|+	c #8384E3",
"1+	c #A5A7F1",
"2+	c #8E90E8",
"3+	c #7579DF",
"4+	c #6D71DC",
"5+	c #6B6CD8",
"6+	c #6B6FDB",
"7+	c #6A6CDC",
"8+	c #5759BC",
"9+	c #505058",
"0+	c #A9A9A9",
"a+	c #A5A5A5",
"b+	c #9F9F9F",
"c+	c #AAABAA",
"d+	c #C2C6C2",
"e+	c #A1A1A1",
"f+	c #A4A4A3",
"g+	c #717070",
"h+	c #51341D",
"i+	c #614830",
"j+	c #61472F",
"k+	c #4D3928",
"l+	c #6F655E",
"m+	c #9D9C9A",
"n+	c #B5B8B5",
"o+	c #333032",
"p+	c #090910",
"q+	c #4E4EA3",
"r+	c #6D6FDC",
"s+	c #9293E9",
"t+	c #A5A5EF",
"u+	c #8E91E8",
"v+	c #6E71DD",
"w+	c #6A6CDB",
"x+	c #6B6EDC",
"y+	c #5A5CC5",
"z+	c #A6A6A5",
"A+	c #A8A7A7",
"B+	c #B8BAB8",
"C+	c #B6B8B6",
"D+	c #A2A1A1",
"E+	c #A5A5A3",
"F+	c #8E867E",
"G+	c #7A7065",
"H+	c #6C5C4D",
"I+	c #878482",
"J+	c #A3A3A2",
"K+	c #BABDC3",
"L+	c #9E9D9F",
"M+	c #121112",
"N+	c #292A59",
"O+	c #5E5FC7",
"P+	c #7173DD",
"Q+	c #9A9BEC",
"R+	c #A4A6F1",
"S+	c #7F82E3",
"T+	c #6E72DD",
"U+	c #6F70DD",
"V+	c #676AD7",
"W+	c #40404D",
"X+	c #949495",
"Y+	c #979697",
"Z+	c #939193",
"`+	c #CBD0CB",
" @	c #B4B7B4",
".@	c #ADABA6",
"+@	c #ABA7A1",
"@@	c #A7A39D",
"#@	c #A1A1A0",
"$@	c #B9BCC2",
"%@	c #B1B3B8",
"&@	c #514F51",
"*@	c #000101",
"=@	c #373876",
"-@	c #6667D2",
";@	c #6E70DD",
">@	c #9294EA",
",@	c #A4A4EE",
"'@	c #9495E8",
")@	c #7478E1",
"!@	c #7176E0",
"~@	c #6D70DD",
"{@	c #6C6EDC",
"]@	c #6A6CDA",
"^@	c #6869D7",
"/@	c #6A6ED9",
"(@	c #454664",
"_@	c #6D6C8A",
":@	c #8D8BAD",
"<@	c #8B898C",
"[@	c #888688",
"}@	c #747574",
"|@	c #7E7D7E",
"1@	c #A9A8A9",
"2@	c #BFBFBF",
"3@	c #B4BABC",
"4@	c #9EA2A4",
"5@	c #514F4F",
"6@	c #171D3F",
"7@	c #090610",
"8@	c #08040B",
"9@	c #050916",
"0@	c #4F51A7",
"a@	c #7E81E3",
"b@	c #9B9CEB",
"c@	c #8B8DE5",
"d@	c #777BE0",
"e@	c #6A6EDB",
"f@	c #686AD8",
"g@	c #6868D4",
"h@	c #6F6E8F",
"i@	c #4D4D67",
"j@	c #8886A7",
"k@	c #828082",
"l@	c #707170",
"m@	c #646664",
"n@	c #515051",
"o@	c #59585B",
"p@	c #7A7A7B",
"q@	c #898A89",
"r@	c #8A8B8A",
"s@	c #6A6A6A",
"t@	c #413F3C",
"u@	c #383230",
"v@	c #10132E",
"w@	c #17214A",
"x@	c #0A0A1B",
"y@	c #18194B",
"z@	c #5C5CC3",
"A@	c #6B6DDC",
"B@	c #7478DE",
"C@	c #6D72DD",
"D@	c #7075DF",
"E@	c #676AD8",
"F@	c #6465D0",
"G@	c #8382A6",
"H@	c #42435F",
"I@	c #646380",
"J@	c #79787A",
"K@	c #6A6B6A",
"L@	c #626463",
"M@	c #535252",
"N@	c #525152",
"O@	c #393B39",
"P@	c #383A38",
"Q@	c #383330",
"R@	c #383331",
"S@	c #161B3C",
"T@	c #1D2A5E",
"U@	c #0C0D21",
"V@	c #1E1D41",
"W@	c #5657B6",
"X@	c #6465D5",
"Y@	c #5F61D0",
"Z@	c #544FC6",
"`@	c #4945AF",
" #	c #252558",
".#	c #4B4E6A",
"+#	c #515471",
"@#	c #535672",
"##	c #5A5953",
"$#	c #4F4E49",
"%#	c #41403E",
"&#	c #3A3C3A",
"*#	c #141629",
"=#	c #19191B",
"-#	c #171932",
";#	c #172060",
">#	c #18246C",
",#	c #060D32",
"'#	c #262657",
")#	c #5F60C8",
"!#	c #6567D6",
"~#	c #6B6AD6",
"{#	c #6B6CDA",
"]#	c #6B6FDC",
"^#	c #6B6AD7",
"/#	c #5C5DCE",
"(#	c #524DC6",
"_#	c #524DC7",
":#	c #4844AF",
"<#	c #292B48",
"[#	c #33354F",
"}#	c #41425E",
"|#	c #4F4E4A",
"1#	c #494844",
"2#	c #3B3D3B",
"3#	c #373938",
"4#	c #2D2F31",
"5#	c #18191D",
"6#	c #11153C",
"7#	c #0C145A",
"8#	c #131C54",
"9#	c #18246D",
"0#	c #2D2D64",
"a#	c #6566D6",
"b#	c #6466D5",
"c#	c #6B6AD8",
"d#	c #696BD8",
"e#	c #5E5FCF",
"f#	c #5B5CCD",
"g#	c #524DC5",
"h#	c #4D5072",
"i#	c #3A3D54",
"j#	c #181934",
"k#	c #1F1F27",
"l#	c #201F25",
"m#	c #201F24",
"n#	c #1A1B23",
"o#	c #161924",
"p#	c #0D101E",
"q#	c #0C1253",
"r#	c #091159",
"s#	c #09115B",
"t#	c #060D31",
"u#	c #282962",
"v#	c #5E5FD2",
"w#	c #6465D4",
"x#	c #6A6BDA",
"y#	c #6B6EDB",
"z#	c #696CDA",
"A#	c #6B6BD8",
"B#	c #6565D3",
"C#	c #6061D0",
"D#	c #5E5DCA",
"E#	c #5352C5",
"F#	c #4A4ABD",
"G#	c #4646B9",
"H#	c #3C3DAF",
"I#	c #3133A2",
"J#	c #292B96",
"K#	c #212386",
"L#	c #181C77",
"M#	c #0E1261",
"N#	c #0A0E55",
"O#	c #061057",
"P#	c #08115A",
"Q#	c #081159",
"R#	c #051057",
"S#	c #151D5B",
"T#	c #192574",
"U#	c #060E36",
"V#	c #202253",
"W#	c #5656C1",
"X#	c #696AD8",
"Y#	c #6769D8",
"Z#	c #6569D6",
"`#	c #6060CF",
" $	c #5C5CCA",
".$	c #5858C7",
"+$	c #4E4EC1",
"@$	c #4B4BBE",
"#$	c #4041B3",
"$$	c #3739AA",
"%$	c #2C2E9D",
"&$	c #22258D",
"*$	c #1A1E7E",
"=$	c #151972",
"-$	c #111569",
";$	c #0E1361",
">$	c #071059",
",$	c #061059",
"'$	c #071159",
")$	c #12195A",
"!$	c #192575",
"~$	c #16183F",
"{$	c #4D4EB0",
"]$	c #6061D1",
"^$	c #5E5FD0",
"/$	c #6469D7",
"($	c #6469D6",
"_$	c #6264D3",
":$	c #5E60D0",
"<$	c #5957C6",
"[$	c #4F4DC2",
"}$	c #4342B6",
"|$	c #3133A5",
"1$	c #282993",
"2$	c #1D2284",
"3$	c #191E7B",
"4$	c #11156A",
"5$	c #0D1360",
"6$	c #0B1361",
"7$	c #061058",
"8$	c #081057",
"9$	c #081058",
"0$	c #1A2574",
"a$	c #121136",
"b$	c #4541A7",
"c$	c #524EC7",
"d$	c #5656C9",
"e$	c #5A5BCC",
"f$	c #5F60CF",
"g$	c #6261CD",
"h$	c #6261CE",
"i$	c #6263D2",
"j$	c #6060CE",
"k$	c #5D5ECE",
"l$	c #5858CA",
"m$	c #5353C6",
"n$	c #4546B8",
"o$	c #4243B4",
"p$	c #3A3BAD",
"q$	c #3435A4",
"r$	c #2A2B96",
"s$	c #21297D",
"t$	c #1C1F7E",
"u$	c #171873",
"v$	c #101569",
"w$	c #0B1360",
"x$	c #050E57",
"y$	c #08105A",
"z$	c #07105A",
"A$	c #18205D",
"B$	c #1C256B",
"C$	c #050A26",
"D$	c #050515",
"E$	c #3E3A98",
"F$	c #5959CB",
"G$	c #5959C8",
"H$	c #5959CA",
"I$	c #5859CB",
"J$	c #5858C9",
"K$	c #5655C6",
"L$	c #5654C9",
"M$	c #514FC4",
"N$	c #5050C3",
"O$	c #4243B3",
"P$	c #3E3CAA",
"Q$	c #3536A5",
"R$	c #2D2D9A",
"S$	c #26268D",
"T$	c #1D237B",
"U$	c #191A77",
"V$	c #0C1463",
"W$	c #0A125D",
"X$	c #070F59",
"Y$	c #0A125E",
"Z$	c #1A215C",
"`$	c #1B2365",
" %	c #03081D",
".%	c #000102",
"+%	c #2A286B",
"@%	c #4E4ABD",
"#%	c #4B49BE",
"$%	c #4F4EC2",
"%%	c #534FC6",
"&%	c #5352C6",
"*%	c #5251C5",
"=%	c #4C4BBF",
"-%	c #4848BB",
";%	c #4344B6",
">%	c #3D3EAF",
",%	c #3934A5",
"'%	c #2B2B96",
")%	c #27278F",
"!%	c #212284",
"~%	c #181D7A",
"{%	c #141971",
"]%	c #10156A",
"^%	c #0E1461",
"/%	c #1F2976",
"(%	c #161E5A",
"_%	c #000307",
":%	c #19194B",
"<%	c #3E3DA4",
"[%	c #403FB4",
"}%	c #4441B8",
"|%	c #4945BC",
"1%	c #4949BC",
"2%	c #4948BC",
"3%	c #4242B5",
"4%	c #403EB4",
"5%	c #302F9F",
"6%	c #2B2B9A",
"7%	c #21248B",
"8%	c #1D2184",
"9%	c #181D7B",
"0%	c #11166C",
"a%	c #0E1467",
"b%	c #0C1363",
"c%	c #0A115C",
"d%	c #111764",
"e%	c #262D74",
"f%	c #0E1234",
"g%	c #040503",
"h%	c #333289",
"i%	c #3E3DB1",
"j%	c #3E3DAF",
"k%	c #4241B5",
"l%	c #4141B5",
"m%	c #3E3FB1",
"n%	c #3D3EB0",
"o%	c #3637A9",
"p%	c #2F31A2",
"q%	c #2D2F9F",
"r%	c #272893",
"s%	c #25248D",
"t%	c #1D2185",
"u%	c #161D77",
"v%	c #121A71",
"w%	c #0D1667",
"x%	c #0B1362",
"y%	c #08115B",
"z%	c #071058",
"A%	c #0D145F",
"B%	c #1C266E",
"C%	c #252B71",
"D%	c #010205",
"E%	c #191A42",
"F%	c #3234A5",
"G%	c #3434A5",
"H%	c #332F9F",
"I%	c #3430A1",
"J%	c #3B38AC",
"K%	c #3734A5",
"L%	c #3334A6",
"M%	c #3133A4",
"N%	c #2B2D9D",
"O%	c #2A2C9B",
"P%	c #282994",
"Q%	c #222389",
"R%	c #182276",
"S%	c #131A71",
"T%	c #10186C",
"U%	c #0C1464",
"V%	c #0A135F",
"W%	c #0C135A",
"X%	c #151E60",
"Y%	c #202A72",
"Z%	c #12163E",
"`%	c #01010A",
" &	c #1D1F70",
".&	c #2A2C9C",
"+&	c #2F2B9B",
"@&	c #302B9B",
"#&	c #302C9B",
"$&	c #272794",
"%&	c #272895",
"&&	c #21238A",
"*&	c #1A1F82",
"=&	c #191D7F",
"-&	c #181C79",
";&	c #11166B",
">&	c #0E1567",
",&	c #1A2052",
"'&	c #1E2768",
")&	c #1F296C",
"!&	c #01040F",
"~&	c #0D0E3D",
"{&	c #25278C",
"]&	c #252590",
"^&	c #23258D",
"/&	c #272792",
"(&	c #22248D",
"_&	c #272692",
":&	c #23248D",
"<&	c #1D2088",
"[&	c #1A1E84",
"}&	c #191D7C",
"|&	c #151B74",
"1&	c #11186D",
"2&	c #08105B",
"3&	c #09115A",
"4&	c #050F57",
"5&	c #1D2765",
"6&	c #1E286D",
"7&	c #0C1232",
"8&	c #000001",
"9&	c #131552",
"0&	c #282A94",
"a&	c #20248A",
"b&	c #1A2083",
"c&	c #1C2186",
"d&	c #191D84",
"e&	c #1B1E86",
"f&	c #181C7C",
"g&	c #151B76",
"h&	c #151B75",
"i&	c #12196E",
"j&	c #0E1669",
"k&	c #0D1565",
"l&	c #0C1462",
"m&	c #101962",
"n&	c #1D2773",
"o&	c #172056",
"p&	c #01040C",
"q&	c #121953",
"r&	c #181E7C",
"s&	c #18207B",
"t&	c #141B73",
"u&	c #151D77",
"v&	c #141B74",
"w&	c #16186F",
"x&	c #060F58",
"y&	c #0A125C",
"z&	c #09145C",
"A&	c #061157",
"B&	c #181E53",
"C&	c #161D58",
"D&	c #202358",
"E&	c #070D47",
"F&	c #171E74",
"G&	c #121A70",
"H&	c #11196E",
"I&	c #0F1764",
"J&	c #0E1466",
"K&	c #0A125F",
"L&	c #09115C",
"M&	c #0F175E",
"N&	c #111A5E",
"O&	c #1B246A",
"P&	c #1E266B",
"Q&	c #171F5C",
"R&	c #010108",
"S&	c #080C33",
"T&	c #161E72",
"U&	c #181E76",
"V&	c #151A6A",
"W&	c #0B135F",
"X&	c #070F58",
"Y&	c #081059",
"Z&	c #111A61",
"`&	c #172169",
" *	c #242B75",
".*	c #1F2278",
"+*	c #0C1234",
"@*	c #01040E",
"#*	c #010310",
"$*	c #0D123C",
"%*	c #162069",
"&*	c #18226C",
"**	c #182063",
"=*	c #121853",
"-*	c #121954",
";*	c #0E1459",
">*	c #161F53",
",*	c #141D54",
"'*	c #181F5D",
")*	c #18205E",
"!*	c #20276A",
"~*	c #1E2563",
"{*	c #171A46",
"]*	c #070412",
"^*	c #020206",
"/*	c #090E30",
"(*	c #111749",
"_*	c #121950",
":*	c #171F61",
"<*	c #1A216C",
"[*	c #19236E",
"}*	c #1A216B",
"|*	c #18236D",
"1*	c #161E5B",
"2*	c #141847",
"3*	c #07071A",
"4*	c #010105",
"5*	c #020312",
"6*	c #050929",
"7*	c #060C31",
"                                                                                    ",
"                                                                                    ",
"                                        . . .                                       ",
"                              . + @ # $ $ % & * = - ;                               ",
"                        . > , ' ) ! ~ { ] ^ / ( _ : < . [ } | 1 . . .               ",
"                      2 3 4 5 6 6 7 8 9 0 a a b c d e f g h i j k l m n o           ",
"                  p q r s t u v w x y z A B C D E F G H H I J K L M N O P           ",
"                . Q R S T U V V W X Y Z ` B  ...+.@.#.$.%.&.*.=.-.M ;.;.>.,.        ",
"              . '.).!.~.{.].^./.(._.:.Y <.[.}.|.1.1.2.H 3.4.5.6.-.7.M M 8.9.        ",
"            0.a.b.c.c.d.e.e.e.f.g.h.i.j.k.l.m.n.o.p.q.r.s.t.u.v.w.x.y.z.A.B.        ",
"            C.D.E.F.G.F.H.e.e.e.e.g.I.J.K.L.M.N.O.P.q.Q.R.t.S.T.U.V.W.X.Y.Z.        ",
"          `. +.+++@+#+$+%+e.e.e.e.&+I.*+=+-+;+>+,+'+)+!+~+{+]+S.^+/+(+_+:+<+        ",
"        . [+}+|+#+1+1+1+2+3+e.4+e.5+6+7+8+9+0+a+b+c+d+e+f+g+h+i+j+k+l+m+n+o+        ",
"        p+q+r+s+t+1+1+1+u+3+e.v+e.e.w+x+y+9+z+A+b+a+B+C+D+E+F+G+H+I+J+K+L+M+        ",
"        N+O+P+Q+t+1+1+R+S+T+e.e.v+4+U+6+V+W+X+a+b+Y+Z+`+ @f+.@+@@@#@$@%@&@.         ",
"      *@=@-@;@>@1+t+,@'@)@!@~@{@T+e.]@^@/@(@_@:@<@[@}@|@1@2@H H H 3@4@5@6@7@8@      ",
"      9@0@7+{@a@>@b@c@d@H.6+v+e.e.e.e@f@g@h@i@j@k@l@m@n@o@p@q@r@q@s@t@u@v@w@x@      ",
"      y@z@A@d.c.;@B@C@e.D@H.!@e.e.e.f.E@F@G@H@I@J@K@L@M@N@n@O@P@P@Q@Q@R@S@T@U@      ",
"      V@W@X@]@e.e.e.e.e.e.e.e.e.x+6+~.V Y@Z@`@ #.#+#@###$#%#&#&#&#*#=#-#;#>#,#.     ",
"      '#)#!#~#{#&+e.e.e.e.e.e.]#&+^#V W /#(#_#:#<#[#}#|#1#%#2#3#4#5#6#7#8#9#,#.     ",
"    . 0#a#b#!.c#{#e.e.e.e.e.e.6+d#/.W e#f#(#(#g#h#i#j#k#l#m#n#o#p#q#r#s#8#9#t#.     ",
"    . u#v#/#w#(./.x#y#z#A#z#w+/.(.B#C#D#E#F#G#H#I#J#K#L#M#N#O#P#Q#R#R#R#S#T#U#.     ",
"      V#W#f#Y@W V c#X#Y#z#Z#z#V w#`# $.$+$@$#$$$%$&$*$=$-$;$>$O#,$R#R#'$)$!$U#.     ",
"      ~${$Y /#]$^$/$($/$I.I._$v :$f#<$[$F#}$$$|$1$2$3$4$5$6$7$8$9$R#R#P#)$0$U#.     ",
"      a$b$c$d$e$f#f$g$h$i$j$k$f#l$m$F#n$o$p$q$r$s$t$u$v$w$s#x$x$x$s#y$z$A$B$C$      ",
"      D$E$_#+$m$l$F$G$H$I$J$K$L$M$N$G#O$P$Q$R$S$T$U$4$V$W$s#x$x$x$X$X$Y$Z$`$ %      ",
"      .%+%@%F##%$%%%E#E#&%&%*%=%-%;%>%P$,%'%)%!%~%{%]%W$s#7$x$x$x$P#s#^%/%(%_%      ",
"        :%<%[%}%|%1%1%1%2%2%1%3%4%p$|$5%6%7%8%9%0%a%b%X$s#7$x$x$x$P#c%d%e%f%        ",
"        g%h%p$i%j%k%l%l%i%i%m%n%o%p%q%r%s%t%u%v%w%x%y%s#z%R#x$x$x$>$A%B%C%D%        ",
"        . E%F%G%H%I%J%K%L%L%L%M%N%O%P%Q%!%R%S%T%U%V%y%P#x$R#x$x$x$W%X%Y%Z%.         ",
"          `% &.&O%+&@&#&+&+&+&$&%&&&*&=&-&;&>&V$6$'$P#R#R#R#s#s#s#,&'&)&!&          ",
"            ~&{&O%]&^&/&(&_&:&<&[&}&~%|&1&w%x%2&3&>$s#R#4&R#s#y$s#5&6&7&8&          ",
"            . 9&0&a&b&c&d&e&d&f&g&h&i&j&k&Y$w$y%s#>$7$x$4&R#z$l&m&n&o&p&            ",
"              . q&r&s&s&t&u&v&w&4$]%U%w$s#P#s#P#P#s#x&y&z&A&B&C&/%D&.               ",
"                . E&F&s&G&H&T%I&J&U%K&W$L&'$7$R#>$y$s#s#M&N&O&P&Q&.                 ",
"                  R&S&T&U&V&T%W&5$W$X&Y&P#P#R#R#s#3&s#Z&`& *.*+*@*                  ",
"                    . #*$*%*&*******=*-*;*8#>*,*'*'*)*!*~*{*]*8&                    ",
"                        . ^*/*(*_*:*<*[*}*>#|*9#B$`$1*2*3*.                         ",
"                              4*5*6*,#7*,#,#,#,#C$ %_%                              ",
"                                    . . . . . .                                     ",
"                                                                                    ",
"                                                                                    "};
