/* XPM */
static char *result[] = {
/* columns rows colors chars-per-pixel */
"32 32 4 1 ",
"  c #1A1E1C",
". c #202523",
"X c #242B2B",
"o c #2F3434",
/* pixels */
"X..XXXX...XXXXX ..XXXX    ......",
"XXX.XXX..XXXXXX XX.XXX .........",
"XXXXXXX.XXXXXXX XXXXXX .........",
"XXXXXXX.XXXXXXX.XXXXXX..........",
"XXXXXXX.XXXXXXX.XXXXXo..........",
"XXooooX.oXXXXXX.XXXXXo.XXXXXXXX ",
"........oooooXX.Xooooo......... ",
"XX.........   ..........XXXXX.XX",
"XXX.X.....  .......XX.X.XXXX.X.X",
"XXXXX....  ........XX.X.XXXX.XXX",
"XXXXX... ..........X.XX.XXXXX.XX",
"XXXXX..............XXXX.XXXXXXXX",
"XXXXX............X.XXXX.XXXXXXXX",
"XXXXX....XXX.....X.XXXX.XXXXXXXX",
"XXooo.......XXXXX..oooo.ooooooXX",
"................................",
"XX..XXXXX.     ..XXXXXXXXX.XXXX.",
"XXX.XXXXX.  ....XXXXXXXXXX.XXXX.",
"XXXX.XXXX ......XXX.XXXXXX.XXXX.",
"XXXXXXXXo ......XXX.XXXXXX.XXXX.",
"XXXXXXXXo ......XXXX.XXXXo.XXXX.",
"XXXXXXooo.......oXXXXXXXXo XXXo.",
"..       .......ooXXXooooo Xooo.",
"XXXX.. .XXXX..X.........     ...",
"XXXXX...XXX.XXXXXXXXX.   .......",
"XXXX.XX.XXXXXXXXXXXXX  .........",
"XXXXXXX.XXXXXXXXXXXXX ..........",
"XXXXXXX.XXXXXXXXXXXXX...........",
"XXXXXXX.XXXXXXXXXXXXX...........",
"XXXXXXo XXXXXXXXXXXXX X.........",
"XXXoooo oooooXXXXXXoo XXXXX.....",
"...     ......        ...     .."
};
