/* XPM */
static char * Brique2_xpm[] = {
"42 42 4 1",
" 	c #2A2628",
".	c #241F21",
"+	c #1D191B",
"@	c #322E30",
" ...     ....       +...     +++++........",
"    .    ...        +   .    +............",
"    .    ...        +   .    +............",
"         .          +        +............",
"         .          .        .............",
"         .          .       @.............",
"         .          .       @.............",
"   @@@@@ .@@        .       @.           +",
"..........@@@@@@@   . @@@@@@@............+",
"   ...........++++.............       .   ",
"    .  ......+++.........   . .      . .. ",
"    .  ......+++.........   . .      . .. ",
"       .....++...........   . .      .    ",
"       ...++............. ..  .       .   ",
"       ..................     .           ",
"       ..................     .           ",
"       ...............  .     .           ",
"       .....    ......  .     .           ",
"   @@@@.........      ...@@@@@.@@@@@@@@   ",
"   @@@@.........      ...@@@@@.@@@@@@@@   ",
"..........................................",
"   ..       .+++++++..            .      .",
"    .       .+++.....             .      .",
"    .       .+++.....             .      .",
"     ..     +........    .        .      .",
"          @@+........    .        .      .",
"          @@+........     ..     @.      .",
"          @@+........     ..     @.      .",
"        @@@@.........@           @+    @@.",
"...+++++++++.........@@@    @@@@@@+  @@@@.",
"     ...+.      ..  ...........+++++++....",
"       ...    ..            .++++.........",
"       ...    ..            .++++.........",
"     ..  .                  ++............",
"         .                  +.............",
"         .                  ..............",
"         .                  ..............",
"         .                  ..............",
"        @+                  + ............",
"    @@@@@+@@@@@@@        @@@+      .......",
"    @@@@@+@@@@@@@        @@@+      .......",
"....++++++........+++++++++++....++++++..."};
