/* XPM */
static char *Jiggy_3[] = {
/* columns rows colors chars-per-pixel */
"42 42 175 2 ",
"   c #182B17",
".  c #182E1A",
"X  c #173417",
"o  c #1B351C",
"O  c #1C3D1C",
"+  c #203F1F",
"@  c #1D3222",
"#  c #1E3B22",
"$  c #1E3F2A",
"%  c #213D24",
"&  c #583818",
"*  c #13560A",
"=  c #184614",
"-  c #184815",
";  c #12401A",
":  c #1C441C",
">  c #1E4B1D",
",  c #1B5416",
"<  c #165914",
"1  c #1E5C14",
"2  c #175619",
"3  c #1E531B",
"4  c #1E5B1C",
"5  c #21431E",
"6  c #214C1D",
"7  c #284D1E",
"8  c #215516",
"9  c #22541E",
"0  c #235C1D",
"q  c #285B1E",
"w  c #1E621B",
"e  c #226E16",
"r  c #24631D",
"t  c #2B641D",
"y  c #246A1C",
"u  c #296C1E",
"i  c #257215",
"p  c #25711D",
"a  c #2A741D",
"s  c #267D1C",
"d  c #2D7B1D",
"f  c #317D1E",
"g  c #387C1F",
"h  c #1E4421",
"j  c #1E4B21",
"k  c #224423",
"l  c #234B23",
"z  c #23442A",
"x  c #28472E",
"c  c #254C29",
"v  c #284C2D",
"b  c #245323",
"n  c #295624",
"m  c #245B23",
"M  c #295C24",
"N  c #26542A",
"B  c #2A552C",
"V  c #2A5B2C",
"C  c #2A5332",
"Z  c #2B5B32",
"A  c #335E3A",
"S  c #1F6220",
"D  c #266322",
"F  c #2A6324",
"G  c #266B23",
"H  c #2B6C23",
"J  c #276228",
"K  c #2B622B",
"L  c #276C2B",
"P  c #2C6B2C",
"I  c #326E22",
"U  c #32602B",
"Y  c #326C2B",
"T  c #2D7424",
"R  c #2C7B23",
"E  c #2D742A",
"W  c #307525",
"Q  c #327C24",
"!  c #32742C",
"~  c #337B2A",
"^  c #387A2E",
"/  c #306235",
"(  c #356E31",
")  c #337533",
"_  c #387331",
"`  c #347C31",
"'  c #387B3B",
"]  c #684828",
"[  c #805028",
"{  c #986030",
"}  c #A87030",
"|  c #C07030",
" . c #268514",
".. c #2C8818",
"X. c #2A881F",
"o. c #32841F",
"O. c #328B1F",
"+. c #2F9617",
"@. c #39951E",
"#. c #35991D",
"$. c #3EA51E",
"%. c #2F8223",
"&. c #2F8924",
"*. c #2C8328",
"=. c #348324",
"-. c #398123",
";. c #358C24",
":. c #3A8C24",
">. c #35842B",
",. c #3A822C",
"<. c #358C2A",
"1. c #3A8D2C",
"2. c #349322",
"3. c #3B9424",
"4. c #3C9C24",
"5. c #35952B",
"6. c #3E962B",
"7. c #3E9A2B",
"8. c #358430",
"9. c #3B8935",
"0. c #3D9433",
"q. c #3E9B39",
"w. c #37A124",
"e. c #3CA326",
"r. c #3DA42B",
"t. c #3EAD28",
"y. c #3DA632",
"u. c #48BB1F",
"i. c #428F2B",
"p. c #429C27",
"a. c #43952E",
"s. c #499E2F",
"d. c #428B39",
"f. c #429934",
"g. c #44943B",
"h. c #42A323",
"j. c #43AB25",
"k. c #44A12B",
"l. c #43A92C",
"z. c #4AA92A",
"x. c #4AAB2D",
"c. c #51AF25",
"v. c #43B323",
"b. c #49B927",
"n. c #4AB42A",
"m. c #47BA29",
"M. c #4BBA2C",
"N. c #52B02D",
"B. c #50BA2A",
"V. c #44A332",
"C. c #4AA734",
"Z. c #4EAA34",
"A. c #47A138",
"S. c #4CAB3C",
"D. c #53AD3A",
"F. c #4FBF32",
"G. c #56B336",
"H. c #53B934",
"J. c #56B43E",
"K. c #4FC52B",
"L. c #52C32C",
"P. c #58CA2C",
"I. c #4DC431",
"U. c #51C437",
"Y. c #59B140",
"T. c #5DC141",
"R. c #6ED345",
"E. c #E09048",
"W. c #F8B848",
"Q. c #E0A068",
"!. c #F8A868",
"~. c #F0B868",
"^. c #F8D048",
"/. c #F8E868",
"(. c #F8F890",
/* pixels */
"e.N M.u E D e - m >.R 0 o # m D.z ( ,.K O m > b p.M.o 9 k l 7 + v % # # # b 6 > > k ",
"4.3 B.G.b H :.> y b > b V j q.$ N ] ] Z V.N 6 e.o.O 9 Q M k % = w.N b b j w l 6 l : ",
":.@.j.C.u P d m p 3 b m <.{ Q.Q.E.W.W.E.E.{ 2.k 0 l V M U k % >.G.4.m a V t.0 j.6.3 ",
"Q :.2.a.3.l d T m.m 4 K h !.W.W.W.W.W.W.E.E.{ . O k : l 6 l c ~ <.D.;.m 1 %.L a O 7.",
"=.a f Y =.4 r < P.Y b . n W.W.W.W.W.W.W.E.E.| + j z h j Z.c J H G > E 9 r 0 ,.f Q o.",
"u d @.=.&.m s R.T.k ` # : W.W.W.W.W.W.W.W.E.E.g.b x ( D f.> m S D l.6 : m 9 0 y x.r ",
"u -.y u >.M K.u.1 H % S.{ W.W.W.W.W.W.^.W.E.E.} # T j E 0.N m N 0 t.m : m T -.Q f d ",
"a r T 9 T =.P.K.E z Y.Z } W.W.W.W.W.W.^.^.E.E.Q.D m m * ! c G j 4.4.G : w T l O.7 n ",
";.F <.> H O.-.e.h U.A.x { W.W.W.W.W.W.^.^.E.E.} i m 0.+...v.4 3 x.5.j j *.F =.l q H ",
"6 1.x.b M M =.7 4.9.h N & W.W.W.W.W.W.W.^.W.Q.5.4.r <.;.b.y D <.>.L m M / m Q <.u n.",
"b :.s.k F D O X.c h z z 2 } W.W.W.W.W.W.W.} H.r.3.=.7.H.l.J t.) 8.z m V m 6 R 7 p.9 ",
"3 I 3.+ ] ] ] ] ] q.0.q.8.{ E.W.W.W.W.W.W.{ 5.r...6 7.O.1.J J ) h l h : 6 E b Q 0 -.",
"5 > ;.] ~.~.~.~.~.~.~.~.Q.!.W.W.W.W.W.W.W.Q.E.| | | | E.| } } { k Z . % P R T b z.-.",
"j 0 ~ ] /./././.^.^.~.~.W.W.W.W.W.W.^.W.W.^.W.W.E.E.E.E.E.E.E.} C ! E b >.4 F.F j.3 ",
"T m R ] /././././.^.~.~.~.W.W.W.^.W.W.W.W.^.^.W.E.E.E.E.E.E.E.} 9 p.c L T 2.e.3 @.&.",
"b 0 ,.] /./././././.~.~.~.W.W.W.^.W.W.W.W.^.^.^.E.E.E.E.E.W.E.} 0.j 1.` m R l.0 4.c.",
", 0 y ] /././.Q.Q.~.~.~.~.W.W.W.^.W.W.W.W.^.^.^.W.E.E.E.E.E.E.| k [ ] ] : j R , r :.",
"^ l > ] ~.Q.=.k.V.S > I.[ W.W.W.W.^.^.^.^.^.^.^.^.W.E.E.E.E.E.E.E.E.| } } } { { V.;.",
"^ 6 M 0 ] j.Q #.0 G #.;.R ~.W.W.W.W.W.^.^.^.^.^.^.W.E.E.E.E.E.E.| | } } } } } } =.a.",
",.6 F r Q h.:.O.9 ; p.d ;.~.W.W.W.W.W.^.^.^.^.^.^.W.W.E.E.E.E.E.| | } } } } } } 6 Q ",
"t F D H n.t f I 8 Y.Q t : Q.~.W.W.W.W.W.^.^.^.^.^.W.W.W.E.E.E.E.| | | } } } } } & u ",
":.P q C.@.t F q J.s.a D 5.& Q.W.W.W.W.W.W./.^.W.W.W.W.W.W.E.E.E.| | | } } } } } { & ",
"D 3 a -.I u t 0 x.=.F ~ m & Q.W.W.W.W.W.W./.^.W.W.W.W.W.W.E.E.E.| | | } } } } } { C.",
"=.%.Q w r F q >.u Y E J O { ~.~.W.W.W.W.W.^.^.^.W.W.W.W.W.E.E.E.| | | | } } } } ] ..",
"a.H F 5 M H m W -.M k N J E.~.~.W.W.W.W.W.^.^.^.W.W.W.W.W.E.E.E.| | | | } } } } & :.",
"  =.^ R Q.~.7 H ~ l l O & ^.^.~.~.W.W.W.W.^.^.W.W.W.W.E.E.E.E.| | | | | } } } } Q W ",
"l ^ ! ] (.(.Q.] T ] { Q.Q./.^.~.~.W.W.W.W.W.^.W.W.W.W.E.E.E.E.{ [ } | } } } { ] 3.! ",
"9 m k ] (.(.(.~.Q.Q.~././././.^.~.~.W.W.W.W.^.^.W.^.W.E.E.E.E.{ :.g [ } ] f I g h.n ",
"M b j ] (.(.(././././././././././.~.W.W.W.W.^.^.^.^.W.W.E.E.E.{ >.:.G T 9 9 M : :.O ",
"O N n E (.(.(.(.(.(././././.~.Q.{ 0 f.[ Q.W.^././.^.^.W.E.E.E.{ j 4 G T r 3 e _ W O ",
"5 c H H ~.(.(.(.(.(.(././.Q.[ $.=.R : ~ j Q.~.^./.^.^.W.E.E.E.{ l y.> t j 4 h.X r 2 ",
"N N , m ~.(.(.(.(.(.(.(./.;.q N.8 >.Z b 9 O | ^./.^.^.W.W.E.E.{ b r.j.m 0 #.3.3 , R ",
"B b w M.~.(.(.(.(.(.(.(./.G t 3.6.Y j w ~ N [ E.^.^.^.W.W.E.E.{ S 2.` +.2.T a D K.u ",
"K b 4 G ~.(.(.(.(.(.(.(.~.> -.,.T b e.' R N & E.W.^.^.^.^.W.W.} R S.G 7 3 r r r L.b.",
"3 3  .: ~.(.(.(.(.(.(.(.~.l T c 5 s h V f.: & | ^.^.^.^.^.W.W.{ R S.O u.r 0 t v.@.j.",
"r  .l 5 ~.(.(.(.(.(.(.(./.M O 6 r : V k ;.& & } ^.^.^.^.^.W.W.{ g.S.*.n.! m D j.4.h.",
"s 7 p l ~.(.(.(.(.(.(.(.(.[ N 6 V v J.k r [ } E.^./.^.^.^.W.W.{ 9.R p.u D 3 1 Q d h.",
"k w.z m ~.(.(.(.(.(.(.(.(.~.0 x c # k *.l [ E.W.W././.^.^.W.W.{ m R k.N : 0 :.^ d l ",
">.z N l ~.(.(.(.(.(.(.(.(.~.c 6 Z N ! >.> } ~.~.~./././.^.~.Q.[ m 7 6.: 4 k >.F G # ",
"Z D 5 > Q.(.~.~.~.~.~.~.Q.Q.U.9.Z N h d.^ ] [ [ { [ [ [ [ ] & n 0 ~ l N k 6 l H # > ",
"N =.b 0 9 u 0 o.5 Q W t b.r.m C z c V S H 9 E Q i.8 p.I 5 I M :.V k / % ~ b M h O c ",
"b N m H.m y 9 d 8 r r h.R : $ k n A J k W K > > i.:.s.9 5 q 5 B z C @ # > h - k B l "
};
