/* XPM */
static char *_30505d16d9445bbb3287de82baf7c85RCx1ACxEa5O2alx1[] = {
/* columns rows colors chars-per-pixel */
"42 42 178 2 ",
"   c #182B17",
".  c #192D1C",
"X  c #163A14",
"o  c #183C17",
"O  c #1B351B",
"+  c #173C19",
"@  c #1C3D1C",
"#  c #203F1F",
"$  c #1E3B22",
"%  c #1E3926",
"&  c #213C23",
"*  c #583818",
"=  c #194615",
"-  c #164A14",
";  c #1A4916",
":  c #1C441C",
">  c #1E4B1D",
",  c #1C5516",
"<  c #165914",
"1  c #1D5C14",
"2  c #175619",
"3  c #1E541B",
"4  c #1E5D1C",
"5  c #21441D",
"6  c #214C1E",
"7  c #284D1E",
"8  c #205D17",
"9  c #23541E",
"0  c #28571E",
"q  c #225B1E",
"w  c #285B1E",
"e  c #1B620F",
"r  c #1F631A",
"t  c #226E16",
"y  c #24641D",
"u  c #2B641E",
"i  c #246A1D",
"p  c #296D1E",
"a  c #25711D",
"s  c #2B741D",
"d  c #267B1E",
"f  c #2C7C1D",
"g  c #317D1D",
"h  c #387C1F",
"j  c #1E4323",
"k  c #1E4B21",
"l  c #1F4528",
"z  c #224423",
"x  c #234B23",
"c  c #224429",
"v  c #28462E",
"b  c #254C2B",
"n  c #284B2F",
"m  c #245323",
"M  c #295624",
"N  c #245B22",
"B  c #2A5C25",
"V  c #26532B",
"C  c #2A552B",
"Z  c #255929",
"A  c #2A5C2B",
"S  c #2A5432",
"D  c #2C5C34",
"F  c #335E3A",
"G  c #266323",
"H  c #296424",
"J  c #266B23",
"K  c #2B6C24",
"L  c #276228",
"P  c #2B632B",
"I  c #276C2B",
"U  c #2D6B2C",
"Y  c #306E27",
"T  c #31652D",
"R  c #336D29",
"E  c #277320",
"W  c #2C7424",
"Q  c #2D7C23",
"!  c #2F762B",
"~  c #2E792D",
"^  c #307426",
"/  c #327C24",
"(  c #33732B",
")  c #327C2B",
"_  c #387C2E",
"`  c #2D6531",
"'  c #2F6D34",
"]  c #306235",
"[  c #337433",
"{  c #387331",
"}  c #357E36",
"|  c #684828",
" . c #805028",
".. c #986030",
"X. c #A87030",
"o. c #C07030",
"O. c #268514",
"+. c #2D841C",
"@. c #2B8B1E",
"#. c #31871F",
"$. c #32891F",
"%. c #37921F",
"&. c #39941F",
"*. c #3EA51E",
"=. c #2E8123",
"-. c #2E8823",
";. c #2B8128",
":. c #348324",
">. c #398123",
",. c #358C23",
"<. c #3A8C23",
"1. c #35842B",
"2. c #3A822B",
"3. c #358C2B",
"4. c #3C8C2B",
"5. c #359121",
"6. c #3B9324",
"7. c #369922",
"8. c #3B9B24",
"9. c #3C942B",
"0. c #3D982C",
"q. c #358430",
"w. c #3D8234",
"e. c #378830",
"r. c #3A8933",
"t. c #3E9B39",
"y. c #37A124",
"u. c #3DA226",
"i. c #3EA32C",
"p. c #3EAD28",
"a. c #48BB1F",
"s. c #428D2C",
"d. c #429C27",
"f. c #43952C",
"g. c #449B2B",
"h. c #499E2D",
"j. c #4B8E35",
"k. c #449736",
"l. c #429C31",
"z. c #42A223",
"x. c #44AA25",
"c. c #44A32E",
"v. c #44AB2C",
"b. c #4AA92A",
"n. c #4BAC2D",
"m. c #51AF25",
"M. c #43B224",
"N. c #49B927",
"B. c #4CB429",
"V. c #4CBA2C",
"C. c #52BB2B",
"Z. c #44A433",
"A. c #4BA734",
"S. c #4EA830",
"D. c #47A138",
"F. c #49A83D",
"G. c #53AA37",
"H. c #53AE3C",
"J. c #54B334",
"K. c #54BD32",
"L. c #54BA3B",
"P. c #4FC52B",
"I. c #53C42C",
"U. c #59CA2C",
"Y. c #5AC338",
"T. c #65CB3B",
"R. c #4A9341",
"E. c #61B941",
"W. c #5DC141",
"Q. c #6ED345",
"!. c #E09048",
"~. c #F8B848",
"^. c #E0A068",
"/. c #F8A868",
"(. c #F0B868",
"). c #F8D048",
"_. c #F8E868",
"`. c #F8F890",
/* pixels */
"u.Z V.p ! G t = N ) Q q O $ N H.c ] 1.P + N > m z.V.O 9 z x 6 $ n & $ $ $ 9 > > > x ",
"8.3 C.J.m K ,.6 K m > m A k t.$ V x l.D Z.V k |  .@ 9 / P z z - 8.Z V q x r V x x : ",
"<.5.x.S.p U s N s , 9 N 3.r.V c G } r.> ..!.!.~.~.!.^.^...z z 1.H.8.N K A p.q x.9.3 ",
"/ <.6.f.<.m Q s V.N 4 U c j & ' J W k...!.!.~.~.~.~.~.~./.x c ) 3.H.,.N 1 / L s @ 0.",
":.s f R 1.4 y < U.U > . q j 4 ;.H i [ o.!.!.~.~.~.~.~.~.~.c L K J > W m y q 2./ / g ",
"p s 8.:.-.q d Q.T.c ) $ : n V W ~ H.m !.!.~.~.~.~.~.~.~.~.: N i G Z.6 : N 3 8 y n.y ",
"K :.p p 1.N I.a.1 K & F.S l j N 1.} X.!.!.~.).~.~.~.~.~.~...m V q M.N : N W :.Q g f ",
"s y W 9 W 1.Y.N.I $ W.D b D % N ` & ^.!.!.).).~.~.~.~.~.~.X.J m 8.8.K j y K x $.x M ",
",.H 3.; K #.<.u.j Y.Z.v S V c P c j X.!.!.).).~.~.~.~.~.~...4 3 n.3.x > Q H :.7 w J ",
"6 r.n.m M H :.x y.r.c V S j n c ' j V ^.~.).~.~.~.~.~.~.~.* G ,.:.I Z G ] M ) 3.p B.",
"m 5.c.x H G : @.b j % c 2 0.) U G -.i.;.X.~.~.~.~.~.~.~.o.H v.[ q.c N A q 6 Q x d.9 ",
"9 K 6.5 C & J $ x k.9.D.1.e.~ @.v.Q V m ..~.~.~.~.~.~.!...A G [ j | | | | | m :.q ,.",
"> > :.> : m G ,.-.! ..X.X.o.!.o.o.o.o.!.^.~.~.~.~.~.~.~./.^.(.(.(.(.(.(.(.(.| 9 v.>.",
"x N / x z & > f L.4 X.!.!.!.!.!.!.!.~.~.).~.~.).~.~.~.~.~.~.(.(.).)._._._._.| G x.q ",
"W N Q : O 6 i 8.K.+ X.!.!.!.!.!.!.!.~.).).~.~.~.~.).~.~.~.(.(.(.)._._._._._.| 9 6.:.",
"m q _ c.e : G @.B.J X.!.~.!.!.!.!.!.).).).~.~.~.~.).~.~.~.(.(.(._._._._._._.| q 6.m.",
", q i > Y.x | |  .N o.!.!.!.!.!.!.~.).).).~.~.~.~.).~.~.~.(.(.(.(.^.^._._._.| , y ,.",
"_ m ....X.X.X.o.!.!.!.!.!.!.!.!.~.).).).).).).).).~.~.~.~. .W @ m A Q 7.^.(.| r.A.,.",
"2.x X.X.X.X.X.X.o.o.!.!.!.!.!.!.~.).).).).).).~.~.~.~.~.(.w.j x G.y C k.9.| 3.9 :.f.",
"2.> X.X.X.X.X.X.o.o.!.!.!.!.!.~.~.).).).).).).~.~.~.~.~.(.5 [ w.8.g.G o 1.s r :.> / ",
"u * X.X.X.X.X.o.o.o.!.!.!.!.~.~.~.).).).).).~.~.~.~.~.(.^.x C c.9.0 / : / u q w.s p ",
"* ..X.X.X.X.X.o.o.o.!.!.!.~.~.~.~.~.~.)._.~.~.~.~.~.~.^.* f.z y c.6.v.H K 9 9 = y 4.",
"G ..X.X.X.X.X.o.o.o.!.!.!.~.~.~.~.~.~.)._.~.~.~.~.~.~.^.* 9 f.> G :.:./ Q M N 1.H A.",
":.| X.X.X.X.o.o.o.o.!.!.!.~.~.~.~.~.).).).~.~.~.~.~.(.(...W R E > l./ N N G z g.9 f ",
"s.* X.X.X.X.o.o.o.o.!.!.!.~.~.~.~.~.).).).~.~.~.~.~.(.(.!.T P , O v.: Q : P K _ g <.",
"  :.X.X.X.X.o.o.o.o.o.!.!.!.!.~.~.~.~.).).~.~.~.~.(.(.).).* z > 8.> f.q (.^.m :.Q ^ ",
"x ) | ..X.X.o.o.X. ...!.!.!.!.~.~.~.~.).~.~.~.~.~.(.(.)._.^.^...| 5.| ^.`.`.| 9 6.( ",
"m B z ^ N | X. .) 6 ..!.!.!.!.~.).~.).).~.~.~.~.(.(.)._._._._.(.^.^.(.`.`.`.| h z.M ",
"B V j = 9.N N K U T ..!.!.!.~.~.).).).).~.~.~.~.(._._._._._._._._._._.`.`.`.| : <.O ",
"@ V M W 8.o K G J x ..!.!.!.~.).)._._.).~.^. .z v ..^.(._._._._.`.`.`.`.`.`.t { W @ ",
"5 b K W s ! ( N z U ..!.!.!.~.).)._.).(.^.V @ & G V N  .^._._.`.`.`.`.`.`.(.z.O y 2 ",
"V V , M 9.N X O M 4 ..!.!.~.~.).)._.).o.9 @ R.x J L H q C._.`.`.`.`.`.`.`.(.8., 3 =.",
"A m 4 V.G ; i > 1 ) ..!.!.~.~.).).).!. ./ V U Z B Z ) J 0._.`.`.`.`.`.`.`.(.K y P.a ",
"P 3 3 a x.f i v.=.g.X.~.~.).).).).~.!.* Q C q 9.M 9 t 3 y (.`.`.`.`.`.`.`.(.y y I.N.",
"6 4 O.: v.E 9 C.i G ..~.~.).).).).).o.* l.j B G.q _ G x./ (.`.`.`.`.`.`.`.(.y M.&.x.",
"y O.z 5 +.%.p x.8 , ..~.~.).).).).).X.* * - 6 <.:.N q T.H _.`.`.`.`.`.`.`.(.G x.8.z.",
"d x a c ;.:.i %.y 6 ..~.~.).).)._.).!.X. .c.5 H 4.x 9 U. .`.`.`.`.`.`.`.`.(.1 / f u.",
"z y.c N 9 H ( ,.E.f...~.~.).)._._.~.~.!. .h.6 Y 9 W L.V.(.`.`.`.`.`.`.`.`.(.,.1.f x ",
"1.v V x q 1.q s s 8  .^.(.)._._._.(.(.(.X.h.: j.q y C.b.(.`.`.`.`.`.`.`.`.(.1.H J $ ",
"D G z : , W q +.u.$./ * |  . . . ... . .| s.m <.B 9 J.5.^.^.(.(.(.(.(.(.`.^.x K $ j ",
"C ) V q 9 K q #.5 :.W G B.i.m S c b A q K 9 ^ :.6.w d.u 5 K B ,.B z ] & 1.m M # @ c ",
"> V N K.N i 9 s 9 y y *.=.: & z A F G z W P > > 2.<.h.M 5 w 5 A c S % & > k ; c C x "
};
