/* XPM */
static char * Collectible jiggy_xpm[] = {
"42 42 15 1",
" 	c None",
".	c #684828",
"+	c #805028",
"@	c #986030",
"#	c #E09048",
"$	c #F8B848",
"%	c #E0A068",
"&	c #F8A868",
"*	c #C07030",
"=	c #A87030",
"-	c #F8D048",
";	c #583818",
">	c #F0B868",
",	c #F8E868",
"'	c #F8F890",
"                                          ",
"                       .+                 ",
"                    @##$$#%%@             ",
"                   @##$$$$$$&             ",
"                   *##$$$$$$$             ",
"                   ##$$$$$$$$             ",
"                  =##$-$$$$$$@            ",
"                  %##--$$$$$$=            ",
"                  =##--$$$$$$@            ",
"                   %$-$$$$$$$;            ",
"                    =$$$$$$$*             ",
"                    @$$$$$$#@    .....    ",
"          @==*#****#%$$$$$$$&%>>>>>>>>.   ",
"          =#######$$-$$-$$$$$$>>--,,,,.   ",
"          =#######$--$$$$-$$$>>>-,,,,,.   ",
"          =#$#####---$$$$-$$$>>>,,,,,,.   ",
"      ..+ *######$---$$$$-$$$>>>>%%,,,.   ",
"  @@===*########$--------$$$$+      %>.   ",
"  ======**######$------$$$$$>        .    ",
"  ======**#####$$------$$$$$>             ",
" ;=====***####$$$-----$$$$$>%             ",
";@=====***###$$$$$$-,$$$$$$%;             ",
" @=====***###$$$$$$-,$$$$$$%;             ",
" .====****###$$$$$---$$$$$>>@             ",
" ;====****###$$$$$---$$$$$>>#             ",
"  ====*****####$$$$--$$$$>>--;      >%    ",
"  .@==**=+@####$$$$-$$$$$>>-,%%@. .%''.   ",
"     .=+  @####$-$--$$$$>>-,,,,>%%>'''.   ",
"          @###$$----$$$$>,,,,,,,,,,'''.   ",
"          @###$--,,-$%+  @%>,,,,''''''    ",
"          @###$--,->%      +%,,''''''>    ",
"          @##$$--,-*         ,'''''''>    ",
"          @##$$---#+         ,'''''''>    ",
"          =$$----$#;         >'''''''>    ",
"          @$$-----*;         >'''''''>    ",
"          @$$-----=;;        ,'''''''>    ",
"          @$$---,-#=+       +''''''''>    ",
"          @$$--,,$$#+       >''''''''>    ",
"          +%>-,,,>>>=       >''''''''>    ",
"           ;.++++@++.       %%>>>>>>'%    ",
"                                          ",
"                                          "};
