/* XPM */
static char *Jiggy_2[] = {
/* columns rows colors chars-per-pixel */
"42 42 199 2 ",
"   c #182B17",
".  c #182E1A",
"X  c #183617",
"o  c #143F13",
"O  c #183C17",
"+  c #1B351C",
"@  c #173919",
"#  c #1C3D1B",
"$  c #273E1F",
"%  c #1E3B22",
"&  c #1E3926",
"*  c #223C24",
"=  c #583818",
"-  c #13560A",
";  c #194615",
":  c #154A12",
">  c #1A4916",
",  c #144719",
"<  c #1C441C",
"1  c #1E4B1D",
"2  c #165517",
"3  c #1C5516",
"4  c #175C13",
"5  c #1D5C15",
"6  c #1E541C",
"7  c #1E5C1C",
"8  c #21441E",
"9  c #214C1D",
"0  c #284D1E",
"q  c #23541D",
"w  c #235819",
"e  c #235C1D",
"r  c #285D1E",
"t  c #1B620F",
"y  c #196115",
"u  c #1E631B",
"i  c #226E16",
"p  c #24641D",
"a  c #2A631E",
"s  c #246A1D",
"d  c #2A6C1E",
"f  c #25721D",
"g  c #2B741D",
"h  c #277D1E",
"j  c #2D7C1E",
"k  c #347A1F",
"l  c #317D1E",
"z  c #1E4422",
"x  c #1E4C21",
"c  c #1F4528",
"v  c #224423",
"b  c #234C23",
"n  c #2C4D21",
"m  c #224429",
"M  c #28472E",
"N  c #254C2A",
"B  c #284C2C",
"V  c #3D4825",
"C  c #235323",
"Z  c #295524",
"A  c #245B23",
"S  c #295B25",
"D  c #26532B",
"F  c #29542D",
"G  c #2A5B2B",
"H  c #335622",
"J  c #2A5432",
"K  c #2C5C33",
"L  c #2F5938",
"P  c #266323",
"I  c #296424",
"U  c #266C24",
"Y  c #2B6C23",
"T  c #276329",
"R  c #2A642B",
"E  c #276C2B",
"W  c #2D6C2C",
"Q  c #396023",
"!  c #326E23",
"~  c #31632C",
"^  c #326B2A",
"/  c #277324",
"(  c #2C7424",
")  c #2D7B23",
"_  c #2D742A",
"`  c #2E7A2C",
"'  c #307525",
"]  c #327C24",
"[  c #32742B",
"{  c #337B2B",
"}  c #397C2D",
"|  c #2D6530",
" . c #2F6D33",
".. c #306235",
"X. c #356E31",
"o. c #337433",
"O. c #347A31",
"+. c #4B4B24",
"@. c #475D2C",
"#. c #505B2C",
"$. c #684828",
"%. c #417026",
"&. c #517327",
"*. c #517133",
"=. c #805028",
"-. c #986030",
";. c #268514",
":. c #2A8D16",
">. c #2C831C",
",. c #2B8B1E",
"<. c #318F17",
"1. c #32841F",
"2. c #338B1E",
"3. c #2F9617",
"4. c #37941E",
"5. c #38941F",
"6. c #34991D",
"7. c #389C18",
"8. c #3EA51E",
"9. c #2E8223",
"0. c #2F8922",
"q. c #2D842A",
"w. c #348324",
"e. c #348C24",
"r. c #3A8C24",
"t. c #35842B",
"y. c #3A822C",
"u. c #358C2B",
"i. c #3A8D2C",
"p. c #369423",
"a. c #3B9424",
"s. c #349922",
"d. c #3C9C24",
"f. c #34972B",
"g. c #3C952B",
"h. c #3D9A2C",
"j. c #368630",
"k. c #3B8333",
"l. c #3B8A34",
"z. c #3D9432",
"x. c #3E9B39",
"c. c #37A124",
"v. c #3CA226",
"b. c #3DA42B",
"n. c #3DAD2A",
"m. c #3DA632",
"M. c #4CBC1F",
"N. c #408325",
"B. c #408924",
"V. c #428D2A",
"C. c #44952D",
"Z. c #4D932A",
"A. c #429C2B",
"S. c #4A9D2D",
"D. c #459535",
"F. c #449B35",
"G. c #43A323",
"H. c #49A525",
"J. c #43AB25",
"K. c #44A22C",
"L. c #4AA62F",
"P. c #44AB2C",
"I. c #4BAB2C",
"U. c #51AF25",
"Y. c #43B323",
"T. c #4BBC26",
"R. c #47B229",
"E. c #4BB42B",
"W. c #4CBA2C",
"Q. c #52B02D",
"!. c #52BB2B",
"~. c #44A332",
"^. c #4BA633",
"/. c #4EAA34",
"(. c #4BA439",
"). c #4BAB3C",
"_. c #52A535",
"`. c #52AE3C",
"'. c #4FBF32",
"]. c #53B434",
"[. c #55B936",
"{. c #54B93A",
"}. c #4FC52B",
"|. c #52C32C",
" X c #59CA2C",
".X c #4DC431",
"XX c #58C536",
"oX c #65CB3B",
"OX c #59B140",
"+X c #61B941",
"@X c #6ED345",
"#X c #F8C038",
"$X c #E09048",
"%X c #F8B848",
"&X c #E0A068",
"*X c #F0B868",
"=X c #F8D048",
"-X c #F8E868",
";X c #F8F890",
/* pixels */
"v.D W.U _ P i ; A { ) e + % A `.N ..-.&X&X*X*X*X*X!.X q v 0 9 * B & % % % q 9 1 1 z ",
"d.3 !.].C Y e.9 d C 1 C G x x.& D $.-X-X-X-X-X-X=X< Z ] S v * ; v.D D 7 b u C b b < ",
"r.p.J.L.d ^ j A g 3 C A u.l.D c R =.=X=X=X=X=X%X%Xb S S ~ v z t.`.d.e Y G n.e J.g.q ",
"] r.a.C.a.9 ) g W.A 7 R c c %  .( $.=X=X=X=X=X%X%Xv z b 9 b m { u.].e.S 5 9.I g O h.",
"w.g j ^ t.7 p 4  X| x . 7 c 7 q.R -.=X=X#X=X%X%X%Xv c 1 /.N T E U 1 / 6 P e t.k ] 1.",
"d g d.w.0.A h @XoXc ` & , B D _ { -.=X%X%X%X%X%X%XM X.P ~.< A p a P.b < A 6 e p I.p ",
"d 1.d d t.A }.M.y / & OXJ c c A t.=.=X=X=X=X%X%X%XE 1 ` z.N C C e n.7 < A g w.) k j ",
"d p ( w ( t. XT.E z OXL N L & A | $.=X=X=X%X%X%X%XS C - ` N U C d.d.U z p ( 0 e.0 Z ",
"r.I u.> ( 1.2.A.< XX~.M J D c | * =.*X=X=X%X%X%X%XI z.3.:.n.5 6 /.p.x x 9.T r.0 r Y ",
"9 i.^.Z Z S w.b v.j.c J J c B c  .-.*X=X=X%X%X%X%X7 u.e.T.U P e.w.E D P | S ] t.! E.",
"Z r.K.v T P # ,.N c & c 2 z.` E $.%X%X%X%X%X%X%X$Xw.h.].b.I P.o.t.m A G A 9 9.b S.H ",
"1 ! a.8 S & U % x z.z.(.q.j.` 0.$.%X=X%X%X%X%X%X$X= d.e.i.G U o.c b z > v ( Z ] Q B.",
"1 > w.1 < 6 I u.0._ T ( / x * OX$.=X=X%X%X%X%X%X$X= { r A A.W * * K . * W ) ( q H.N.",
"v A { b v * 1 j {.7 , h.z | , j.$.=X=X%X%X%X%X=X$X= Y 8 i.O.* * F [ _ D t.A .XP H.w ",
"( A ) < X 9 s d.'.@ _ s.b W.c G $.=X%X%X%X%X=X=X$X= I 8 G * * D.q A.B U ( p.v.C 4.w.",
"A e } K.t < I ,.E.I A 0.s.L & % $.=X%X%X%X=X=X=X$X= v n Z B %.@.z.x u.O.A ) P.e d.U.",
"3 C U > XX9 I 2.n.P p 3 .XD D D $.=X=X=X=X=X=X%X$X$.a 8 Z g #.N.v n.{.[ < x g 3 p e.",
"} C > q !.q w.K.K.A 1 .Xf.f x D v -.-X-X-X-X-X-X-X$.Z # < b &.$ C G ) s.< C z.l.~.e.",
"} 9 S e j J.' 7.e I 6.e.) < ).. D =.;X;X;X;X;X;X-X$.F 9 D k.+.n (.P S D.g.3 l.q w.C.",
"y.9 I p ] G.r.2.q , v.) u.5 y x : $.;X;X;X;X;X;X-X$.0 Z < 9 *.*.d.C.P @ u./ u e.9 ] ",
"a I P E R.d k ! w OX] p # h P e.u 2.;X;X;X;X-X-X-X= 9 N w.9 @.L.f.q ] # ] a r k.g d ",
"r.W e H.5.I a r `.S.g P f.A ` p.l.$.%X=X=X=X=X=X-X= q N C C.V a ~.a.I.I Y q q ; p C.",
"P 3 g y.! d a e I.w.I ` C # / 0.5.$.%X=X=X=X=X-X-X= [ F C q Z.8 U w.w.] ) A e t.I /.",
"w.w.] p a I w t.d ^ ' R # ` / x p.$.%X=X=X=X=X-X-X= E A.S Y ^ g 1 F.] P Z P 9 Z.q l ",
"V.Y I 8 S E r ' y.Z b A I % z 6 k $.=X=X=X=X=X-X-X= 8 +X[.~ W 3 + P.< ) 8 Y I } ] r.",
"  w.} ) U ! 9 Y { b 9 $ % % R A ( &X%X=X=X=X=X-X-X= Z } A.g v z d.9 C.e e.q Z w.l ' ",
"x { [ e 1 e e g ' v 8 b , + A 6 $.%X%X%X%X*X*X-X*X< _.] Z k ^.D.! p.< d l k A.r a.[ ",
"C S v ' A q g ! { 9 X * q.R A ` $.%X%X%X%X*X=X-X*Xv w V.k.P ! a.e.g { q Y 1.d k H.Z ",
"S C z ; g.A A ( Y ~ A b l.b q !.< %X%X%X%X*X-X-X*X= S Q } P q [ t.i.U ( 3 q r < r.X ",
"# C Z ( d.O Y P E C  .A 7 4 A M.r %X%X%X*X=X-X-X*X= A XX} 9 Z C 6 5 U g p C i [ ( z ",
"8 B E ( g _ [ A v  ._ R U p.l.7.w.%X%X%X*X=X-X-X*X= A >.>.E I z m m.> P z 7 A.X e 2 ",
"D D 3 S g.A o + S u b A E u.r Q.5 %X%X*X*X=X-X-X*X= I w !.D X N C b.I.e r s.d.q 3 9.",
"G C 7 W.I > s 1 5 ` Y # ) U a a.d.%X*X*X*X-X-X-X*X= [ U d.b.R B P s.O.<.p.( g P }.i ",
"R q 6 / J.>.s P.9.A.3 W 9.1 y.y.E *X*X*X*X-X-X-X*Xq s 3 p w. .F / ).( q 6 p a p |.W.",
"9 5 ;.1 P.f q Q.s a 5.I g b ! b $ *X*X*X=X-X-X-X*X} U J.] w.I.o.` `.O Y.p e a R.5.J.",
"p ;.v < >.5.d J.e 3 { ) d S < 9 I *X*X=X-X-X-X-X*XA w oXU a.6.W.z.).9.W.[ e P J.d.G.",
") b f m 0.w.p 5.p 1 A p.G @ C 1 S *X=X-X-X-X-X-X*X0 q  XE ] w.A.l.( A.d e q 5 ] >.v.",
"v c.m A b U [ r.+XC.U h.z (.e M N *X-X-X-X-X-X-X*X( {.!.3 d t.[ A ) ~.C < e r.] j v ",
"w.N C b 7 { e g g t I.q f.Y N v K =X-X-X-X-X-X-X*Xr !.I.a > y.q A q g.8 7 v t.I U % ",
"K P z < 6 ( r 9.d.2.] 9.p y .Xl.K -X-X-X-X-X-X-X*Xq ].5.n 9 } 0 P [ b D v 9 9 ^ % < ",
"D t.C e e d w 1.0 ] ( a R.b.C J m -X*X*X-X-X-X;X*Xr C.d $ ! S r.G v ..* { C Z 8 < B ",
"1 D A [.A p e j w p a 8.) < z m S =.=.-.-.-.&X&X=.r.S.q < r 8 G v B & % 1 1 > v F N "
};
