/* XPM */
static char *result[] = {
/* columns rows colors chars-per-pixel */
"53 53 15 1 ",
"  c #583818",
". c #684828",
"X c #805028",
"o c #986030",
"O c #A87030",
"+ c #C07030",
"@ c #E09048",
"# c #F8B848",
"$ c #E0A068",
"% c #F8A868",
"& c #F0B868",
"* c #F8D048",
"= c #F8E868",
"- c #F8F890",
"; c None",
/* pixels */
";;;;;;;;;;;;;;;;;;;;;;;;;;;;;;;;;;;;;;;;;;;;;;;;;;;;;",
";;;;;;;;;;;;;;;;;;;;;;;;;;;;;.X ;;;;;;;;;;;;;;;;;;;;;",
";;;;;;;;;;;;;;;;;;;;;;;;;;.XO@@@+X ;;;;;;;;;;;;;;;;;;",
";;;;;;;;;;;;;;;;;;;;;;;;;o$@@##@@$$o;;;;;;;;;;;;;;;;;",
";;;;;;;;;;;;;;;;;;;;;;;;o@@@###@###%X;;;;;;;;;;;;;;;;",
";;;;;;;;;;;;;;;;;;;;;;;;+@@@########O;;;;;;;;;;;;;;;;",
";;;;;;;;;;;;;;;;;;;;;;;;@@@#########$;;;;;;;;;;;;;;;;",
";;;;;;;;;;;;;;;;;;;;;;;X@@@#*#######%X;;;;;;;;;;;;;;;",
";;;;;;;;;;;;;;;;;;;;;;;O@@@#*########o;;;;;;;;;;;;;;;",
";;;;;;;;;;;;;;;;;;;;;;;$@@#**########O;;;;;;;;;;;;;;;",
";;;;;;;;;;;;;;;;;;;;;;;O@@#**########o;;;;;;;;;;;;;;;",
";;;;;;;;;;;;;;;;;;;;;;;;$##*########@ ;;;;;;;;;;;;;;;",
";;;;;;;;;;;;;;;;;;;;;;;;.$#########@X;;;;;;;;;;;;;;;;",
";;;;;;;;;;;;;;;;;;;;;;;;;O#########+;;;;;;;;;;;;;;;;;",
";;;;;;;;;;;;;;;;;;;;;;;;;o########@o ;;;;;......;;;;;",
";;;;;;;;;;;;;oOOO+@+++++@$#########%$$&&&&&&&&&&.;;;;",
";;;;;;;;;;;;;o+@@@@@@@@@##*###########&&&*======.;;;;",
";;;;;;;;;;;;;O@@@@@@@@@##**##*########&&&**=====.;;;;",
";;;;;;;;;;;;;O@@@@@@@@@#***#####*####&&&&*======.;;;;",
";;;;;;;;;;;;;O@#@@@@@@@****#####*####&&&*=======.;;;;",
";;;;;;;;..X;;+@@@@@@@@#***#####**####&&&&&$$====.;;;;",
";;;;;.XoO@&$o@@@@@@@@#****####***###&&$OX;;;o&==;;;;;",
";; ooOOOO+@@&@@@@@@@##**********####$X;;;;;;;.$&.;;;;",
";;XOOOOOOO++@@@@@@@@##*******######&o;;;;;;;;;;.;;;;;",
";;oOOOOOOO+++@@@@@@###*******######& ;;;;;;;;;;;;;;;;",
"; OOOOOOO++++@@@@@####******######&$;;;;;;;;;;;;;;;;;",
";XOOOOOOO++++@@@@######**=*#######&X;;;;;;;;;;;;;;;;;",
" oOOOOOOO++++@@@########*=*#######$ ;;;;;;;;;;;;;;;;;",
";oOOOOOOO++++@@@########*=*#######$ ;;;;;;;;;;;;;;;;;",
";.OOOOOO+++++@@@#######****######&&o;;;;;;;;;;;;;;;;;",
"; OOOOOO+++++@@@@######***#######&&@ ;;;;;;;;;;;;;;;;",
";;oOOOO++++++@@@@@@@####**######&&&&.;;;;;;;;;;;;;;;;",
";;.OOOO+++++O+@@@@@#####**#####&&&**@ ;;;;;;;X&$;;;;;",
";;;.oOO+++OX;o@@@@@##*##*######&&&*=&$$o..;.$=--.;;;;",
";;;;;;.oOX;;;o@@@@@#**#**#####&&&*=====&$$$&----.;;;;",
";;;;;;;;;;;;;o@@@@##*****#####&&============----.;;;;",
";;;;;;;;;;;;;o@@@@#****=*###&$$&========--------.;;;;",
";;;;;;;;;;;;;o@@@@#***==*#&$X;;.o$&=====--------;;;;;",
";;;;;;;;;;;;;o@@@@#***=*&$.;;;;;;;X$===--------&;;;;;",
";;;;;;;;;;;;;o@@@##**==*+;;;;;;;;;;;$=---------&;;;;;",
";;;;;;;;;;;;;o@@@##**=*#o;;;;;;;;;;;o----------&;;;;;",
";;;;;;;;;;;;;o@@###****@X;;;;;;;;;;;.=---------&;;;;;",
";;;;;;;;;;;;;O###*****#@ ;;;;;;;;;;;;&---------&;;;;;",
";;;;;;;;;;;;;o##*******+ ;;;;;;;;;;;;&---------&;;;;;",
";;;;;;;;;;;;;o##*******O  ;;;;;;;;;;.=---------&;;;;;",
";;;;;;;;;;;;;o##*****=*+X.;;;;;;;;;;$=---------&;;;;;",
";;;;;;;;;;;;;o##****==*@OX ;;;;;;;;X=----------&;;;;;",
";;;;;;;;;;;;;o##***===##@X ;;;;;;;;&-----------&;;;;;",
";;;;;;;;;;;;;X$&&*===*&&&O ;;;;;;;;&-----------&;;;;;",
";;;;;;;;;;;;;; ..XXXXXoXX.;;;;;;;;;$$$&&&&&&&&-$;;;;;",
";;;;;;;;;;;;;;;;;;;;;;;;;;;;;;;;;;;;;;;;;;;;;;;;;;;;;",
";;;;;;;;;;;;;;;;;;;;;;;;;;;;;;;;;;;;;;;;;;;;;;;;;;;;;",
";;;;;;;;;;;;;;;;;;;;;;;;;;;;;;;;;;;;;;;;;;;;;;;;;;;;;"
};
