/* XPM */
static char *_8e22fe5d24a4858b131bb446bf35015Y03Cn4tAdlxACbrr[] = {
/* columns rows colors chars-per-pixel */
"42 42 141 2 ",
"   c #080000",
".  c #182B17",
"X  c #1C371F",
"o  c #1C3C1B",
"O  c #203F1F",
"+  c #1E3B22",
"@  c #203D24",
"#  c #184614",
"$  c #144813",
"%  c #1C441C",
"&  c #1E4A1D",
"*  c #1B5217",
"=  c #175E13",
"-  c #1B5D16",
";  c #1E541C",
":  c #1D5D1C",
">  c #21441D",
",  c #214D1E",
"<  c #284D1E",
"1  c #205D17",
"2  c #23541D",
"3  c #225C1D",
"4  c #285B1E",
"5  c #1E641B",
"6  c #226E16",
"7  c #24641C",
"8  c #2E671F",
"9  c #266A1E",
"0  c #296D1E",
"q  c #24721E",
"w  c #2B741D",
"e  c #267B1E",
"r  c #2C7B1D",
"t  c #317D1D",
"y  c #387C1F",
"u  c #1F4522",
"i  c #1E4A21",
"p  c #224423",
"a  c #234B23",
"s  c #234329",
"d  c #28472E",
"f  c #264C2A",
"g  c #284B2F",
"h  c #245323",
"j  c #295624",
"k  c #245B22",
"l  c #2B5E24",
"z  c #25562A",
"x  c #2A552C",
"c  c #2A5C2B",
"v  c #2A5332",
"b  c #2C5B31",
"n  c #335E3A",
"m  c #266423",
"M  c #296524",
"N  c #256B22",
"B  c #2C6C23",
"V  c #276228",
"C  c #2D622C",
"Z  c #2E6B2B",
"A  c #306E27",
"S  c #356D28",
"D  c #277320",
"F  c #2D7424",
"G  c #2E7B22",
"H  c #2F772C",
"J  c #307427",
"K  c #327C24",
"L  c #33732B",
"P  c #337C29",
"I  c #397C2D",
"U  c #268514",
"Y  c #2D841C",
"T  c #31871F",
"R  c #338A1F",
"E  c #37921F",
"W  c #38911F",
"Q  c #3EA51E",
"!  c #2D8123",
"~  c #2F8924",
"^  c #2C8328",
"/  c #358324",
"(  c #398123",
")  c #368D23",
"_  c #3B8C24",
"`  c #36842B",
"'  c #3C842D",
"]  c #368C2B",
"[  c #3C8F2E",
"{  c #349120",
"}  c #3B9424",
"|  c #3C9C23",
" . c #33962B",
".. c #3E952A",
"X. c #3E9A2D",
"o. c #3B8934",
"O. c #3E9B39",
"+. c #37A023",
"@. c #3BA226",
"#. c #3DA026",
"$. c #3EA72E",
"%. c #3EAD28",
"&. c #418A2C",
"*. c #429C27",
"=. c #43952F",
"-. c #44972C",
";. c #47982C",
":. c #499E2D",
">. c #4B8E35",
",. c #428B39",
"<. c #44A426",
"1. c #42A825",
"2. c #46A927",
"3. c #49AB25",
"4. c #46A02E",
"5. c #4BA62E",
"6. c #45A82A",
"7. c #49AD2A",
"8. c #4CAC2D",
"9. c #51AF25",
"0. c #46B329",
"q. c #4BB529",
"w. c #4ABD2B",
"e. c #48BA2D",
"r. c #4EBA2F",
"t. c #50BA2A",
"y. c #4DA734",
"u. c #4EA830",
"i. c #4BA439",
"p. c #53AF39",
"a. c #54AF3B",
"s. c #57B136",
"d. c #53BA33",
"f. c #55B73E",
"g. c #51C62C",
"h. c #58CA2C",
"j. c #51C437",
"k. c #61B941",
"l. c gray53",
"z. c #CBCBCB",
"x. c white",
/* pixels */
"p & & & h + + + @ g + , p p 2                         k + X 3 G P k # 6 m H 0 e.z @.",
"% a a h 5 a 3 h z | $ p p C K                         O.i c h & h 0 , ) B h s.t.; | ",
"; ..3.3 %.c B k | a.` p                                     k 2 * w k w Z 0 5.2.{ _ ",
"X.o w V K - l ) p.            z.z.z.z.z.z.z.z.z.z.z.z.            w.w G h _ =.} ) K ",
"t K K ' 3 7 h F &             z.z.z.z.z.z.z.z.z.z.z.z.            h.= 7 : ` S r w / ",
"7 8.7 3 ; k % ,         z.z.x.x.x.x.x.x.x.x.x.x.x.x.x.x.x.z.          e 3 ~ / | w B ",
"r t G / D k % k         z.z.x.x.x.x.x.x.x.x.x.x.x.x.x.x.x.z.          g.k ` 0 0 / B ",
"j a R a B 7       z.z.x.x.x.x.x.x.x.x.x.x.x.x.x.x.x.x.x.x.x.x.x.z.      ` F 2 D 7 w ",
"B 4 < / M       z.x.x.x.x.x.x.x.x.x.x.x.x.x.x.x.x.x.x.x.x.x.x.x.x.z.z.      & ] V ) ",
"q.0 ] P l       z.x.x.x.x.x.x.x.x.x.x.x.x.x.x.x.x.x.x.x.x.x.x.x.x.z.z.      h u.o., ",
"2 *.a       z.z.x.x.x.x.x.x.x.x.x.x.x.x.x.x.x.x.x.x.x.x.x.x.x.x.x.x.x.z.      4.} h ",
") 3 /       z.z.x.x.x.x.x.x.x.x.x.x.x.x.x.x.x.x.x.x.x.x.x.x.x.x.x.x.x.z.      } B 2 ",
"( 6.2       x.x.x.x.x.x.x.x.x.x.x.x.x.x.x.x.x.x.x.x.x.x.x.x.x.x.x.x.x.x.      / & & ",
"3 1.      z.x.x.x.x.x.x.x.x.x.x.x.x.x.x.x.x.x.x.x.x.x.x.x.x.x.x.x.x.x.x.z.z.      p ",
"! }       z.x.x.x.x.x.x.x.x.x.x.x.x.x.x.x.x.x.x.x.x.x.x.x.x.x.x.x.x.x.x.z.z.      F ",
"9.}       x.x.x.x.x.x.x.x.x.z.z.z.z.z.z.z.x.x.x.x.x.x.z.z.x.x.x.x.x.x.x.x.x.      h ",
") 7       x.x.x.x.x.x.x.x.x.z.z.z.z.z.z.z.x.x.x.x.x.x.z.z.x.x.x.x.x.x.x.x.x.      * ",
"      z.z.x.x.x.x.x.x.x.z.z.l.            l.l.x.x.x.x.z.z.x.x.x.x.x.x.x.x.x.z.      ",
"      z.z.z.x.x.x.x.x.z.l.l.                  x.x.x.z.x.x.x.x.x.x.x.x.x.x.x.z.      ",
"      z.z.z.x.x.x.x.x.z.l.l.                  x.x.x.z.x.x.x.x.x.x.x.x.x.x.x.z.      ",
"0 w       z.z.z.z.z.z.z.                      z.z.z.x.x.x.x.x.x.x.x.x.x.x.x.z.      ",
"[ 7       z.z.z.z.z.z.z.                      z.z.z.x.x.x.x.x.x.x.x.x.x.x.x.z.      ",
"y.M `       z.z.z.z.z.z.                      x.x.x.x.x.x.x.x.x.x.x.x.x.x.x.z.      ",
"r 2 ;.      z.z.z.z.z.z.                      x.x.x.x.x.x.x.x.x.x.x.x.x.x.x.z.      ",
"_ t I       z.z.x.x.x.z.                      x.x.x.x.x.x.x.x.x.x.x.x.x.z.z.l.      ",
"J G /       z.z.x.x.x.z.                      x.x.x.x.x.x.x.x.x.x.x.x.x.z.z.      . ",
"L } 2       z.z.x.x.x.z.                      x.x.x.x.x.x.x.x.x.x.x.x.x.z.z.      p ",
"j <.y       x.x.x.x.x.x.z.z.              z.z.x.x.x.x.x.x.x.x.x.x.x.x.z.l.l.      h ",
"o _ %       x.x.x.x.x.x.z.z.              z.z.x.x.x.x.x.x.x.x.x.x.x.x.z.l.l.      l ",
"% F       z.l.l.x.x.x.x.x.x.x.z.z.z.z.z.z.x.x.x.x.x.x.x.x.x.x.x.x.z.z.z.      j h o ",
"      z.z.x.x.x.z.x.x.x.x.x.x.x.x.x.x.x.x.z.z.z.z.z.z.x.x.x.z.z.z.z.z.l.      B f > ",
"      z.z.x.x.x.z.x.x.x.x.x.x.x.x.x.x.x.x.z.z.z.z.z.z.x.x.x.z.z.z.z.z.l.      * z z ",
"      x.x.x.x.x.z.z.z.z.x.x.x.x.x.x.x.x.z.            z.z.z.l.l.l.          r.: h c ",
"      x.x.x.x.x.z.z.z.z.x.x.x.x.x.x.x.x.z.            z.z.z.l.l.l.          q ; ; C ",
"      x.x.x.x.x.l.l.l.l.z.z.x.z.z.l.                                    D 6.% U : , ",
"      x.x.x.x.x.        l.l.z.l.l.        ) a c % m &             3 2.0 W Y > p U 7 ",
"      x.x.x.x.x.        l.l.z.l.l.        7 p f.f c &             7 E 9 / ! f q a e ",
"      l.l.z.l.l.  k J               A , :.a ^ @ @ f d 3 i.u X.N -.k.) L M h k s +.p ",
"      l.l.z.l.l.  k 2               >.% :.% ` L z b a f B  .2 7.1 w w 4 ` k a h s ` ",
"u +               7 j I           l _ h &.P ,.i z b o.j.= 9 G K R #.Y 2 F ; % p m b ",
"f o O           p c ) l B > 8 -.4 } / J 2 B 3 c f s v h $.0.m F / > T 3 B 2 3 h P x ",
"a x p           v s c > 4 > j :._ ' & & C F p m n c p @ % ! Q 7 7 2 r 2 9 k d.k z & "
};
