/* XPM */
static char * Enemy_Right_xpm[] = {
"42 42 5 1",
" 	c None",
".	c #080000",
"+	c #CBCBCB",
"@	c #FFFFFF",
"#	c #878787",
"               ............               ",
"               ............               ",
"            ..................            ",
"         ......++++++++++++......         ",
"         ......++++++++++++......         ",
"       .....+@@@@@@@@@@@@@@@++....        ",
"       .....+@@@@@@@@@@@@@@@++....        ",
"      ...+@@@@@@@@@@@@@@@@@@@@@++...      ",
"    ...++@@@@@@@@@@@@@@@@@@@@@@@@+...     ",
"    ...++@@@@@@@@@@@@@@@@@@@@@@@@+...     ",
"   ...+@@@@@@@@@@@@@@@@@@@@@@@@@@@++...   ",
"   ...+@@@@@@@@@@@@@@@@@@@@@@@@@@@++...   ",
"   ...@@@@@@@@@@@@@@@@@@@@@@@@@@@@@@...   ",
" ...++@@@@@@@@@@@@@@@@@@@@@@@@@@@@@@+...  ",
" ...++@@@@@@@@@@@@@@@@@@@@@@@@@@@@@@+...  ",
" ...@@@@@@@@@++@@@@@@+++++++@@@@@@@@@...  ",
" ...@@@@@@@@@++@@@@@@+++++++@@@@@@@@@...  ",
"...+@@@@@@@@@++@@@@##......#++@@@@@@@++...",
"...+@@@@@@@@@@@+@@@.........##+@@@@@+++...",
"...+@@@@@@@@@@@+@@@.........##+@@@@@+++...",
"...+@@@@@@@@@@@@+++...........+++++++...  ",
"...+@@@@@@@@@@@@+++...........+++++++...  ",
"...+@@@@@@@@@@@@@@@...........++++++...   ",
"...+@@@@@@@@@@@@@@@...........++++++...   ",
"...#++@@@@@@@@@@@@@...........+@@@++...   ",
" ...++@@@@@@@@@@@@@...........+@@@++...   ",
" ...++@@@@@@@@@@@@@...........+@@@++...   ",
" ...##+@@@@@@@@@@@@++.......++@@@@@@...   ",
" ...##+@@@@@@@@@@@@++.......++@@@@@@...   ",
"   ...+++@@@@@@@@@@@@++++++@@@@@@@##+...  ",
"   ...#+++++@@@++++++@@@@@@@@@@@@+@@@++...",
"   ...#+++++@@@++++++@@@@@@@@@@@@+@@@++...",
"    .....###+++......+@@@@@@@@++++@@@@@...",
"    .....###+++......+@@@@@@@@++++@@@@@...",
"      ..................#++@++####@@@@@...",
"         ......      ....##+##....@@@@@...",
"         ......      ....##+##....@@@@@...",
"                        .......  .##+##...",
"                        .......  .##+##...",
"                         .....   .......  ",
"                                  .....   ",
"                                  .....   "};
