/* XPM */
static char *_69d143a7a1e421efef3b387522d0168pER9ltt7imaRBRoA[] = {
/* columns rows colors chars-per-pixel */
"42 42 137 2 ",
"   c #080000",
".  c #182B17",
"X  c #1A341C",
"o  c #1C3C1B",
"O  c #203F1F",
"+  c #1D3222",
"@  c #1E3B21",
"#  c #213C24",
"$  c #184614",
"%  c #144813",
"&  c #184815",
"*  c #1C431C",
"=  c #1E4B1C",
"-  c #155415",
";  c #1B5217",
":  c #175E13",
">  c #1D5C15",
",  c #1E541B",
"<  c #1E5C1D",
"1  c #21441D",
"2  c #214D1D",
"3  c #284D1E",
"4  c #205D17",
"5  c #23531E",
"6  c #225C1E",
"7  c #285B1E",
"8  c #1E641B",
"9  c #226E16",
"0  c #24631D",
"q  c #2E671F",
"w  c #266B1D",
"e  c #296D1E",
"r  c #25711D",
"t  c #2B741D",
"y  c #267B1E",
"u  c #2C7B1D",
"i  c #317D1E",
"p  c #1E4521",
"a  c #1E4A21",
"s  c #224422",
"d  c #234B22",
"f  c #234328",
"g  c #264B28",
"h  c #284B2F",
"j  c #245323",
"k  c #295624",
"l  c #245B22",
"z  c #2A5D24",
"x  c #26552A",
"c  c #2A552C",
"v  c #2B5C2B",
"b  c #2A5231",
"n  c #2E5E32",
"m  c #256222",
"M  c #296424",
"N  c #256C21",
"B  c #2C6C23",
"V  c #276228",
"C  c #2C612C",
"Z  c #2E6B2B",
"A  c #356D28",
"S  c #277320",
"D  c #2D7423",
"F  c #2D7B22",
"G  c #2F772C",
"H  c #307426",
"J  c #327C23",
"K  c #33742A",
"L  c #337C29",
"P  c #397A2C",
"I  c #306036",
"U  c #387331",
"Y  c #268514",
"T  c #2D841C",
"R  c #31871F",
"E  c #338A1F",
"W  c #39941F",
"Q  c #3EA51E",
"!  c #2E8223",
"~  c #2F8924",
"^  c #358424",
"/  c #398123",
"(  c #368C23",
")  c #3A8D25",
"_  c #35832A",
"`  c #3B842D",
"'  c #368C2B",
"]  c #349120",
"[  c #3B9424",
"{  c #3B9C23",
"}  c #3E962B",
"|  c #3E9A2D",
" . c #3B8832",
".. c #3E9B39",
"X. c #37A023",
"o. c #3DA226",
"O. c #3EA72E",
"+. c #3EAD28",
"@. c #429C27",
"#. c #43952F",
"$. c #44972C",
"%. c #419E29",
"&. c #43A323",
"*. c #44A426",
"=. c #42A825",
"-. c #44AB25",
";. c #46AD26",
":. c #49AB25",
">. c #46A02E",
",. c #4BA62E",
"<. c #46AB2B",
"1. c #49AD2A",
"2. c #4CAC2D",
"3. c #51AF25",
"4. c #45B225",
"5. c #46B329",
"6. c #4BB529",
"7. c #4CB32D",
"8. c #4CB828",
"9. c #4ABD2B",
"0. c #48BA2D",
"q. c #4EBA2F",
"w. c #50BA2A",
"e. c #46A230",
"r. c #4EA830",
"t. c #53AF39",
"y. c #54AF3B",
"u. c #57B136",
"i. c #53BA33",
"p. c #4FC52B",
"a. c #54C12C",
"s. c #51C62C",
"d. c #58CA2C",
"f. c #61B941",
"g. c gray53",
"h. c #CBCBCB",
"j. c white",
/* pixels */
"o.x 0.e G m 9 $ l L F 6 X @ l                         5 s d 2 @ h # @ @ @ j = = = s ",
"{ , w.u.j B ( 2 e j = j v a ..                        J C s s % { x x < d 8 x d d * ",
") ] -.,.e Z t l t ; 5 l                                     s _ y.{ l B z +.6 :.} , ",
"L ) [ #.) j F t 9.            h.h.h.h.h.h.h.h.h.h.h.h.            t.( z > J V t o | ",
"^ t u A _ < 0 : d.            h.h.h.h.h.h.h.h.h.h.h.h.            = D j 0 6 ` J J i ",
"B t { ^ ~ 6 y           h.j.j.j.j.j.j.j.j.j.j.j.j.j.j.j.h.h.        2 * l , 6 0 2.0 ",
"B ^ e e _ l s.          h.j.j.j.j.j.j.j.j.j.j.j.j.j.j.j.h.h.        l * l D ^ F i u ",
"t 0 D 5 D _       h.j.j.j.j.j.j.j.j.j.j.j.j.j.j.j.j.j.j.j.j.j.h.h.      0 B d E d k ",
"( M ' =       h.h.h.h.h.h.h.h.h.h.h.j.j.j.j.j.j.h.h.h.h.h.h.h.h.h.h.      M ^ 3 6 B ",
"2  .r.j       h.h.h.h.h.h.h.h.h.h.h.j.j.j.j.j.j.h.h.h.h.h.h.h.h.h.h.      z L ' e 6.",
"j [ >.      h.j.j.j.j.j.j.j.j.j.j.j.h.j.j.j.h.h.j.j.j.j.j.j.j.j.j.j.h.h.      d @.5 ",
"5 B [       h.j.j.j.j.j.j.j.j.j.j.j.h.j.j.j.h.h.j.j.j.j.j.j.j.j.j.j.h.h.      ^ 6 ( ",
"= = ^       j.j.j.j.j.j.j.j.j.j.j.j.j.j.j.j.j.j.j.j.j.j.j.j.j.j.j.j.j.j.      5 <./ ",
"s       h.h.j.j.j.j.j.j.j.j.j.j.j.j.j.j.j.j.j.j.j.j.j.j.j.j.j.j.j.j.j.j.h.      =.6 ",
"D       h.h.j.j.j.j.j.j.j.j.j.j.j.j.j.j.j.j.j.j.j.j.j.j.j.j.j.j.j.j.j.j.h.      [ ! ",
"j       j.j.j.h.h.h.h.h.h.h.h.j.j.j.j.j.j.j.j.j.j.j.j.h.h.h.h.h.h.h.j.j.j.      [ 3.",
";       j.j.j.h.h.h.h.h.h.h.h.j.j.j.j.j.j.j.j.j.j.j.j.h.h.h.h.h.h.h.j.j.j.      0 ( ",
"      h.j.j.g.            g.g.h.j.j.j.j.j.j.j.j.j.h.h.g.            g.g.j.h.h.      ",
"      h.h.h.                  g.h.h.j.j.j.j.j.j.h.g.g.                  h.h.h.      ",
"      h.h.h.                  g.h.h.j.j.j.j.j.j.h.g.g.                  h.h.h.      ",
"      h.h.h.                    h.h.h.h.h.h.h.h.h.                      h.h.h.      ",
"      h.h.h.                    h.h.h.h.h.h.h.h.h.                      h.h.h.      ",
"      h.h.h.                    h.h.h.h.h.h.h.h.h.                      h.h.h.      ",
"      h.h.h.                    h.h.h.h.h.h.h.h.h.                      h.h.h.      ",
"      g.h.h.                    h.h.h.j.j.j.h.h.h.                      h.g.g.      ",
".       h.h.                    h.h.j.j.j.j.j.j.h.                      h.      F H ",
"s       h.h.                    h.h.j.j.j.j.j.j.h.                      h.      [ K ",
"j       g.g.h.                h.j.j.j.j.j.j.j.j.j.h.h.              h.h.g.      *.k ",
"z       g.g.h.                h.j.j.j.j.j.j.j.j.j.h.h.              h.h.g.      ) o ",
"o x k       h.h.h.h.h.h.h.j.j.j.j.j.j.j.j.j.j.j.j.j.j.j.h.h.h.h.h.h.h.h.      U D * ",
"1 g B       g.h.h.h.j.j.j.j.j.j.h.h.g.h.h.h.g.g.h.j.j.j.j.j.j.h.h.h.g.g.      X 0 - ",
"x x ;       g.h.h.h.j.j.j.j.j.j.h.h.g.h.h.h.g.g.h.j.j.j.j.j.j.h.h.h.g.g.      ; , ! ",
"c j < q.      g.g.h.h.h.h.j.j.h.j.j.h.j.j.j.h.h.j.h.h.j.h.h.h.h.h.g.      D B 0 p.r ",
"C , , r       g.g.h.h.h.h.j.j.h.j.j.h.j.j.j.h.h.j.h.h.j.h.h.h.h.h.g.      0 0 0 a.8.",
"2 < Y * <.S                   j.j.j.h.j.j.j.h.h.j.j.j.                  6 6 6 4.W ;.",
"0 Y s 1 T W e                 j.j.j.h.j.j.j.h.h.j.j.j.              ! 7.K m m ;.{ &.",
"y d r d ! ^ w                 j.j.j.h.j.j.j.h.h.j.j.j.              %.9 m 5 > J u o.",
"s X.f l j M K ( f.$.N |       g.h.h.g.h.h.h.g.g.h.g.g.      _ K l F e.x = 6 ' _ u s ",
"_ f x d l _ 6 t t 4 1.5       g.h.h.g.h.h.h.g.g.h.g.g.      ` 5 l 5 } * < s _ M N @ ",
"n m s = , D 5 T o.E J F w                               d 5 P k 0 L g x s 2 d B @ p ",
"c L x 6 5 B 6 R 1 ^ D m 5.O.j                         q 1 B z ( v s I # _ j z O o d ",
"= x l i.l w 5 u 5 0 0 Q ! * #                         k 1 7 1 v f b + # = a & s c d "
};
