/* XPM */
static char *dc5339c823894f70e0c306bf3aa65de4KwOlRnuHBALwGXvT[] = {
/* columns rows colors chars-per-pixel */
"42 42 119 2 ",
"   c #080000",
".  c #1C371F",
"X  c #1C3C1B",
"o  c #203F1F",
"O  c #1D3222",
"+  c #1E3B21",
"@  c #213B25",
"#  c #184614",
"$  c #144813",
"%  c #184815",
"&  c #1D431D",
"*  c #1E4B1C",
"=  c #155415",
"-  c #1B5217",
";  c #175E13",
":  c #1D5C15",
">  c #1E541B",
",  c #1E5B1D",
"<  c #21461D",
"1  c #214C1D",
"2  c #284D1E",
"3  c #22541E",
"4  c #225C1D",
"5  c #1E641B",
"6  c #226E16",
"7  c #24641C",
"8  c #256B1E",
"9  c #296D1E",
"0  c #24721C",
"q  c #2A741D",
"w  c #267B1E",
"e  c #2C7B1D",
"r  c #317D1E",
"t  c #1E4521",
"y  c #1E4A21",
"u  c #224422",
"i  c #234B23",
"p  c #234328",
"a  c #244A28",
"s  c #284B2F",
"d  c #235322",
"f  c #2A5627",
"g  c #245B22",
"h  c #295D24",
"j  c #26552A",
"k  c #2A552C",
"l  c #2B5C2B",
"z  c #2A5231",
"x  c #2E5E32",
"c  c #266322",
"v  c #296424",
"b  c #256C20",
"n  c #2C6D23",
"m  c #276228",
"M  c #2C612C",
"N  c #2C6A2C",
"B  c #356D28",
"V  c #2D7423",
"C  c #2E7C24",
"Z  c #2F772C",
"A  c #327C24",
"S  c #327D29",
"D  c #38782D",
"F  c #306036",
"G  c #268514",
"H  c #31871F",
"J  c #318A1F",
"K  c #39971F",
"L  c #2F8322",
"P  c #2F8924",
"I  c #358424",
"U  c #398123",
"Y  c #368C23",
"T  c #3A8D25",
"R  c #35832A",
"E  c #3A852F",
"W  c #368C2B",
"Q  c #349120",
"!  c #3A9423",
"~  c #3B9C23",
"^  c #3E962B",
"/  c #3F992C",
"(  c #3B8832",
")  c #3E9B39",
"_  c #37A023",
"`  c #3BA226",
"'  c #3EA326",
"]  c #3EAD28",
"[  c #429C27",
"{  c #43952F",
"}  c #43A323",
"|  c #44A426",
" . c #42A825",
".. c #44AB25",
"X. c #46AD26",
"o. c #49AB25",
"O. c #46A02E",
"+. c #4BA62E",
"@. c #45A82A",
"#. c #4CAC2D",
"$. c #51AF25",
"%. c #45B225",
"&. c #4BB529",
"*. c #4CB828",
"=. c #4ABD2B",
"-. c #48BA2D",
";. c #50BA2A",
":. c #48A733",
">. c #53AF39",
",. c #54AF3B",
"<. c #57B136",
"1. c #53BA33",
"2. c #4FC52B",
"3. c #54C12C",
"4. c #51C62C",
"5. c #58CA2C",
"6. c gray53",
"7. c #CBCBCB",
"8. c white",
/* pixels */
"` j -.9 Z c 6 # h S C 3 . + g                         3 u u 1 + s @ + + + d * * * i ",
"~ > ;.<.d n Y 1 9 d * d l y )                         A M u u $ ~ j d 3 i 5 d i i & ",
"T Q ..+.9 N e g q - 3 g                                     u E ,.~ g n l ] 4 o.^ > ",
"A T ! { T d C q =.g , N                                     a S W >.Y h : A m q X / ",
"I q e B R , 7 ; 5.            7.7.7.7.7.7.7.7.7.7.7.7.            * V d 7 4 E A A r ",
"n q ~ I P 4 w           7.8.8.8.8.8.8.8.8.8.8.8.8.8.8.8.7.7.        1 & h > 4 7 #.7 ",
"n I 9 9 R h 4.          7.8.8.8.8.8.8.8.8.8.8.8.8.8.8.8.7.7.        g & g V I C r e ",
"q 7 V 3 V R       7.8.8.6.8.8.8.8.8.8.8.8.8.8.8.8.8.8.8.8.8.8.7.7.      7 n i J i f ",
"Y v W * n H       7.8.8.6.8.8.8.8.8.8.8.8.8.8.8.8.8.8.8.8.8.8.7.7.      C v I 2 4 n ",
"1 ( +.d       7.7.8.8.8.8.6.6.8.8.8.8.8.8.8.8.8.8.8.8.8.8.8.8.8.8.7.      h S W 9 &.",
"d ! O.i       7.7.8.8.8.8.6.6.8.8.8.8.8.8.8.8.8.8.8.8.8.8.8.8.8.8.7.      1 C i [ 3 ",
"3 n !       7.8.8.8.8.8.8.8.8.7.8.8.8.8.8.8.8.8.8.8.8.8.8.8.8.8.8.8.7.7.      I 4 Y ",
"* * I       7.8.8.8.8.8.8.8.8.7.8.8.8.8.8.8.8.8.8.8.8.8.8.8.8.8.8.8.7.7.      3 @.U ",
"i g A       8.8.8.8.8.8.8.8.8.7.8.8.8.8.8.8.8.8.8.8.8.8.8.8.8.8.8.8.8.8.      v  .4 ",
"V g C       8.8.8.8.8.8.8.8.8.7.8.8.8.8.8.8.8.8.8.8.8.8.8.8.8.8.8.8.8.8.      3 ! L ",
"d       7.7.8.8.8.8.8.8.8.8.8.6.7.7.7.7.7.8.8.8.8.8.8.8.8.8.8.8.8.8.8.8.7.      ! $.",
"-       8.8.8.8.8.8.8.8.8.7.7.8.8.8.8.8.8.7.7.7.8.8.8.8.8.8.8.8.8.8.8.8.8.      7 Y ",
"D       8.8.8.8.8.8.8.8.8.7.7.8.8.8.8.8.8.7.7.7.8.8.8.8.8.8.8.8.8.8.8.8.8.      :.Y ",
"      7.8.8.8.8.8.8.8.8.8.8.8.8.8.8.8.8.8.8.8.8.7.8.8.8.8.8.8.8.8.8.8.8.8.7.7.      ",
"      7.8.8.8.8.8.8.8.8.8.8.8.8.8.8.8.8.8.8.8.8.7.8.8.8.8.8.8.8.8.8.8.8.8.7.7.      ",
"      7.8.8.8.8.8.8.8.8.8.7.7.8.8.8.8.8.8.8.8.8.8.8.8.8.8.8.8.8.8.8.8.8.8.7.7.      ",
"      7.8.8.8.8.8.8.8.8.8.7.7.8.8.8.8.8.8.8.8.8.8.8.8.8.8.8.8.8.8.8.8.8.8.7.7.      ",
"      7.8.8.8.8.8.8.8.8.8.8.8.8.8.8.8.8.8.8.8.8.8.8.8.8.8.8.8.8.8.8.8.8.8.7.7.      ",
"      7.8.8.8.8.8.8.8.8.8.8.8.8.8.8.8.8.8.8.8.8.8.8.8.8.8.8.8.8.8.8.8.8.8.7.7.      ",
"      7.8.8.8.8.8.8.8.8.8.8.8.8.8.8.8.8.8.8.8.8.8.8.8.8.8.8.8.8.8.8.8.8.8.7.7.      ",
"      7.8.8.8.8.8.8.8.8.8.8.8.8.8.8.8.8.8.8.8.8.8.8.8.8.8.8.8.8.8.8.8.8.8.7.7.      ",
"      6.7.7.8.8.8.8.8.8.8.8.8.8.8.8.8.8.8.8.8.8.8.8.8.8.8.8.8.8.8.8.8.8.7.6.6.      ",
"d       7.7.8.8.8.8.8.8.8.8.8.8.8.8.8.8.8.8.8.8.8.8.8.8.8.8.8.8.8.8.8.8.7.      | d ",
"h       7.7.8.8.8.8.8.8.8.8.8.8.8.8.8.8.8.8.8.8.8.8.8.8.8.8.8.8.8.8.8.8.7.      T X ",
"X       6.6.7.8.8.8.8.8.8.8.8.8.8.8.8.8.8.8.8.8.8.8.8.8.8.8.8.8.8.8.7.7.6.      V & ",
"<       6.6.7.8.8.8.8.8.8.8.8.8.8.8.8.8.8.8.8.8.8.8.8.8.8.8.8.8.8.8.7.7.6.      7 = ",
"j j -       7.8.8.8.8.8.8.8.8.8.8.8.8.8.8.8.8.8.8.8.8.8.8.8.8.8.8.8.7.7.      - > L ",
"k d ,       7.8.8.8.8.8.8.8.8.8.8.8.8.8.8.8.8.8.8.8.8.8.8.8.8.8.8.8.7.7.      7 2.0 ",
"M > >       6.7.7.7.8.8.8.8.8.8.8.8.8.8.8.8.8.8.8.8.8.8.8.8.8.7.7.7.6.6.      7 3.*.",
"1 , G       6.7.7.7.8.8.8.8.8.8.8.8.8.8.8.8.8.8.8.8.8.8.8.8.8.7.7.7.6.6.      %.K X.",
"7 G u <       6.6.6.7.7.7.7.7.8.8.8.8.8.8.8.8.8.8.8.8.7.7.7.7.6.6.6.      c c X.~ } ",
"w i 0 a       6.6.6.7.7.7.7.7.8.8.8.8.8.8.8.8.8.8.8.8.7.7.7.7.6.6.6.      3 : A e ' ",
"u _ p g d v         6.6.6.6.6.7.7.7.7.7.7.7.7.7.7.7.7.6.6.6.6.          * 4 W R e i ",
"R a d i g R 4                                                       ^ & , u R v b + ",
"x c u * > V 3                                                       a j u 1 i n + t ",
"k S d 4 3 n 3 H < I                                           Y l u F @ R d h o X a ",
"* j g 1.g 8 3 e 3 7                                           l p z O @ * y % u k i "
};
