/* XPM */
static char *_39d550b1021478194f8ebd115ca8dadn7ddNOqMujy8cirJ[] = {
/* columns rows colors chars-per-pixel */
"42 42 140 2 ",
"   c #080000",
".  c #182B17",
"X  c #1C371F",
"o  c #1C3C1B",
"O  c #203F1F",
"+  c #1E3B22",
"@  c #203D24",
"#  c #184614",
"$  c #144813",
"%  c #1C441C",
"&  c #1E4A1D",
"*  c #1B5217",
"=  c #175E13",
"-  c #1B5D16",
";  c #1E541C",
":  c #1D5D1C",
">  c #21441D",
",  c #214D1E",
"<  c #284D1E",
"1  c #205D17",
"2  c #23541D",
"3  c #225C1D",
"4  c #285B1E",
"5  c #1E641B",
"6  c #226E16",
"7  c #24641C",
"8  c #2E671F",
"9  c #266A1E",
"0  c #296D1E",
"q  c #24721E",
"w  c #2B741D",
"e  c #267B1E",
"r  c #2C7B1D",
"t  c #317D1D",
"y  c #387C1F",
"u  c #1F4522",
"i  c #1E4A21",
"p  c #224423",
"a  c #234B23",
"s  c #234329",
"d  c #28472E",
"f  c #264C2A",
"g  c #284B2F",
"h  c #245323",
"j  c #295624",
"k  c #245B22",
"l  c #2B5E24",
"z  c #25562A",
"x  c #2A552C",
"c  c #2A5C2B",
"v  c #2A5332",
"b  c #2C5B31",
"n  c #335E3A",
"m  c #266423",
"M  c #296524",
"N  c #256B22",
"B  c #2C6C23",
"V  c #276228",
"C  c #2D622C",
"Z  c #2E6B2B",
"A  c #306E27",
"S  c #356D28",
"D  c #277320",
"F  c #2D7424",
"G  c #2E7B22",
"H  c #2F772C",
"J  c #307427",
"K  c #327C24",
"L  c #33732B",
"P  c #337C29",
"I  c #397C2D",
"U  c #268514",
"Y  c #2D841C",
"T  c #31871F",
"R  c #338A1F",
"E  c #37921F",
"W  c #38911F",
"Q  c #3EA51E",
"!  c #2D8123",
"~  c #2F8924",
"^  c #2C8328",
"/  c #358324",
"(  c #398123",
")  c #368D23",
"_  c #3B8C24",
"`  c #36842B",
"'  c #3C842D",
"]  c #368C2B",
"[  c #3C8F2E",
"{  c #349120",
"}  c #3B9424",
"|  c #3C9C23",
" . c #33962B",
".. c #3E952A",
"X. c #3E9A2D",
"o. c #3B8934",
"O. c #3E9B39",
"+. c #37A023",
"@. c #3BA226",
"#. c #3DA026",
"$. c #3EA72E",
"%. c #3EAD28",
"&. c #418A2C",
"*. c #429C27",
"=. c #43952F",
"-. c #44972C",
";. c #47982C",
":. c #499E2D",
">. c #4B8E35",
",. c #428B39",
"<. c #44A426",
"1. c #42A825",
"2. c #44AB25",
"3. c #49AB25",
"4. c #46A02E",
"5. c #4BA62E",
"6. c #46AB2B",
"7. c #49AD2A",
"8. c #4CAC2D",
"9. c #51AF25",
"0. c #46B329",
"q. c #4BB529",
"w. c #4ABD2B",
"e. c #48BA2D",
"r. c #4EBA2F",
"t. c #50BA2A",
"y. c #4DA734",
"u. c #4BA439",
"i. c #53AF39",
"p. c #54AF3B",
"a. c #57B136",
"s. c #53BA33",
"d. c #55B73E",
"f. c #51C62C",
"g. c #58CA2C",
"h. c #51C437",
"j. c #61B941",
"k. c gray53",
"l. c #CBCBCB",
"z. c white",
/* pixels */
"@.z e.0 H m 6 # k P G 3 X + k                         2 p p , + g @ + + + h & & & p ",
"| ; t.a.h B ) , 0 h & h c i O.                        K C p p $ | z j : a 5 j a a % ",
"_ { 2.5.0 Z w k w * 2 k                                     p ` p.| k B c %.3 3...; ",
"K _ } =._ h G w w.            l.l.l.l.l.l.l.l.l.l.l.l.            i.) l - K V w o X.",
"/ w r S ` : 7 = g.            l.l.l.l.l.l.l.l.l.l.l.l.            & F h 7 3 ' K K t ",
"B w | / ~ 3 e           l.z.z.z.z.z.z.z.z.z.z.z.z.z.z.z.l.l.        , % k ; 3 7 8.7 ",
"B / 0 0 ` k f.          l.z.z.z.z.z.z.z.z.z.z.z.z.z.z.z.l.l.        k % k F / G t r ",
"w 7 F 2 F `       l.z.z.z.z.z.z.z.z.z.z.z.z.z.z.z.z.z.z.z.z.z.l.l.      7 B a R a j ",
") M ] &       l.l.z.z.z.z.z.z.z.z.z.z.z.z.z.z.z.z.z.z.z.z.z.z.z.z.l.      M / < 3 B ",
", o.5.h       l.l.z.z.z.z.z.z.z.z.z.z.z.z.z.z.z.z.z.z.z.z.z.z.z.z.l.      l P ] 0 q.",
"h } 4.      l.z.z.z.z.z.z.z.z.z.z.z.z.z.z.z.z.z.z.z.z.z.z.z.z.z.z.z.l.l.      a *.2 ",
"2 B }       l.z.z.z.z.z.z.z.z.z.z.z.z.z.z.z.z.z.z.z.z.z.z.z.z.z.z.z.l.l.      / 3 ) ",
"& & /       z.z.z.z.z.z.z.z.z.z.z.z.z.z.z.z.z.z.z.z.z.z.z.z.z.z.z.z.z.z.      2 6.( ",
"p       l.l.z.z.z.z.z.z.z.z.z.z.z.z.z.z.z.z.z.z.z.z.z.z.z.z.z.z.z.z.z.z.l.      1.3 ",
"F       l.l.z.z.z.z.z.z.z.z.z.z.z.z.z.z.z.z.z.z.z.z.z.z.z.z.z.z.z.z.z.z.l.      } ! ",
"h       z.z.z.z.z.z.z.z.z.l.l.z.z.z.z.z.z.l.l.l.l.l.l.l.z.z.z.z.z.z.z.z.z.      } 9.",
"*       z.z.z.z.z.z.z.z.z.l.l.z.z.z.z.z.z.l.l.l.l.l.l.l.z.z.z.z.z.z.z.z.z.      7 ) ",
"      l.z.z.z.z.z.z.z.z.z.l.l.z.z.z.z.k.k.            k.l.l.z.z.z.z.z.z.z.l.l.      ",
"      l.z.z.z.z.z.z.z.z.z.z.z.l.z.z.z.                  k.k.l.z.z.z.z.z.l.l.l.      ",
"      l.z.z.z.z.z.z.z.z.z.z.z.l.z.z.z.                  k.k.l.z.z.z.z.z.l.l.l.      ",
"      l.z.z.z.z.z.z.z.z.z.z.z.z.l.l.l.                      l.l.l.l.l.l.l.      w 0 ",
"      l.z.z.z.z.z.z.z.z.z.z.z.z.l.l.l.                      l.l.l.l.l.l.l.      7 [ ",
"      l.z.z.z.z.z.z.z.z.z.z.z.z.z.z.z.                      l.l.l.l.l.l.      ` M y.",
"      l.z.z.z.z.z.z.z.z.z.z.z.z.z.z.z.                      l.l.l.l.l.l.      ;.2 r ",
"      k.l.l.z.z.z.z.z.z.z.z.z.z.z.z.z.                      l.z.z.z.l.l.      I t _ ",
".       l.l.z.z.z.z.z.z.z.z.z.z.z.z.z.                      l.z.z.z.l.l.      / G J ",
"p       l.l.z.z.z.z.z.z.z.z.z.z.z.z.z.                      l.z.z.z.l.l.      2 } L ",
"h       k.k.l.z.z.z.z.z.z.z.z.z.z.z.z.l.l.              l.l.z.z.z.z.z.z.      y <.j ",
"l       k.k.l.z.z.z.z.z.z.z.z.z.z.z.z.l.l.              l.l.z.z.z.z.z.z.      % _ o ",
"o j j       l.l.l.z.z.z.z.z.z.z.z.z.z.z.z.l.l.l.l.l.l.z.z.z.z.z.z.z.k.k.l.      F % ",
"> f B       k.l.l.l.l.l.z.z.z.l.l.l.l.l.l.z.z.z.z.z.z.z.z.z.z.z.z.l.z.z.z.l.l.      ",
"z z *       k.l.l.l.l.l.z.z.z.l.l.l.l.l.l.z.z.z.z.z.z.z.z.z.z.z.z.l.z.z.z.l.l.      ",
"x h : r.          k.k.k.l.l.l.            l.z.z.z.z.z.z.z.z.l.l.l.l.z.z.z.z.z.      ",
"C ; ; q           k.k.k.l.l.l.            l.z.z.z.z.z.z.z.z.l.l.l.l.z.z.z.z.z.      ",
", : U % 6.D                                     k.l.l.z.l.l.k.k.k.k.z.z.z.z.z.      ",
"7 U p > Y W 0 2.3             & m % c a )         k.k.l.k.k.        z.z.z.z.z.      ",
"e a q a ! / 9 E 7             & c f d.p 7         k.k.l.k.k.        z.z.z.z.z.      ",
"p +.s k h M L ) j.-.N X.u u.3 d f @ @ ^ a :., A               J k   k.k.l.k.k.      ",
"` s j a k ` 3 w w 1 7.2  .B a a b z L ` & :.& >.              2 k   k.k.l.k.k.      ",
"b m p & ; F 2 Y #.R K G 9 - h.o.b z i ,.P &.h _ l           I j 7               + u ",
"x P j 3 2 B 3 T > / F m 0.$.h v s f c 3 B 2 J / } 4 -.8 > B l ) c p           O o a ",
"& z k s.k 9 2 r 2 7 7 Q ! % @ p x n m p F C & & ' _ :.j > 4 > c s v           p x a "
};
