/* XPM */
static char * Exit closed_xpm[] = {
"42 42 58 1",
" 	c #445C6C",
".	c #DCDCDC",
"+	c #4C6C80",
"@	c #BCBCBC",
"#	c #587890",
"$	c #6488A0",
"%	c #B0B0B0",
"&	c #84B0CC",
"*	c #9CC8E4",
"=	c #90BCD8",
"-	c #C0E4FC",
";	c #A8D4F0",
">	c #808080",
",	c #D4D4D4",
"'	c #C8C8C8",
")	c #A4A4A4",
"!	c #989898",
"~	c #8C8C8C",
"{	c #707070",
"]	c #6C94B0",
"^	c #686868",
"/	c #000400",
"(	c #080808",
"_	c #101010",
":	c #181818",
"<	c #202020",
"[	c #282828",
"}	c #303030",
"|	c #3C3C3C",
"1	c #484848",
"2	c #5C5C5C",
"3	c #505050",
"4	c #684018",
"5	c #805024",
"6	c #C4A480",
"7	c #E0C4A4",
"8	c #B89470",
"9	c #8C6038",
"0	c #482404",
"a	c #A8A8A8",
"b	c #A8845C",
"c	c #744820",
"d	c #9C7448",
"e	c #401C00",
"f	c #603810",
"g	c #545454",
"h	c #381800",
"i	c #542C0C",
"j	c #78A0C0",
"k	c #FCFCFC",
"l	c #949064",
"m	c #BCB888",
"n	c #847C54",
"o	c #746C48",
"p	c #645C40",
"q	c #301400",
"r	c #281000",
"s	c #340054",
"    .         ++++@###$%#$&*&=---=&;->==;-",
"    ..,,  ''@++@+@%#%$$)))!*;~@~*-~->{-]]]",
"    .  ,    @++++%%##$$)&&!*---~&---^%{)-]",
"  +///(((__:::<<[[}}|||||111||222223.|!1#]",
"...//(((__:::<<[[[}}[}||1111[}|1123')1|21^",
" .,/(45678945555555555555555559876500a>1^]",
"   ((5b95869c5dddddddddddddd546859c!e{}]]]",
" , ((d76d879445555555555ccc4ff785%,001g]2]",
"  +(_b7986d5999999999999999999d8c@>c0^^]]]",
" ++__c7c559995555555559999999c~hf}945{~]]]",
"+''_:d899944fiiiiffffff44444i'hif}8d5~~22]",
"+@+::d7599495fcfiffiff4c5ccc~hf~{f6dc~~]2j",
"+@+::c7b9949cfciif4iff4c5c4c^fa{4b6cc>~]3j",
"@@@<<b7999f5cf4fif4i444c4c4^{100598bc{>331",
"+++<<d7c994cci4fi44fc44c44>@i0i4dc6dc{~]jj",
"+++[[88b9949cic44fc4c54@2!>0i4f9db68c>~jjj",
"+@+[[87999494f5f4fc4c5.~0!0ifc49d9b8c{!j1j",
"++#[}d7d9949c44f4fc5c)0i^{e44549dd6dc!)jjj",
"@@@}}68b9949c4c444{~1}0c>104c549db66c))|||",
"#%%}|8759945ccc4~,%~~g3ah045c549d568c))||]",
"###||97d99454cc5',g1|}%^_i4c4c49dd69c))j&&",
"#%#||8759k'^445f%>0f4^3@g[45fc49ddb8c)%;|;",
"###||87g^^g1|i40%^fc4ci2^}iifcf9d568c));;;",
"###||9>^0i0i1!ei^'ifcc4f[|lm0cf5db68c)@---",
"#))||3%ef40f0^)~.~iif4f3|lno0cf5ddb8c@@}}-",
"$!=|}g>i440fe)|i2|g^2po|}1pp|ef5dd6dc@@-}=",
"$!-||g!i440i%k<fol^po11311}}10f5db68c@@-[&",
"!!~||87>[400{<fonpg^^^2211|[[1i59568c@@[[<",
"]--||97g!a{|.e3|mog{{^[}1||}<1059d69c@'--]",
"&--|[b7444>k0eii{{>{^~_:^1}}3<e59dbbc@']=]",
"=~-|}b7%)%k!e0fi>~>>{^<:^|}}[[05956bc@,]<]",
"---1|c%>fg0f0fcf0!>>^2><[[}}^<059b6bc,,]]]",
"~~~||~.i010ii44fi{>{{^{[|1}[[<0c9dbbc@@:::",
"->>||g0~3fqf044fci~,^^231|^}eeec9d694@'::]",
"---||4}304ef0c4fc4g2^a231|}<eeec9b6b4@']]]",
"->1.)ff45chf0ccc55cci00eqqi400hc956b4@,]_]",
"---){5bb5crqhfffffffiiii000ehqrc9b6b4,,j]]",
"{{{||d8b5999999999999999999999995b6di,.(((",
";;;||9855555555559999999999999599589i..$$$",
";;;||67bccc5555555555555555555cccb669..$$$",
";;;||96ddddddddddddddddddddddddddd99f..$$$",
"{^^|sifiiiiifff4444444444444ffffifi0e3.///"};
