/* XPM */
static char * Exit open_xpm[] = {
"42 42 58 1",
" 	c #E8E8E8",
".	c #DCDCDC",
"+	c #D4D4D4",
"@	c #C8C8C8",
"#	c #BCBCBC",
"$	c #B0B0B0",
"%	c #A4A4A4",
"&	c #989898",
"*	c #8C8C8C",
"=	c #808080",
"-	c #707070",
";	c #445C6C",
">	c #4C6C80",
",	c #587890",
"'	c #6488A0",
")	c #9CC8E4",
"!	c #90BCD8",
"~	c #C0E4FC",
"{	c #A8D4F0",
"]	c #686868",
"^	c #6C94B0",
"/	c #5C5C5C",
"(	c #000400",
"_	c #080808",
":	c #101010",
"<	c #181818",
"[	c #202020",
"}	c #282828",
"|	c #303030",
"1	c #3C3C3C",
"2	c #484848",
"3	c #340054",
"4	c #480074",
"5	c #500084",
"6	c #3C0064",
"7	c #600098",
"8	c #505050",
"9	c #7000AC",
"0	c #7C00C0",
"a	c #2C0044",
"b	c #200034",
"c	c #180024",
"d	c #140020",
"e	c #78A0C0",
"f	c #100018",
"g	c #0C0014",
"h	c #9C00E8",
"i	c #08000C",
"j	c #A800FC",
"k	c #000000",
"l	c #E0A4FC",
"m	c #B418FC",
"n	c #CC6CFC",
"o	c #84B0CC",
"p	c #E8C0FC",
"q	c #504834",
"r	c #8C00D4",
"s	c #545454",
"   ......++@@@######$$$$$%%%&&******===---",
" ++.;;.+++@@#>>###$,$$'$%%&)!**~***=~{*]]-",
" +;.;;.;+@@@#>>#>#$,$''%%%&){*#)**==~~*^/-",
".++..+++@@######$$$$$$%%&&&******==----//]",
".;;.(((__::<<<[[}}||1111122211////]]]/-^^]",
".;;+(34454333633655663664775577757778=-^^/",
"...+(49997444566679744457775799977771=]]]/",
".+++_4997444443366444557970999779557|=]///",
".++@_67756666633646664467579977797771=]///",
"++@@:3664333333333aba3665555790975741=////",
"+@@#:346633aaaaaaabb33645775799554541*///8",
"@@>#<346333aaabbbbba33665777797554541*/^/8",
"@###<643abaaaabbbbbb33364557557553661*/888",
"@>>#<363abbbbbbbbccccd336655557776331=/^e2",
"#>>#[a63aabbccccdfgghccbbb3645557433|*8ee2",
"####[363aaccddddfgiijkkfdca344555433|&8222",
"###$}a3aababdffgiikk+_kkiicb66445463|&2221",
"##$$}a3abba4dfggkkkk _kkkkkk3644544a|&2221",
"###$|aabca  7ad6ikiiliii:mkkb34555531%2111",
"$,,$|bbbccl 4bikiiiiliiim:kica4557731%1ee1",
"$$,$1bbbbccbdgkkinij jfliiikfb47mnm61%1o11",
"$$$$1abbbccdgikkiijp   6iiiigc6mnnn51$1111",
"$,,%1abccc63bcgiii     miiikgc6mnnn61%1{{|",
"$$%%1bbccc7799mmll      jj9-1[cjmnm31%11||",
"%%%&1bbbbc0  mqqii     fiiiikk59746a1#1||}",
"%%^&1abbbc37m4 qiib4 j6miiiidb57746a2#|~|}",
"%&&&133ccdffgm djiii iii9igfb357756c2#|}}}",
"%!~*133bcdffggabfgiiliiif5gda657974c2#|!o[",
"&!~*1aaaacddgg93iiiiniiiibbb6590r07b2@}~![",
"&***1abbabcdgggiiiiimiiiigcb450rh09b2@}[[[",
"****13acbccdfgggiiiihaggfcba450rh073s+[[[<",
"*~~*233bcbccccdfiiiiggfdba3355990743s+[^^<",
"***=133bbbabbbddiiiggfcba366779997438#[<<:",
"**==1aa3aa663abcccbbbba3645579977756/@<<::",
"*=~=13633a6633bcbba3aa33775559077754/@<^::",
"===-16636a3363333336556677990rr99753]+:::_",
"=~~-133663a33666666454645799rhr09753]+:^^_",
"=---16444333364477777997m 990000r94|].:__(",
"-{{-1455466333647799999mn m9790rr74|-._''(",
"-{{-14777543aba3645777nl   r559rh733-._''(",
"-{{]14777546ab33334444      647rr533-._''(",
"--]]17977566abaa3336645jn mm55477333a.(((("};
