/* XPM */
static char *result[] = {
/* columns rows colors chars-per-pixel */
"64 64 256 2 ",
"   c black",
".  c #000400",
"X  c #040400",
"o  c #000C00",
"O  c #04080C",
"+  c #080404",
"@  c #08000C",
"#  c #0C0804",
"$  c gray3",
"%  c #0C0014",
"&  c #080C10",
"*  c #001C00",
"=  c #0C1014",
"-  c #100C08",
";  c #100018",
":  c #141008",
">  c #18140C",
",  c #1C140C",
"<  c #1C180C",
"1  c #101010",
"2  c #10181C",
"3  c #1C1C14",
"4  c #181818",
"5  c #140020",
"6  c #180024",
"7  c #003C04",
"8  c #281000",
"9  c #201C10",
"0  c #301400",
"q  c #381800",
"w  c #200034",
"e  c #242010",
"r  c #242018",
"t  c #303018",
"y  c #38381C",
"u  c #202020",
"i  c #282828",
"p  c #302C20",
"a  c #383424",
"s  c gray19",
"d  c #3C3C3C",
"f  c #2C0044",
"g  c #340054",
"h  c #3C0064",
"j  c #283840",
"k  c #384C5C",
"l  c #401C00",
"z  c #482404",
"x  c #542C0C",
"c  c #603810",
"v  c #480074",
"b  c #444424",
"n  c #44402C",
"m  c #504834",
"M  c #505028",
"N  c #58582C",
"B  c #585438",
"V  c #684018",
"C  c #744820",
"Z  c #646434",
"A  c #74743C",
"S  c #484848",
"D  c #505050",
"F  c gray33",
"G  c gray36",
"H  c #445C6C",
"J  c #645C40",
"K  c #746C48",
"L  c #686868",
"P  c gray44",
"I  c #500084",
"U  c #600098",
"Y  c #7000AC",
"T  c #7C00C0",
"R  c #4C6C80",
"E  c #587890",
"W  c #108410",
"Q  c #50D038",
"!  c #6488A0",
"~  c #6C94B0",
"^  c #78A0C0",
"/  c #805024",
"(  c #8C6038",
")  c #847C54",
"_  c #9C7448",
"`  c #8C00D4",
"'  c #9C00E8",
"]  c #A800FC",
"[  c #B418FC",
"{  c #BC34FC",
"}  c magenta",
"|  c #C450FC",
" . c #CC6CFC",
".. c #FC54FC",
"X. c #888844",
"o. c #949064",
"O. c #A8845C",
"+. c #B89470",
"@. c #A4A074",
"#. c #808080",
"$. c gray55",
"%. c #989898",
"&. c #BCB888",
"*. c #A4A4A4",
"=. c gray66",
"-. c gray69",
";. c #BCBCBC",
":. c #84B0CC",
">. c #90BCD8",
",. c #A0F080",
"<. c #9CC8E4",
"1. c #A8D4F0",
"2. c #C4A480",
"3. c #D888FC",
"4. c #E0A4FC",
"5. c #CCCC94",
"6. c #E0C4A4",
"7. c #F0D4B8",
"8. c #F0F094",
"9. c #ECE8B4",
"0. c #C8C8C8",
"q. c gray83",
"w. c gainsboro",
"e. c #C0E4FC",
"r. c #E8C0FC",
"t. c #F0F0C4",
"y. c #F8F8D0",
"u. c gray91",
"i. c gray99",
"p. c black",
"a. c black",
"s. c black",
"d. c black",
"f. c black",
"g. c black",
"h. c black",
"j. c black",
"k. c black",
"l. c black",
"z. c black",
"x. c black",
"c. c black",
"v. c black",
"b. c black",
"n. c black",
"m. c black",
"M. c black",
"N. c black",
"B. c black",
"V. c black",
"C. c black",
"Z. c black",
"A. c black",
"S. c black",
"D. c black",
"F. c black",
"G. c black",
"H. c black",
"J. c black",
"K. c black",
"L. c black",
"P. c black",
"I. c black",
"U. c black",
"Y. c black",
"T. c black",
"R. c black",
"E. c black",
"W. c black",
"Q. c black",
"!. c black",
"~. c black",
"^. c black",
"/. c black",
"(. c black",
"). c black",
"_. c black",
"`. c black",
"'. c black",
"]. c black",
"[. c black",
"{. c black",
"}. c black",
"|. c black",
" X c black",
".X c black",
"XX c black",
"oX c black",
"OX c black",
"+X c black",
"@X c black",
"#X c black",
"$X c black",
"%X c black",
"&X c black",
"*X c black",
"=X c black",
"-X c black",
";X c black",
":X c black",
">X c black",
",X c black",
"<X c black",
"1X c black",
"2X c black",
"3X c black",
"4X c black",
"5X c black",
"6X c black",
"7X c black",
"8X c black",
"9X c black",
"0X c black",
"qX c black",
"wX c black",
"eX c black",
"rX c black",
"tX c black",
"yX c black",
"uX c black",
"iX c black",
"pX c black",
"aX c black",
"sX c black",
"dX c black",
"fX c black",
"gX c black",
"hX c black",
"jX c black",
"kX c black",
"lX c black",
"zX c black",
"xX c black",
"cX c black",
"vX c black",
"bX c black",
"nX c black",
"mX c black",
"MX c black",
"NX c black",
"BX c black",
"VX c black",
"CX c black",
"ZX c black",
"AX c black",
"SX c black",
"DX c black",
"FX c black",
"GX c black",
"HX c black",
"JX c black",
"KX c black",
"LX c black",
"PX c black",
"IX c black",
"UX c black",
/* pixels */
"u.u.u.u.u.w.w.w.w.w.w.w.w.q.q.q.q.0.0.0.0.;.;.;.;.;.;.;.;.;.-.-.-.-.-.-.-.-.*.*.*.*.%.%.%.%.$.$.$.$.$.$.$.$.$.#.#.#.#.P P P P P ",
"u.H H H H H H w.H H H H H H q.H H H H H H ;.R R R R R R ;.E E E E E ! -.E E ! ~ :.<.%.:.>.1.e.e.e.$.>.:.>.1.e.<.#.>.:.>.1.e.e.P ",
"u.H q.q.w.w.H w.H w.w.q.q.H q.H 0.0.0.;.R ;.R ;.;.;.;.R -.E -.-.-.-.! -.E *.*.*.%.<.%.>.$.$.$.$.e.$.1.$.$.#.#.e.#.1.$.L L L ~ P ",
"u.H q.H H w.H w.H w.q.H q.H 0.H 0.0.H ;.R ;.R ;.;.R ;.R -.E -.-.! -.! *.! *.*.<.%.<.%.1.$.$.;.$.<.$.e.$.#.e.#.e.P e.$.~ ~ G ~ P ",
"u.H q.H H H H w.H H H H q.H 0.H H H R ;.R ;.R R R R -.R -.E E E ! -.! *.~ :.:.<.%.<.$.e.e.e.e.$.:.$.e.e.e.e.#.<.P e.e.~ e.G ~ L ",
"w.H q.q.H w.w.w.q.q.q.q.0.0.0.0.;.;.;.;.;.;.;.;.;.-.-.-.-.-.-.-.-.*.*.*.*.%.%.%.%.$.$.$.$.$.$.$.$.$.#.#.#.#.P P P P P ~ G G ~ L ",
"w.H H H R w.. . . . $ $ $ $ 1 1 1 4 4 4 4 u u u i i i i s s s d d d d d d d S S S S S d d D G G G G G G L L L L L G P ~ ~ ~ ~ L ",
"w.w.w.w.w.w.. . . $ $ $ $ 1 1 1 4 4 4 4 u u u i i i i s s s s i s d d d d S S S S S d i s d d S S D G G G L P P G #.P P L L L L ",
"w.H H H H q.. . g v h v I I v h g g g g h h g g h h I I I h g h g g h h g v U U U I I I U I U I U I I U U U U D P #.P ~ ~ ~ ~ G ",
"w.H w.w.q.q.. $ v Y Y Y Y Y U I v v v v I v h h v h U Y Y U I v v v v I v U U Y U I U U Y Y Y Y Y U U U U U U d P #.L L L L ~ G ",
"w.H w.H H q.$ $ v Y T T Y U I v v v v I v h h v h h v I U U I I I U v U v I I T T Y Y I U Y T Y U U I I I U Y s P #.L ~ ~ G ~ G ",
"w.H q.q.H q.$ $ v Y Y Y U I v v v v v v v h g g g h h v v v v v I U I U I Y U U T Y T Y Y Y U U U Y U I I U U s P #.L ~ G G ~ G ",
"w.H q.q.H 0.$ $ h U U U I v h h h h h h h h g g h h v g h h h h v v v h U U I U U Y Y Y U U U U U Y Y U U I U d #.#.L ~ G G ~ G ",
"q.H H H R 0.$ 1 h I v v v h g g g h h g g g g g g h v g f f f g h h h h v I I I I U U U Y Y T T Y U U U U I I d #.#.G ~ ~ ~ ~ G ",
"q.q.q.0.0.0.1 1 g h v h v h g g g g g g g g g g g g g g f w w f g g h h v I I I I I U U Y T T T Y U U I U I v d #.#.G G G G G G ",
"q.H R R R 0.1 1 g v v h h h g f g f g g g g g g g g f f w w w f g g h h v I I I I U U U Y T T Y U I I I I I v d P $.G ~ ~ ~ ~ G ",
"q.R 0.0.0.;.1 4 g v h h h h g g g f f f f f f f f f f w w w f g g h h v v I U U U I U U Y Y Y U I I v v I I v d $.$.G G G G ~ D ",
"0.R 0.R R ;.4 4 g v v h g g g g g f f f f w w w w w w w w f g g g h h h v I U U U U I U Y Y U U I I v v I I v d $.$.G ~ ~ G ~ D ",
"0.R 0.;.R ;.4 4 g v h g f f f g g g f f f w w w w w w w w f g g g g h h v I I U U U U U U U U I I I v h h h v d $.$.G ~ G D ^ D ",
"0.R ;.;.R ;.4 4 h v h g f f w f f f f f f w w w w w w w w w f g g g g h h v I I I U U I I U U U I I v g h g h d #.$.G ~ D D ^ D ",
"0.R R R R ;.4 u g h g g f f w f w w w w w w w w w w 6 6 6 6 6 6 5 f g g g h h v I I I I I U U U U U v h g g g d P #.G ~ ~ ^ ^ S ",
";.;.;.;.;.;.u u g h h g g g f f w w w w w w w w w 6 6 5 ; 5 w h 6 6 w f f f g h v v I I I I U U U U I h g g f d P #.D D D D S S ",
";.R R R R ;.u u f h g g f g f g w w 6 6 6 6 6 6 6 5 ; ; % % w ' 6 5 6 w w w w f g h v v I I I I I U U v g g g s P $.D ~ ^ ^ ^ S ",
";.R ;.;.;.;.u i g h g g f f f w 6 6 5 5 5 5 5 5 5 ; % % @ @ 5 ]       ; ; 5 6 w f g h v v I I I I I I v g f g s $.%.D D S S ^ S ",
";.R ;.R R -.i i g g g g w f w w 5 5 5 5 ; ; ; ; ; % @ @ @   @ P $     @ @ % ; 6 w f g h v v I v I I I v h g g s #.$.D ^ ^ S ^ S ",
";.R ;.;.R -.i i f g g f f f w 6 f w 5 5 ; ; ; % % @ @         q.$         @ @ ; 6 w f h h v v v v I I v h g g s P %.S ^ S S ^ d ",
";.R ;.-.R -.i i f g f f w w w f f v g 5 ; ; % % @             u.$                   @ g h v v v v I I v v g f s $.%.S ^ S S ^ d ",
";.R R R E -.i s f f f w w w g v  .u.] U 5 ; % 5 ;         @ @ q.; @ @ @     1 [ $   w f h v v v v I I I I h f d %.*.S ^ ^ ^ ^ d ",
";.;.;.;.;.-.s s f f f w 6 5 f [ u.u.u.U f % 5 h % @   @ @ @ @ 4.@ @ @ @   1 [ 1     5 w g h v I I I I I I h g d *.*.S d d d d d ",
"-.R E E E -.s s w w f w 6 6 6 [ 4.u.[ v w % @   ' @ @ @ @ @ @ 4.@ @ @ @ @ [ 1     @ ; 6 f h v I I I U U U h g d *.*.d ^ ^ ^ ~ d ",
"-.E -.-.-.-.s d w w w w 6 5 6 f [ U g w ; @       [ @ @ @ @ f u.f @ @ @ [ ;     @ @ % 5 w g v I I U [ [ U v g S *.*.d d d d ~ d ",
"-.E -.E E -.d d w w w w w w 6 6 6 w w 5 %         @  .@ @ ] [ u.] T ; 4.; @ @ @ @   @ ; w g v I U [  . .[ I h d *.*.d ^ :.d :.d ",
"-.E -.-.E -.d d f w w w w w 6 6 6 5 ; % @         @ @  .] r.u.u.u.u.u.h @ @ @ @ @ @ @ % 6 f h I [  .u. . .[ I d *.-.d :.d d 1.d ",
"-.E -.-.E *.d d f f w w w 6 6 6 6 w w ; @         @ @ f u.u.u.u.u.u.u.T ; @ @ @ @ @ @ % 6 f r.`  .u.u.u. . .I d *.-.d 1.d d 1.s ",
"-.E E E E *.d d f w w 6 6 6 6 6 h g f w 6 ; % @ @ @ @ ] u.u.u.u.u.u.u.[ f @ @ @ @   @ % 6 f h ` [  .u. . .[ h d *.*.d 1.1.1.1.s ",
"-.-.-.*.*.*.d d w w w 6 6 6 6 f U U I Y Y ] [ [  .4.4.u.u.u.u.u.u.u.u.u.4.] ] ] Y P P d u 6 6 U ] [  . .[ v g d *.*.d d d s s s ",
"-.E E E E *.d d w w w w 6 6 5 T U U u.v v 3 3   @ @ 6 v 4.u.u.u.u.u.u.[ w ; ; ; ; ; $ $ $ w I U Y ] [ [ v h f d *.;.d e.e.e.e.s ",
"*.E *.*.*.%.d d w w w w w 6 6 v T u.u.u.[ f m m 3 @ @ ; u.u.u.u.u.u.u.; @ @ @ @ @ @       g I Y Y U I v h g f d ;.;.d s s s e.i ",
"*.E *.~ >.%.d d f w w w w 6 6 6 g U u.[ v T u.m @ @ @ 4.w v T u.] v h [ @ @ @ @ @ @ % 5 w h I U U U I v h g f S ;.;.s e.e.s e.i ",
"*.! *.%.>.%.d s f f w 6 6 6 6 5 5 g f v [ u.u.u.% @ [ @ @ ; ; u.; @ @ ; [ @ @ @ @ % ; 6 f h I U U U I v h f 6 S ;.;.s e.s i >.i ",
"*.! %.%.e.%.d d g g w 6 6 6 5 5 ; ; ; % [ [ u.5 % ] @ @ @ @ @ u.@ @ @ @ ; Y @ @ % ; 6 w g v I U U U U I h f 6 S ;.;.s e.i i :.i ",
"*.~ >.e.e.$.d d g g w w 6 6 5 ; ; ; ; % % [ f w ' ; % @ @ @ @ 4.@ @ @ @ @ ; I @ % 5 w f h I I U U Y Y U v g 6 S ;.;.s e.>.:.~ u ",
"%.%.%.%.$.$.d d f f w w w 6 5 ; ; ; ; ; % % g ' w 6 @ @ @ @ @ 4.@ @ @ @ @ % ; h 6 6 f g v I U Y Y T T Y I h w S ;.;.i i i i u u ",
"%.~ >.e.e.$.d d f f w f f w 6 5 5 5 ; % % % Y g @ @ @ @ @ @ @  .@ @ @ @ @ @ w w w w f h I U Y T T ` ` T U I w S ;.0.i e.e.>.~ u ",
"%.~ $.$.$.$.d s f w w w f f w 6 6 5 ; % % % % @ @ @ @ @ @ @ @ [ @ @ @ @ @ @ % ; 6 w g v I Y T ` ` ' ' T Y v w S ;.0.i i u u ~ u ",
"%.:.$.e.e.$.d i f f w w f w w 6 6 ; % % % % % % @ @ @ @ @ @ @ ' 6 @ @ @ % % ; 5 w f g v U Y T ` ' ' ' T Y v w S ;.0.i ~ >.u ~ 4 ",
"$.>.$.$.e.$.d s g f w 6 w w 6 6 6 5 ; ; % ; % % % @ @ @ @ @ @ ' f % % % ; ; 6 w w f h v I Y T T ` ' ` T U h g F ;.q.u ~ u u ~ 4 ",
"$.e.$.$.e.$.S d g f w w 6 w 6 6 6 6 5 5 5 5 ; % % @ @ @ @ @ @ % % % ; ; 5 6 w w f g h v I Y Y Y T ` T Y I g g D q.q.u ~ u 4 ~ 4 ",
"$.e.e.e.e.$.S d g g w w 6 w w 6 6 6 6 6 6 5 5 ; % @ @ @ @ @ @ % % ; ; 5 6 w f f g g h I I U Y Y Y T Y U v g g F q.q.u ~ ~ ~ ~ 4 ",
"$.$.$.$.$.#.d d g g w w w w w w f w w w w 6 5 5 % @ @ @ @ % % % ; 5 6 w w f g h h h h U U U Y Y Y Y Y U v g g D ;.;.u 4 4 4 4 1 ",
"$.e.e.e.e.#.d d g g f f f f f f g g f f w w 6 5 5 ; ; ; ; 5 5 5 6 w w w f g v I v h v I U Y Y Y U U U U v h g F ;.;.4 ~ ~ ~ ~ 1 ",
"$.e.$.#.#.#.d d f f f g f f f h h h g g f f w 6 6 6 6 w w w w w w f f g g h v I I I I U Y Y Y Y U U U U I v h G ;.0.4 4 4 1 ~ 1 ",
"$.e.#.e.e.#.d d g h g g g g f g h h h g g f w 6 6 w w f f g f f f f g g v U U U I I I I Y T T Y U U U U I v v G ;.0.4 ~ ~ 1 ~ 1 ",
"$.e.#.#.e.P d d g g g g g g f g g h h h g g f f f f w f g g g g g g g h v Y Y U U U U U T ` ` T Y U U U I v g L ;.0.4 ~ 1 1 ~ $ ",
"#.e.#.#.e.P d d h h h g h g f f g g g h g g g g g g g g g h v I I v h h I U U Y Y Y T T ` ' ` T Y Y U U I h g L ;.q.1 ~ 1 1 ~ $ ",
"#.e.e.e.e.P d d g g g h h g g f f g g g h h h h h h h h h v I I v v h v v I U U Y Y T ` ' ' ` T T Y Y U I h g L q.q.1 ^ ~ ~ ~ $ ",
"#.#.P P P P d s h v h v v g g f f f g g h h v v v I I I I I I U U I I I v I I U Y Y T T ` ` T T T T T Y I g s L q.q.1 1 $ $ $ $ ",
"#.P P P P P d d h v v v v g g g g g g g h h v v I U U U U U U U Y Y Y U ` [ u.U Y Y Y T T T T T T ` T Y v g s L q.w.1 $ $ $ $ . ",
"P 1.1.1.1.P d d v I I I v v h h h g g g g h h v I U U Y Y Y Y Y Y Y Y [  . .u. .[ Y Y U Y Y T T ` ` T U v f s P w.w.$ ! ! ! ! . ",
"P 1.1.1.1.P d d v U U I I I v v h h g f f g g h v I U U U U Y Y Y Y  .4.u.u.u.u.u.] U U U Y T T ` ` T U h f g P w.w.$ ! ! ! ! . ",
"P 1.1.1.1.P d d v U U U U U I I v g g f w w f g h h v I I U U U U [  .4.u.u.u.u.u.` ` I I U Y T ` ' T U g g g P w.w.$ ! ! ! ! . ",
"P 1.1.1.1.L d d v U U U U U I I v h g f w 6 g g g g g v v v v v v [ u.u.u.u.u.u.u.u.u.h v I U Y ` ` T I g g g P w.w.$ ! ! ! ! . ",
"P P P P L L d d I U U U U I I v v h g f f w w g h g h g g f f f g Y [ T u.u.u.u. .] Y h h v I I U Y U h g g g D w.w.. . . . . . ",
"P P P L L L d I U Y Y U U I I I h h g f w f f f g g g g g h h h v I I ] ]  .u.[ [ [ ` I I I v U U U U g g g g f D w.. . . . . . "
};
