/* XPM */
static char *result[] = {
/* columns rows colors chars-per-pixel */
"62 63 256 2 ",
"   c black",
".  c #000400",
"X  c #040400",
"o  c #000C00",
"O  c #04080C",
"+  c #080404",
"@  c #08000C",
"#  c #0C0804",
"$  c gray3",
"%  c #0C0014",
"&  c #080C10",
"*  c #001C00",
"=  c #0C1014",
"-  c #100C08",
";  c #100018",
":  c #141008",
">  c #18140C",
",  c #1C140C",
"<  c #1C180C",
"1  c #101010",
"2  c #10181C",
"3  c #1C1C14",
"4  c #181818",
"5  c #140020",
"6  c #180024",
"7  c #003C04",
"8  c #281000",
"9  c #201C10",
"0  c #301400",
"q  c #381800",
"w  c #200034",
"e  c #242010",
"r  c #242018",
"t  c #303018",
"y  c #38381C",
"u  c #202020",
"i  c #282828",
"p  c #302C20",
"a  c #383424",
"s  c gray19",
"d  c #3C3C3C",
"f  c #2C0044",
"g  c #340054",
"h  c #3C0064",
"j  c #283840",
"k  c #384C5C",
"l  c #401C00",
"z  c #482404",
"x  c #542C0C",
"c  c #603810",
"v  c #480074",
"b  c #444424",
"n  c #44402C",
"m  c #504834",
"M  c #505028",
"N  c #58582C",
"B  c #585438",
"V  c #684018",
"C  c #744820",
"Z  c #646434",
"A  c #74743C",
"S  c #484848",
"D  c #505050",
"F  c gray33",
"G  c gray36",
"H  c #445C6C",
"J  c #645C40",
"K  c #746C48",
"L  c #686868",
"P  c gray44",
"I  c #500084",
"U  c #600098",
"Y  c #7000AC",
"T  c #7C00C0",
"R  c #4C6C80",
"E  c #587890",
"W  c #108410",
"Q  c #50D038",
"!  c #6488A0",
"~  c #6C94B0",
"^  c #78A0C0",
"/  c #805024",
"(  c #8C6038",
")  c #847C54",
"_  c #9C7448",
"`  c #8C00D4",
"'  c #9C00E8",
"]  c #A800FC",
"[  c #B418FC",
"{  c #BC34FC",
"}  c magenta",
"|  c #C450FC",
" . c #CC6CFC",
".. c #FC54FC",
"X. c #888844",
"o. c #949064",
"O. c #A8845C",
"+. c #B89470",
"@. c #A4A074",
"#. c #808080",
"$. c gray55",
"%. c #989898",
"&. c #BCB888",
"*. c #A4A4A4",
"=. c gray66",
"-. c gray69",
";. c #BCBCBC",
":. c #84B0CC",
">. c #90BCD8",
",. c #A0F080",
"<. c #9CC8E4",
"1. c #A8D4F0",
"2. c #C4A480",
"3. c #D888FC",
"4. c #E0A4FC",
"5. c #CCCC94",
"6. c #E0C4A4",
"7. c #F0D4B8",
"8. c #F0F094",
"9. c #ECE8B4",
"0. c #C8C8C8",
"q. c gray83",
"w. c gainsboro",
"e. c #C0E4FC",
"r. c #E8C0FC",
"t. c #F0F0C4",
"y. c #F8F8D0",
"u. c gray91",
"i. c gray99",
"p. c black",
"a. c black",
"s. c black",
"d. c black",
"f. c black",
"g. c black",
"h. c black",
"j. c black",
"k. c black",
"l. c black",
"z. c black",
"x. c black",
"c. c black",
"v. c black",
"b. c black",
"n. c black",
"m. c black",
"M. c black",
"N. c black",
"B. c black",
"V. c black",
"C. c black",
"Z. c black",
"A. c black",
"S. c black",
"D. c black",
"F. c black",
"G. c black",
"H. c black",
"J. c black",
"K. c black",
"L. c black",
"P. c black",
"I. c black",
"U. c black",
"Y. c black",
"T. c black",
"R. c black",
"E. c black",
"W. c black",
"Q. c black",
"!. c black",
"~. c black",
"^. c black",
"/. c black",
"(. c black",
"). c black",
"_. c black",
"`. c black",
"'. c black",
"]. c black",
"[. c black",
"{. c black",
"}. c black",
"|. c black",
" X c black",
".X c black",
"XX c black",
"oX c black",
"OX c black",
"+X c black",
"@X c black",
"#X c black",
"$X c black",
"%X c black",
"&X c black",
"*X c black",
"=X c black",
"-X c black",
";X c black",
":X c black",
">X c black",
",X c black",
"<X c black",
"1X c black",
"2X c black",
"3X c black",
"4X c black",
"5X c black",
"6X c black",
"7X c black",
"8X c black",
"9X c black",
"0X c black",
"qX c black",
"wX c black",
"eX c black",
"rX c black",
"tX c black",
"yX c black",
"uX c black",
"iX c black",
"pX c black",
"aX c black",
"sX c black",
"dX c black",
"fX c black",
"gX c black",
"hX c black",
"jX c black",
"kX c black",
"lX c black",
"zX c black",
"xX c black",
"cX c black",
"vX c black",
"bX c black",
"nX c black",
"mX c black",
"MX c black",
"NX c black",
"BX c black",
"VX c black",
"CX c black",
"ZX c black",
"AX c black",
"SX c black",
"DX c black",
"FX c black",
"GX c black",
"HX c black",
"JX c black",
"KX c black",
"LX c black",
"PX c black",
"IX c black",
"UX c black",
/* pixels */
"H H H H H H w.H H H H H H q.H H H H H H ;.R R R R R R ;.E E E E E ! -.E E ! ~ :.<.%.:.>.1.e.e.e.$.>.:.>.1.e.<.#.>.:.>.1.e.e.",
"H q.q.w.w.H w.H w.w.q.q.H q.H 0.0.0.;.R ;.R ;.;.;.;.R -.E -.-.-.-.! -.E *.*.*.%.<.%.>.$.$.$.$.e.$.1.$.$.#.#.e.#.1.$.L L L ~ ",
"H q.H H w.H w.H w.q.H q.H 0.H 0.0.H ;.R ;.R ;.;.R ;.R -.E -.-.! -.! *.! *.*.<.%.<.%.1.$.$.;.$.<.$.e.$.#.e.#.<.P e.$.~ ~ G ~ ",
"H q.H H H H w.H H H H q.H 0.H H H R ;.R ;.R R R R -.R -.E E E ! -.! *.~ :.:.<.%.<.$.e.e.e.e.$.:.$.e.e.e.e.L L -.P w.*.e.G ~ ",
"H q.q.H w.w.w.q.q.q.q.0.0.0.0.;.;.;.;.;.;.;.;.;.-.-.-.-.-.-.-.-.*.*.*.*.%.%.%.%.$.$.$.$.$.$.$.$.$.#.#.#.L D 0.G w.-.P G G ~ ",
"H H H R w.. . . . $ $ $ $ 1 1 1 4 4 4 4 u u u i i i i s s s d d d d d d d S S S S S d d D G G G G G G S D w.*.d %.G S E ~ ~ ",
"w.w.w.w.w.. . . $ $ $ $ 1 1 1 4 4 4 4 u u u i i i i s s s s i s d d d d S S S S S d i s d d S S D G D D 0.*.S S d S G S L L ",
"H H H H q.. . x c z C ( _ ( C x c c c V V V V V V V V V V V V V c c c c c c c c c c c c c x C ( _ ( z ;.*.z S S =.$.j E ~ ~ ",
"H w.w.q.q.. $ C V / _ 2.6.6.+.( V V / / / / / / / / / / / / / / / / / / / / / / / / / / C ( +.6.6.2./ 0.z z s =.#.s S L L ~ ",
"H w.H H q.$ $ C / O.+.( / / +.2.( c C / ( _ _ _ _ _ _ _ _ _ _ _ _ _ _ _ _ _ _ _ _ ( / V ( 2.+./ / ( C G %.l =.P s d ~ ~ G ~ ",
"H q.q.H q.$ $ c ( 2.( _ / 6.( 6.O.C V C C C C C C C C C C C C C C C C C C C C C V C C C O.6.( 6.C c -.q.#.D D d d F ~ G G ~ ",
"H q.q.H 0.$ $ C _ 6._ 2._ / +.6.( x V V V / / / / / / / / / / / / / / / C C C C V V c c ( 6.+./ V -.q.#.z z 4 S F L ~ G G ~ ",
"H H H R 0.$ 1 V O.6.+.( +.6.2._ / ( ( ( ( ( ( ( ( ( ( ( ( ( ( ( ( ( ( ( ( ( ( ( ( ( ( ( / _ +.C -.;.#.C C z d L L G ~ ~ ~ ~ ",
"q.q.0.0.0.1 1 C _ 6.6._ C / ( ( _ _ _ O.O.O.O.O.O.O.O.O.O.O.O.O.O.O.O.O.O._ _ _ _ _ _ ( / 0.$.G #.F C O.( V s #.#.G G G G G ",
"H R R R 0.1 1 / C 6.2.C / ( / ( ( ( ( / / / / / / / / / / / / / / ( ( ( ( ( ( ( ( ( ( C w.$.q c d s ( 2.V / d P $.G ~ ~ ~ ~ ",
"R 0.0.0.;.1 4 / _ +.2.( ( _ ( V V V c x x x x x x c c c c c c c c c V V V V V V V V x 0.$.q x c P s +.O._ / d $.$.G G G G ~ ",
"R 0.R R ;.4 4 C O.6.O.( ( _ ( V / ( ( V C C V C c V C C V C V V C V / / ( ( / C / c 0.-.z l / P P / O.6.O.C d $.$.G ~ ~ G ~ ",
"R 0.;.R ;.4 4 C _ 6.2./ ( _ ( V ( C / c V C c c x c V c x V c c / V C C / C C C C P $.q c c $.P c c 2.6._ C d $.$.G ~ G D ^ ",
"R ;.;.R ;.4 4 C C 6.2.O.( _ ( V ( / C c c C x c x c V V x V c c / V C V / C / V C F L c C =.P V x O.2.6.C C d #.$.G ~ D D ^ ",
"R R R R ;.4 u C O.+.2.O.( _ ( V / / C c c V x c x c V C x V c V / V C c / C C C V =.*.C %.G V c / O.2.+.O.C d P #.G ~ ~ ^ ^ ",
";.;.;.;.;.u u C O.6.+.( ( _ ( c / C C c c V c c x c V V x V V V / V C c V C / V L w.P S S z z / ( ( +.6.O.C d P #.D D D D S ",
"R R R R ;.u u C _ 6.2.C ( _ ( V C C C x c V c V x V C V c V C V / V C V V V / #.;.#.x z x x V _ ( C 2.6._ C s P $.D ~ ^ ^ ^ ",
"R ;.;.;.;.u i C / 6.2._ ( _ ( V / V C x c V c C c V C C c C C C / V / V V V #.w.#.z x z C c ( _ ( _ 2.6./ C s $.%.D D S S ^ ",
"R ;.R R -.i i C +.+.2.O.( _ ( V ( C C x V C V V V c C C V V C / V V ;.P G %.w.#.z x x V / c ( _ ( O.2.+.+.C s #.$.D ^ ^ S ^ ",
"R ;.;.R -.i i C +.6.O.( ( _ ( V ( / V c V / c V V c C C V C C / c w.$.l z %.L z x x c C / V ( _ ( ( O.6.+.C s P %.S ^ S S ^ ",
"R ;.-.R -.i i C +.6.2.C ( _ ( V ( / C c V V c V V c C / C c C C w.$.z x x S d l c V V C ( V ( _ ( C 2.6.+.C s $.%.S ^ S S ^ ",
"R R R E -.i s C _ 6.2._ ( _ ( V ( / C V C V c V V c / C / V C *.$.z x V L P S l V V V / ( V ( _ ( _ 2.6._ C d %.*.S ^ ^ ^ ^ ",
";.;.;.;.-.s s C 2.+.2.O.( _ ( V ( / C V V C V c V V / P $.L S s z z C $.#.S q z V C C / ( V ( _ ( O.2.+.2.C d *.*.S d d d d ",
"R E E E -.s s C +.6.O._ ( _ ( V ( / V V c C V c / P %.*.-.%.#.S S i $.=.S l l x C ( V / ( V ( _ ( _ O.6.+.C d *.*.d ^ ^ ^ ~ ",
"E -.-.-.-.s d C +.6.2./ ( _ ( V / / C C c C V V $.q.0.-.$.P $.F s D =.L q z z V / / C / / V ( _ ( / 2.6.+.C S *.*.d d d d ~ ",
"E -.E E -.d d C ( 6.2._ ( _ ( V / C V C c C / V 0.q.=.F S s d s G -.L i 1 x c V C / V C / V ( _ ( _ 2.6.( C d *.*.d ^ :.d :.",
"E -.-.E -.d d C +.+.2.O.( _ / c c c V / c ( C $.;.%.L d x x x F #.$.F S s z c V C C V C / V ( _ ( O.2.+.+.C d *.-.d :.d d 1.",
"E -.-.E *.d d C +.6.O./ ( -.i.0.L z V V V / c $.-.#.S z c / V L S D ;.%.F i z V / C c C / V ( _ ( _ O.6.+.C d *.-.d 1.d d 1.",
"E E E E *.d d C +.6.6.F L #.L F S s d x c V z $.-.L s c C C V C V x G -.L s z x x C c C / c ( _ ( / 2.6.+.C d *.*.d 1.1.1.1.",
"-.-.*.*.*.d d C _ 6.L -.L x x z x S L F c c x $.#.F *.P V C V C V / x P #.S u l B x V C / c / _ ( _ 2.6._ C d *.*.d d d s s ",
"E E E E *.d d C ( #.u.L z c x z x x S %.F l x $.L 0.$.x c c C C V V c S i d K o.&.m z C / c / _ ( O.2.+.+.C d *.;.d e.e.e.e.",
"E *.*.*.%.d d C D -.L l c C V z c c z L #.*.$.D w.$.d x x c c V c c D d d o.5.) K m z C C c / _ ( _ O.6.+.C d ;.;.d s s s e.",
"E *.~ >.%.d d C P %.q z V C V z c x z 0 *.w.x 0.$.F S s x x S F F D J ) K i K ) o.B s c C c / _ ( / 2.6.+.C S ;.;.s e.e.s e.",
"! *.%.>.%.d s C F #.l x V C V z c x l *.i.d x V G d d F L G G J ) K d d s S d J J s d l V c / _ ( _ 2.6._ C S ;.;.s e.s i >.",
"! %.%.e.%.d d C F %.d x V C V z x z -.i.F u c C K o.K L J ) K S S S D S S S d s s i S z C c / _ ( O.2.+.+.C S ;.;.s e.i i :.",
"~ >.e.e.$.d d C +.#.#.x V C V c l *.w.G s z B 5.o.@.K K F D S L G D G D S d d s i D u d x z / ( ( _ O.6.+.C S ;.;.s e.>.:.~ ",
"%.%.%.$.$.d d C +.6.#.#.i C V z z $.P u x c K o.) J K F L P L L G G G S S S d d i i i S z x / ( ( / 2.6.+.C S ;.;.i i i i u ",
"~ >.e.e.$.d d C ( 6.2.F %.%.=.P d L w.l S D d ) &.K ) F P P P L P i s D S d d d s i u S z z / ( ( _ 2.6.( C S ;.0.i e.e.>.~ ",
"~ $.$.$.$.d s C O.+.2.( V L G F #.w.P D G z z J ) ) F #.#.P P #.s 1 1 u D d d d s i u u S z / ( ( O.2.+.O.C S ;.0.i i u u ~ ",
":.$.e.e.$.d i C O.6.O.V V c V #.i.#.z l l x x z P P $.#.P P L $.i 1 4 s L S d s s s D u S l / ( ( _ O.6.O.C S ;.0.i ~ >.u ~ ",
">.$.$.e.$.d s C O.6./ -.*.G -.i.%.x l z x c x c #.$.$.#.#.P P L %.u 4 i L d d s s i i i S z / ( ( / 2.6.O.C F ;.q.u ~ u u ~ ",
"e.$.$.e.$.S d C ( ( -.i.$.-.-.#.c z z x c C V z #.q.%.#.P P L L L $.i 4 4 G d s s i u u u z / ( ( _ 2.6.( C D q.q.u ~ u 4 ~ ",
"e.e.e.e.$.S d C C -.i.#.c F F z c z z c V C c q z %.#.#.#.P L G G #.u u i i S s s i L u l z / ( / O.2.+.O.C F q.q.u ~ ~ ~ ~ ",
"$.$.$.$.#.d d C $.w.F x z s S z x z x V C V c V x P u.#.P P P L G P i 4 d S d s i s i u l z C ( / _ O.6.O.C D ;.;.u 4 4 4 4 ",
"e.e.e.e.#.d d $.0.F c l G D l l z x z V / V c C c L $.#.P P P L G G L S S S d d i i s l c z C ( / / 2.6.O.C F ;.;.4 ~ ~ ~ ~ ",
"e.$.#.#.#.d d *.F z q $.D x c 0 c z z V C V c V C x G $.q.P L L G G D D S d d L s i l l c l C ( / _ 2.6.( V G ;.0.4 4 4 1 ~ ",
"e.#.e.e.#.d d #.V s *.D z c V l c z z C C V c V C V c F G P L =.L G D #.S d d s u l l l c l C ( / O.2.+.O.V G ;.0.4 ~ ~ 1 ~ ",
"e.#.#.G d *.0.=.F G S x x ( C l x z l V C V c C V C V C C D G F G D G D S d u 4 l z l z x l C ( / _ O.6.O.V L ;.0.4 ~ 1 1 ~ ",
"e.#.#.S *.w.*.L c c V V / ( C q c z z C / C C C / / V C C C x z z z l 0 0 0 q x V c z z c q C ( / / 2.6.O.V L ;.q.1 ~ 1 1 ~ ",
"e.e.e.e.*.*.P V / O.O.O./ ( C 8 0 0 q c c c c c c c c c c x x x x x x x z z z z l q q 0 0 8 C ( / O.2.6.O.V L q.q.1 ^ ~ ~ ~ ",
"#.P P P P G i x / 6.2.O./ ( C / / / / / / / / / / / / / / / / / / / / / / / / / / / / / / / C ( / O.2.6./ x L q.q.1 1 $ $ $ ",
"P P P P P d d x _ +.2.O./ / ( ( ( ( ( ( ( ( ( ( ( ( ( ( ( ( ( ( ( ( ( ( ( ( ( ( ( ( ( ( ( ( ( / ( O.2.+._ x L q.w.1 $ $ $ $ ",
"1.1.1.1.P d d x ( +.+./ / / / / / / / / / / / / / ( ( ( ( ( ( ( ( ( ( ( ( ( ( ( ( ( ( ( / / ( ( / / +.+.( x P w.w.$ ! ! ! ! ",
"1.1.1.1.P d d / 2.7.y._ / / C C C C C C C C C C C C C C V V V V V V V V V V C C C C C C C C C / / _ y.7.2./ P w.w.$ ! ! ! ! ",
"1.1.1.1.P d d ( 2.6.2.O.C C C C / / / / / / / / / / / / / / / / / / / / / / / / / / / / / C C C C O.2.6.2.( P w.w.$ ! ! ! ! ",
"1.1.1.1.L d d c ( 2.( _ _ _ _ _ _ _ _ _ _ _ _ _ _ _ _ _ _ _ _ _ _ _ _ _ _ _ _ _ _ _ _ _ _ _ _ _ _ _ ( 2.( c P w.w.$ ! ! ! ! ",
"P P P L L d d x C / / / / / / / / / / / / / / / / / / / / / / / / / / / / / / / / / / / / / / / / / / / C x D w.w.. . . . . ",
"P P L L L d g l x c x x x x x x x c c c c c V V V V V V V V V V V V V V V V V V V c c c c c c x c c x x z l g D w.. . . . . "
};
