/* XPM */
static char *result[] = {
/* columns rows colors chars-per-pixel */
"72 72 89 1 ",
"  c #F1751E",
". c #EC5F2C",
"X c #E94D37",
"o c #EC4E3E",
"O c #EC5734",
"+ c #EC5F37",
"@ c #E75539",
"# c #ED513E",
"$ c #E75939",
"% c #EF5939",
"& c #F15F34",
"* c #F15D39",
"= c #EF6329",
"- c #EF6929",
"; c #F26E2C",
": c #EF7121",
"> c #F67D21",
", c #F4742B",
"< c #F47B2A",
"1 c #EC6334",
"2 c #EC6931",
"3 c #EF6139",
"4 c #F16333",
"5 c #F36B31",
"6 c #F77231",
"7 c #DD2C54",
"8 c #D8265D",
"9 c #D8285D",
"0 c #DE3352",
"q c #E63C44",
"w c #E93D47",
"e c #E2344C",
"r c #E43C4B",
"t c #E44646",
"y c #EA4547",
"u c #E64B43",
"i c #ED4C41",
"p c #E75142",
"a c #EF5142",
"s c #F79208",
"d c #F79E08",
"f c #F48913",
"g c #F78D18",
"h c #F79C10",
"j c #F79418",
"k c #F79C19",
"l c #FB9C1B",
"z c #F9A705",
"x c #F7A208",
"c c #F9AB0D",
"v c #FCBD02",
"b c #FCB60C",
"n c #FCBB0C",
"m c #F9A512",
"M c #F7AC10",
"N c #FBAC11",
"B c #F7A318",
"V c #FCA11A",
"C c #F7AC18",
"Z c #F7B210",
"A c #FBB511",
"S c #FDBA11",
"D c #F7B218",
"F c #FFB618",
"G c #FFBA18",
"H c #F58322",
"J c #F98624",
"K c #F68B22",
"L c #F98923",
"P c #F78229",
"I c #F98628",
"U c #F69222",
"Y c #F99023",
"T c #FCA020",
"R c #FDC50B",
"E c #FECB0A",
"W c #FFD304",
"Q c #FFDC05",
"! c #FED40A",
"~ c #FEDB09",
"^ c #FCC411",
"/ c #FFCB10",
"( c #FFE402",
") c #FFEB02",
"_ c #FFE508",
"` c #FFED08",
"' c #FFF100",
"] c #FFF308",
"[ c None",
/* pixels */
"[[[[[[[[[[[[[[[[[[[[[[tp$2PIkMR!_((_(()QEbcj<,1@it[[[[[[[[[[[[[[[[[[[[[[",
"[[[[[[[[[[[[[[[[[[[[[[pp$2<UkZnE_)_(Q()~Rbxj<51@uu[[[[[[[[[[[[[[[[[[[[[[",
"[[[[[[[[[[[[[[[[[[[[[[tp$2<KkCn!_((_Q()QRbmj<51@uu[[[[[[[[[[[[[[[[[[[[[[",
"[[[[[[[[[[[[[[[[[[[[[[tp$1<KBMn!_(_(_()~EbmjI;1@ut[[[[[[[[[[[[[[[[[[[[[[",
"[[[[[[[[[[[[[[[[[[[[[[tp$2<KBA/R_((_()(QRbmj>;++uu[[[[[[[[[[[[[[[[[[[[[[",
"[[[[[[[[[[[[[[[[[[[[[[tp%2,KBAR~_))(Q((QRbmj>;+put[[[[[[[[[[[[[[[[[[[[[[",
"[[[[[[[[[[[[[[[[[[[[[ttp%2<KBAR~(()()((QRbmg>;+putr[[[[[[[[[[[[[[[[[[[[[",
"[[[[[[[[[[[[[[[[[[[[[0tp%5<LBZR~()()((Q!Rbmj>;1puqr[[[[[[[[[[[[[[[[[[[[[",
"[[[[[[[[[[[[[[[[[[[[0rya1<HBMR!`_)()(((!EbcjP2%%yyt0[[[[[[[[[[[[[[[[[[[[",
"[[[[[[[[[[[[[[[[[[[70rya32KkMR!_)))())(WEbNj<5%%yyr07[[[[[[[[[[[[[[[[[[[",
"[[[[[[[[[[[[[[[[[[7e0rya3<KkR!__)((_))(~EbmjYP5%ayr007[[[[[[[[[[[[[[[[[[",
"[[[[[[[[[[[[[[[[[8770tya32Kkn!__())))()(EEnNY<5%iyr0778[[[[[[[[[[[[[[[[[",
"[[[[[[[[[[[[[[[877eewro4<UUDRQ(()))))))_W!RNlI66airwe7779[[[[[[[[[[[[[[[",
"[[[[[[[[[[[[[[9777eerao16IkZ^Q())()_))))_!nNllJ53iire7e779[[[[[[[[[[[[[[",
"[[[[[[[[[[[[[7777eewoo1,PkkD^E((((`)))))__~RNlJ65*iiwee7799[[[[[[[[[[[[[",
"[[[[[[[[[[[[8777eeyii4<<PkMMR!)())`))'')__!RNNlI66*iywee0779[[[[[[[[[[[[",
"[[[[[[[[[[[[777eww#a65JJBBDDEW(Q))''))))))_~EDBB<H51##wwe7778[[[[[[[[[[[",
"[[[[[[[[[[[977eewi#45JIlBZEEW(())))')))))))_!!ZBlPH54#aweee78[[[[[[[[[[[",
"[[[[[[[[[[797eewi#4,IllADEE~('''))''''''''''~_!DAllP,4oowee777[[[[[[[[[[",
"[[[[[[[[[700eewia4<<llAAE_~_)))'''''''''''''__~!AAkk<<4oiwee707[[[[[[[[[",
"[[[[[[[[0000rrpi56IVbAE~`)]'''''''''''''''''''`~~EAALL6;a#rr0000[[[[[[[[",
"[[[[[[rrrrrrrii%5IIVAE~`'''']''''''''''''''''`)']~RAVgg,1iiyryrrrr[[[[[[",
"tuttttttywyyai36IIVS/~]`']]''''''''''''')'''''''``~/SVLL,4aayyyyttttuutu",
"uuouuuutyyia3*66IlSS~``]''''''''''''''''''''`'''`]]~SSVg,,33aaaappppppu@",
"@$@@+ppp%%%%55IINDS!)]'']'']'''')''''''''''''''''''`!^BBY<<<3333%%%%$$$$",
"11113*++%%556IITD^!`]''')'''''')''''''''''''''']'''`_!ZCVjYP<6<<2-522221",
";,,,;;;;2-<PPTTGG!``]'']]'''''''''''')''''''']''''''__!DFTVTUUU6<P<<<<<<",
"PPPP>>>>PPUUTTGG!```'''''''''''''''''''''''''''''']]__E!FFGFBCBUKKUKKKKK",
"jjggjjgjjjjND^^!``']''''''''')'')''''''''''''''']''''(__!!^^^^ZZBCBCBVBB",
"mBmxmmmxMCNn^!`_)]')''''''''''''''''''''''''''''''''])_']__~!!^^SASDZZZC",
"ZbbbbbbbnnR!!```)''''''''''''''''''''''''''''''''']''')'`]````~~ERRER^RR",
"ERRERRER!!!W````]'']'''''''''''''''''''''''''''''''''']]````````~~~~~!QQ",
"~~~~~!!!~~~)]''`'''''''''''''''''''''''''''''''''''''''']'']'')))()(((((",
")))'(((((()''''''''''''''''''''''''''')'''''''''''''''''''''))`)`)`))__)",
"(((()(()(')'`''']'''''''''''''''''''''''''''''''''''''''''''))))(_((((((",
"QQQ(Q(()))'`''']''''''''''''''''''''''''''''')'''''''''']'']')))))((((((",
"((((_()())`)''''''''''''''''''''''''''''''''''''''''''''']])'))))((((_(_",
")(((((()))'''`''''''''''''''''''''')'''')''''''')''''''''])')()(((((()((",
"(((_())()))`'''`'''''''''''''''''''''''''''''''''''''''')')')(~(((((((((",
"(_~__(__)))]]''''''''''''''''''''''''''''''''''''''''''))(')(~~~!QQ((_(_",
"EEE!R~~~```````]]''`'''''''''''''''''''''''''')'''''')')(((QEWEEWEEEEEWE",
"n^^nRRER~~``]`]]''''''''''''''''''''''''''''''''''''))(Q(EWWEbbbbbbbvbbb",
"MMMMZZDZ^^!!_`__]`''']'''''''''''''''''''''''''''''''((WEnvnbNcmBBmmNmNN",
"kBkBBBBCDD^^^^^!)_)`''''''''''''''''''''''')''''''')'QWRvMMNNjjjjjjjkkkj",
"KgKKKKKKUDDCZZZZ!/__'''''''''''')''''''''''''''')'')WWvvhdmgKgK,<H>HPPPP",
"<<,<<<<<2UUUkkkDD!!_']]'']'''''''''''')'''''''''')'(Wvzzhgg ,<<4<2-;6<;,",
"122225-1<<<PPKKBBZ!_`''''''''''''''''''''''''''])((Wvzzsg> ,444423311111",
"$$$$%%%%33$366PKBCD!)]'''']'''''''''''''''''''''((QEvzss 6;;O%%Opppp@$@@",
"ppppppppaaaa336<JlnS~]]]]''''''''''''''''''')'')__Ebddf ==OOoiyytiutuuuu",
"tuutttttyyyypi4,g lnE~]]''''''''''''''''''''')''__Rvdf  =.toyyywtttttutu",
"[[[[[[rttrrtrii4;ggVSE~~''''']'''''''''''')))))((Ebxdf =@XXrrrrrt0[[[[[[",
"[[[[[[[[0000wwoa;;JhAA/E_`'''''''''''''''')(()_!Evxxf =.Xter0000[[[[[[[[",
"[[[[[[[[[770eewi%4,,llAc!E__]'''''''''''')((WE!vMMjj::.Xqqee007[[[[[[[[[",
"[[[[[[[[[[777eewXX4,g lAD!!_''''')'''')')'(WEnncMfjH:.Xqqee797[[[[[[[[[[",
"[[[[[[[[[[[977eeqXX4=>>jBSE/_''''''')))))(WRbcchjH -.XXqee779[[[[[[[[[[[",
"[[[[[[[[[[[[777eqq#X=;g BBS!()''''')))))((WRcchh:H--@Xqqe777[[[[[[[[[[[[",
"[[[[[[[[[[[[8777eewyo%55IVlS!```)))_)(()((WnMkjH;,4itqee7778[[[[[[[[[[[[",
"[[[[[[[[[[[[[9777eewyo*56IVAR~_`'))`(((((QWZMkg,,&ooqee7778[[[[[[[[[[[[[",
"[[[[[[[[[[[[[[787e7ewii%6IIkM^!_'))_((((((QZMjH,&oowee7778[[[[[[[[[[[[[[",
"[[[[[[[[[[[[[[[87770ewi#66KkMR!!))))((((((QZMjg,&orre7778[[[[[[[[[[[[[[[",
"[[[[[[[[[[[[[[[[99700rya*5<UNbEE((()((((__~^kK;3ayw07799[[[[[[[[[[[[[[[[",
"[[[[[[[[[[[[[[[[[[900ryi%5<jjmbWQ((()(((__!^BK<3ayr007[[[[[[[[[[[[[[[[[[",
"[[[[[[[[[[[[[[[[[[[90ryi%%5PjNbEQQ)(((((_!^MkK<3ayr07[[[[[[[[[[[[[[[[[[[",
"[[[[[[[[[[[[[[[[[[[[0ryt%%2PjNbRQ(()(()_(!^CkK63ayr0[[[[[[[[[[[[[[[[[[[[",
"[[[[[[[[[[[[[[[[[[[[[rtu@1;<gmbR!Q(()())QRABK<;%ptr[[[[[[[[[[[[[[[[[[[[[",
"[[[[[[[[[[[[[[[[[[[[[rtt@1,<jmbEQ()(()((~RDBU<5%ptr[[[[[[[[[[[[[[[[[[[[[",
"[[[[[[[[[[[[[[[[[[[[[[tu@1;<jmbRQ((Q())_~/ABY<5%pt[[[[[[[[[[[[[[[[[[[[[[",
"[[[[[[[[[[[[[[[[[[[[[[uu@1;<gmbRQ()(_((_RRZBK<2$pt[[[[[[[[[[[[[[[[[[[[[[",
"[[[[[[[[[[[[[[[[[[[[[[tu@1;JjmbR~)(Q_()Q!RZVK<2$pu[[[[[[[[[[[[[[[[[[[[[[",
"[[[[[[[[[[[[[[[[[[[[[[uu@15<jNbEQ)(_(_(_!nMBK<2$pu[[[[[[[[[[[[[[[[[[[[[[",
"[[[[[[[[[[[[[[[[[[[[[[yu@1;<jcbR~)(Q_()_ERMBg<2$pt[[[[[[[[[[[[[[[[[[[[[[",
"[[[[[[[[[[[[[[[[[[[[[[ui@1,<jmbRQ)(_(_(_ERDBH<2@pu[[[[[[[[[[[[[[[[[[[[[["
};
