/* XPM */
static char *result[] = {
/* columns rows colors chars-per-pixel */
"42 42 226 2 ",
"   c #1C3F1C",
".  c #1E3B21",
"X  c #2C3925",
"o  c #343B2A",
"O  c #4B3A2E",
"+  c #73382E",
"@  c #6D3D35",
"#  c #793B38",
"$  c #1B451A",
"%  c #1E4C1E",
"&  c #1F561C",
"*  c #274B1C",
"=  c #265A1C",
"-  c #29651E",
";  c #2B6C1E",
":  c #32631D",
">  c #2B761E",
",  c #34791E",
"<  c #1E4521",
"1  c #244423",
"2  c #234C23",
"3  c #2A4825",
"4  c #374625",
"5  c #334D23",
"6  c #255325",
"7  c #275727",
"8  c #2D5422",
"9  c #2C5A23",
"0  c #375627",
"q  c #345C23",
"w  c #2E5E32",
"e  c #3D5837",
"r  c #296624",
"t  c #3A6727",
"y  c #346C23",
"u  c #366D29",
"i  c #357B24",
"p  c #387A27",
"a  c #474926",
"s  c #564A2C",
"d  c #465526",
"f  c #445D26",
"g  c #42522A",
"h  c #455C29",
"j  c #57592E",
"k  c #464934",
"l  c #594E33",
"z  c #485932",
"x  c #585334",
"c  c #614B2D",
"v  c #74492E",
"b  c #695A2E",
"n  c #75552F",
"m  c #604E32",
"M  c #774636",
"N  c #6A5637",
"B  c #765636",
"V  c #476727",
"C  c #54692E",
"Z  c #467529",
"A  c #54782E",
"S  c #596833",
"D  c #5A7733",
"F  c #65752F",
"G  c #696734",
"H  c #776738",
"J  c #687535",
"K  c #767536",
"L  c #863439",
"P  c #9C3D34",
"I  c #B13F3D",
"U  c #89473D",
"Y  c #9B4434",
"T  c #9A4B35",
"R  c #86583F",
"E  c #9C5635",
"W  c #A9443C",
"Q  c #B8483C",
"!  c #A65C3A",
"~  c #B8563C",
"^  c #9B6939",
"/  c #927437",
"(  c #AD6B3C",
")  c #EF751E",
"_  c #C24739",
"`  c #C24C39",
"'  c #CA4D3B",
"]  c #D9493D",
"[  c #CF5435",
"{  c #C25439",
"}  c #CB5838",
"|  c #D25B34",
" . c #D85739",
".. c #E65E2B",
"X. c #E24E37",
"o. c #E34E3D",
"O. c #E45936",
"+. c #E5573A",
"@. c #E3533E",
"#. c #E85C38",
"$. c #CC6739",
"%. c #D86937",
"&. c #C2773B",
"*. c #D87437",
"=. c #E9662A",
"-. c #EA6D2C",
";. c #F26E29",
":. c #EA742B",
">. c #EB7B29",
",. c #F47C20",
"<. c #F37529",
"1. c #F27C29",
"2. c #EA6333",
"3. c #EC6B30",
"4. c #E76338",
"5. c #F36D31",
"6. c #E67038",
"7. c #F27230",
"8. c #823940",
"9. c #B92F45",
"0. c #A83644",
"q. c #B43846",
"w. c #C43B46",
"e. c #CD3C46",
"r. c #DC3E44",
"t. c #D43948",
"y. c #8F4D45",
"u. c #994844",
"i. c #8A5645",
"p. c #9A5545",
"a. c #9C5E48",
"s. c #A44547",
"d. c #B94646",
"f. c #A85746",
"g. c #B45747",
"h. c #9D6A44",
"j. c #887A44",
"k. c #9C7C46",
"l. c #A56848",
"z. c #B86847",
"x. c #AC7348",
"c. c #C74546",
"v. c #D24545",
"b. c #DC4245",
"n. c #DA4C47",
"m. c #C55648",
"M. c #D25548",
"N. c #E34F40",
"B. c #E75240",
"V. c #E15A40",
"C. c #CA6846",
"Z. c #C4734E",
"A. c #328419",
"S. c #398427",
"D. c #3D8C24",
"F. c #3A9725",
"G. c #3C8530",
"H. c #3BA226",
"J. c #478529",
"K. c #57852D",
"L. c #459927",
"P. c #4B8630",
"I. c #499530",
"U. c #61882F",
"Y. c #688833",
"T. c #788739",
"R. c #6D9335",
"E. c #7A9838",
"W. c #49A829",
"Q. c #4BB52B",
"!. c #54B82C",
"~. c #5EA832",
"^. c #5AB932",
"/. c #65A63B",
"(. c #78B93A",
"). c #78AE47",
"_. c #819138",
"`. c #A18D38",
"'. c #82A439",
"]. c #F79808",
"[. c #F58B16",
"{. c #F79A10",
"}. c #F59318",
"|. c #F59B19",
" X c #FA9B1A",
".X c #F9A909",
"XX c #FCBD02",
"oX c #FCB50D",
"OX c #FCBC0C",
"+X c #F7A512",
"@X c #F8A412",
"#X c #F6AC11",
"$X c #FCAC12",
"%X c #F5A218",
"&X c #FBA11A",
"*X c #F6B311",
"=X c #FBB511",
"-X c #FDBA11",
";X c #F6B218",
":X c #EF8E23",
">X c #EE812A",
",X c #F58424",
"<X c #F78726",
"1X c #F28923",
"2X c #F19023",
"3X c #FBA020",
"4X c #FDC50A",
"5X c #FECB0A",
"6X c #FFD304",
"7X c #FFD905",
"8X c #FDD30B",
"9X c #FEDB09",
"0X c #FCC411",
"qX c #FFCB10",
"wX c #FFE402",
"eX c #FFEB02",
"rX c #FFE508",
"tX c #FFED08",
"yX c #FFF100",
"uX c #FFF308",
"iX c #8F8F41",
"pX c #988649",
"aX c #A7844D",
"sX c #8AA941",
"dX c #89B548",
"fX c #83C54A",
/* pixels */
"H.7 Q.r p r ; * 0 A F n P _ | >X|.4X5XeXwX9XeX5X+X}.-.[ _ Y v O k 4 o X X 6 % % % 2 ",
"F.& Q.^.6 r J.5 y g s n E ` $.:.%XOX5XwXrXwXeX4X#X}.-.$.~ Y + s I.0 0 8 2 - 6 % % $ ",
"D.F.H.W.r u i 0 V d l v / $. .:.%X0X5XeXwXwXeX4X+X}.-.| { Y + U./.I.q y w W.= W.F.6 ",
"i D.F.L.D.8 Z Z ^.m N i.s.'  .<.%X5X9XwXwXwXwX4X+X[.-.' ' s.L J Y./.J.h = i r >   F.",
"S.> , u G.q f f (.G M L W '  .>.%X5X9XeXeXwXwX4X@X}.-.M.C.Q i.B G l C g t q G.i i i ",
"y , L.S.D.h A fXdX8.a.0.c.n.4.1X#X8XrXwXeXeXwX5X@X}.-.+.4.d.s.i.i.E.l O h 5 = - W.- ",
"y S.u V K.j (.'.U a.0.Z.v.B.#.1X0XrXrXeXrXeXeX5XoX+X1.#.B.e.d.0.Y iXB @ j Z J.p p p ",
"y : u 0 C J sX'.p.9.Z.w.r.2.7.|.0XwXeXwXeXeXeX8X4X$X<X5.4.r.c.d.x.k.i.# j C 4 D.5 0 ",
"J.V P.a S J h.k.0.Z.M.b.B.<.<X|.4XeXeXeXeXeXyXtX8X4X X7.5.V.b.e.C.g.u.8.K S P.4 q u ",
"a P.~.l N i.h.0.m.n.o.B.5.<X%X=X4XwX7XeXeXeXeXeXrX9X=X%X,X3.@.n.n.w.q.p.i.N D K.V ~.",
"c U.R.M B u.9.m.t.B.2.<. X=X=X4XwXeXyXeXyXyXyXyXyXyXrX=X-X X1.@.V.t.w.d.u.M J m R.c ",
"v H T.L y.0.d.w.r.#.<.<. X=X5XrXyXeXyXyXyXyXyXyXyXyXrX5X-X X<.2.N.r.e.q.0.i.M K n K ",
"Y Y / W Q c.v.n.B.5.<X3X5XuXyXyXyXyXyXyXyXyXyXeXyXyXuXyXtX5X&X<X;.@.r.e.c.( ^ T `.^ ",
"Q { { _ _ ] o.4.7.<X=X=XuXtXeXuXyXyXyXyXyXyXyXyXyXyXyXeXtXtXOX&X<X<.2.B.+.[ &.~ &.{ ",
"$.[ %.[ ] O.+.7.<X;X0X8XuXuXyXyXyXyXyXyXyXyXyXyXeXyXyXyXyXeX5X%X;X1.1.4.4.%.*.| %.$.",
"-.:.-.:.-.3.1.<X3X0XtXtXeXyXyXyXyXyXyXyXyXyXyXyXyXyXuXyXyXuXtX8X-X3X&X2X1X>.>X) >X>X",
"}.[.}.}.}.}.#X;X0XtXyXuXyXyXyXyXyXyXyXyXyXyXyXyXyXyXyXyXyXyXyXrXrX8XqX4X#X%X%X%X%X%X",
"oXoXoXoXoXOX8X9XtXyXyXyXyXyXyXyXyXyXyXyXyXeXyXyXyXyXyXyXyXyXyXyXuXtXtXtX8X5X0X5X0X5X",
"4X5X4X4X5X6X8XrXtXeXyXyXyXyXyXyXyXyXyXyXyXyXyXyXyXyXyXyXyXyXyXuXuXeXtXtXtX9X9X9X9X9X",
"eXeXeXwX7XeXeXyXyXuXyXyXyXyXyXyXyXyXyXyXyXyXyXyXyXyXyXyXyXyXyXyXyXyXyXeXtXtXeXeXwXrX",
"7XwX7XeXwXeXyXyXyXuXyXyXyXyXyXyXyXyXeXyXyXyXyXyXyXyXyXyXyXyXyXyXyXyXyXyXeXwXwXwXwXwX",
"wXrXwXeXeXeXuXyXyXyXyXyXyXyXyXyXyXyXyXyXyXyXyXyXyXyXyXyXyXyXyXyXyXuXuXeXeXeX7XwXwXwX",
"wXeXwXeXrXeXuXyXyXuXyXyXyXyXyXyXyXyXyXyXyXyXyXyXeXyXyXyXyXyXyXyXyXyXeXwXwX7XwXeXwXeX",
"8X5X4X9X9XtXeXtXtXyXyXyXyXyXyXyXyXyXyXyXyXyXyXyXyXyXyXyXyXyXyXyXeXwXwX5X5X6X5X5X5X5X",
"#X#X*X=X*X4X8XrXrXrXuXyXyXyXyXyXyXyXyXyXyXyXyXyXyXyXeXyXyXyXyXwX6XOXOXoX@X@X@X@X#X#X",
"|.|.%X+X%X*X0XqXqXrXrXyXyXyXyXyXyXyXyXyXyXyXyXeXyXyXyXyXyXyXeX6XXX$X$X@X}.}.}.}.|.|.",
">.>.>.1.>.:X:X|.|.-X8XrXyXyXyXyXyXyXyXyXyXyXyXyXyXyXyXuXeXeX6X.X.X[.,.<.<.-.:.:.:.:.",
"[ | [  . .4.4.7.1X%X-X5XuXyXeXuXyXeXyXyXyXyXyXyXyXyXyXyXwX6XXX].].;.<.O.O.%.} M.$.' ",
"{ { ` [ $.B.N.2.<.<XOXOXuXuXyXyXyXyXyXyXyXyXyXyXyXyXyXeXrX5X].[.) =.O.@.] ' { _ &._ ",
"P T E ! x._ v.b.@.;.<X X5X9XeXuXyXyXyXyXyXyXyXyXeXeXeXeXrXoX.X) =.o.b.v.c.W ! E ^ P ",
"M M H R i.f.d.v.r.X.<.<.|.=X8XtXyXyXyXyXyXyXyXyXwXwX5XXX.X{.) ..X.n.w.c.0.R _.+ n v ",
"k l d N T.y.0.9.t.] X.2.,. X%X8XeXyXyXyXyXeXeXeX6X4X#X{.}.) ..] ] M.z.s.U T.R.s d A ",
"z g 0 (.G # p.I w.] O.X.-.,X|.-X9XyXyXyXyXeXeXwX6X5X.X{.,X-.X.r.] m.g.h.iXG C h ^.Z ",
"z 0 q C R.K R aXg.m.t.b.o.;.7. X4XeXtXeXrXwXwXwX8XOX}.<.<.B.b.e.c.x.p.y.M j h t ^.!.",
"5 q , 4 ~.G M sXp.d.m.c.b.#.7.<X#X8X9XeXyXwXwXwX8X-X|.1.4.n.C.g.g.aX# '.b h q Q.L.W.",
": A.3 4 J.U.N _.i.u.g.d.v.N.#.>X+X5X5XwXeXwXwXrX8XOX1X3.B.M.g.x.l.pXK E.F h 0 Q.L.L.",
"> * ; 3 p P.C Y.B U u.l.c.] O.3.}.OX6XwXwXwXwXrX0X#X1X6.@.m.l.k.j.H R.C d 5 = i , W.",
"1 H.3 9 0 e V K.).T.B iXW C. .-.[.oX4X7XwXeXeX9X*X%X>X*.{ ~ / H N D /.g 4 q S.S., * ",
"S.1 6 2 7 p q Z Z h E.v ( { [ -.}.oX4XeXwXwXeX9X*X%X>X*.{ W K c x k I.o 6 1 S.r r $ ",
"w r < < = i 8 S.L.K.F K ^ ~ *.:.}.oX4XwXwXrXrX4X*X%X>X%.` T K s V p 4 w 3 * 2 r . < ",
"7 p 6 = = y q A.4 A F n `.&.[ -.}.OX4XeX7XrXwX6X=X%X>.| ` E B K.z 4 e o S.* 7 . . 2 ",
"% 7 = ^.= ; 5 , q V b E.^ _ [ -.}.oX5XeXrXwXwX6X*X%X>.} ` E M x O e X X * 2 $ < w 2 "
};
