/* XPM */
static char * Explosion_xpm[] = {
"42 42 82 1",
" 	c None",
".	c #E75142",
"+	c #E75939",
"@	c #F78229",
"#	c #F79C19",
"$	c #FDC50B",
"%	c #FED40A",
"&	c #FFE402",
"*	c #FFE508",
"=	c #FFEB02",
"-	c #FECB0A",
";	c #F9AB0D",
">	c #F79418",
",	c #F4742B",
"'	c #E75539",
")	c #ED4C41",
"!	c #F47B2A",
"~	c #FCBB0C",
"{	c #FFDC05",
"]	c #F9A512",
"^	c #F36B31",
"/	c #E64B43",
"(	c #F7A318",
"_	c #FFCB10",
":	c #F26E2C",
"<	c #EC5F37",
"[	c #E44646",
"}	c #EF5939",
"|	c #FEDB09",
"1	c #F78D18",
"2	c #E43C4B",
"3	c #DE3352",
"4	c #DD2C54",
"5	c #EF5142",
"6	c #EF6139",
"7	c #F68B22",
"8	c #F7AC10",
"9	c #FBAC11",
"0	c #EA4547",
"a	c #D8265D",
"b	c #E2344C",
"c	c #F16333",
"d	c #F69222",
"e	c #FFD304",
"f	c #F98628",
"g	c #F77231",
"h	c #E93D47",
"i	c #EC4E3E",
"j	c #FCC411",
"k	c #FB9C1B",
"l	c #D8285D",
"m	c #ED513E",
"n	c #F98624",
"o	c #F7B218",
"p	c #FFF100",
"q	c #FBB511",
"r	c #FCA11A",
"s	c #FFED08",
"t	c #FFF308",
"u	c #FDBA11",
"v	c #EF6929",
"w	c #FCA020",
"x	c #FFBA18",
"y	c #F7B210",
"z	c #F7AC18",
"A	c #FCB60C",
"B	c #F9A705",
"C	c #F1751E",
"D	c #FCBD02",
"E	c #F79208",
"F	c #EC5734",
"G	c #F79E08",
"H	c #F48913",
"I	c #EF6329",
"J	c #E94D37",
"K	c #EF7121",
"L	c #EC5F2C",
"M	c #E63C44",
"N	c #F67D21",
"O	c #F79C10",
"P	c #F15F34",
"Q	c #F15D39",
"             .+@#$%&*&=-;>,')             ",
"             .+!#~%&*{=$]>^'/             ",
"             .+!(_$&*&&$]>:</             ",
"            [.}!($|&&=&$]1:./2            ",
"            3.}!($|==&{$]>:./2            ",
"           425678%*=&=&-9>^}024           ",
"          44[567~**====-~9!})24a          ",
"         4bb2c!d$&&====e$9fg52b44         ",
"        44bhi,@#j&&&===*|$kg^)hb4l        ",
"       44hm5^n(o-&{=p===*|o(!^mhh44a      ",
"      l4b)c,kqo-&pp=pppppp*oqk,iib44      ",
"     43bh5!!kq-|==pppppppp*%q#!cihb44     ",
"   22222)^fr-spptpppppppppspt$r1,)0222    ",
"/i//[056gfuustppppppppppppppstur1,655....'",
"''<..}}^f9u%tptppppppppppppppp%((!!66}}}++",
":,:::v@@wxsspttppppppppppptppp*%owwdd!!!!!",
">1>1>>9ojsptpppppppppppppppptpp**%jjy((zr(",
"yAAAA~%%s=ppppppppppppppppppptp=ptss|-$-j$",
"-$$-$%esstptpppppppppppppppppppttssss|||%{",
"==&&&&pppppppppppppppp=pppppppppppp=sss=*=",
"{{{&==sppppppppppppppppppp=ppppppptp==&&&&",
"&&*=&==ppppppppppppppppppppppppppt=p==&&**",
"&&&=&=spppppppppppppppppppppppppppp=|&&&&&",
"--$||sssstpspppppppppppppppppppp=&{--e----",
"88yoyj%**tpptpppppppppppppppppp&e~~A;(]]]9",
"##((zojjj==sppppppppppppp=pppppe$899>>>>#>",
"!,!!!dd##o%*tppppppppp=pppppppeBB1C,!!v:!,",
"++}}}66g@(o%tpptpppppppppppp&{DEEg:F}...+'",
".....556gn~utttpppppppppppp=*-GHCIFi0[/[//",
"   2[2[2):1r-|pppppppppp===&&AGCIJ222[    ",
"     43bh},,k;%*tppppppp&&-D8>KLJMb34     ",
"      l4bMJcN>(-*pppp===e$;O>CLJMb4l      ",
"       44MmJ:C(u&ppp===&e$;OKv'MM44       ",
"        44bhi^gr$*s=s&&&ey#,,iMb44        ",
"         443hmg78%%==&&&{y>,P2b44         ",
"         l4325Q!9--&=&&*|j765h4ll         ",
"           l2)}^>A-{&&&*j876524           ",
"            2/':1A${&=={q(!}.2            ",
"             /':>A$&{&=|q(!}.             ",
"             /':1A$&&*&$y(!+.             ",
"             /'^>A-=*&&%8(!+.             ",
"             )',>A$=*&&-o(!'.             "};
