/* XPM */
static char * Purple_Nebula_08_xpm[] = {
"42 42 237 2",
"  	c #1C3C83",
". 	c #15387C",
"+ 	c #243483",
"@ 	c #233B85",
"# 	c #153D81",
"$ 	c #183480",
"% 	c #062569",
"& 	c #04195E",
"* 	c #04145A",
"= 	c #041C62",
"- 	c #141D6B",
"; 	c #0C1B65",
"> 	c #231D72",
", 	c #24257B",
"' 	c #30277E",
") 	c #192A78",
"! 	c #373C94",
"~ 	c #4B4B9D",
"{ 	c #5453AB",
"] 	c #5B4BAC",
"^ 	c #3B539C",
"/ 	c #5262AD",
"( 	c #4959A7",
"_ 	c #4A63AC",
": 	c #4454A3",
"< 	c #534BA5",
"[ 	c #3B4B95",
"} 	c #434B9C",
"| 	c #333B8C",
"1 	c #14347B",
"2 	c #2B3385",
"3 	c #093577",
"4 	c #22327D",
"5 	c #2C3B8B",
"6 	c #7489B8",
"7 	c #030E56",
"8 	c #06135B",
"9 	c #18226E",
"0 	c #1B1E71",
"a 	c #28347D",
"b 	c #36378A",
"c 	c #4C44A2",
"d 	c #5252A6",
"e 	c #42539E",
"f 	c #435BA4",
"g 	c #4B53A4",
"h 	c #47549D",
"i 	c #51479D",
"j 	c #424596",
"k 	c #1B337D",
"l 	c #1C2C7B",
"m 	c #1C3582",
"n 	c #0C236B",
"o 	c #14226D",
"p 	c #1B2373",
"q 	c #2A3A86",
"r 	c #344493",
"s 	c #4C54AA",
"t 	c #345A9D",
"u 	c #3C5CA3",
"v 	c #33438D",
"w 	c #3C3C93",
"x 	c #252C81",
"y 	c #2D3489",
"z 	c #0C2C72",
"A 	c #152572",
"B 	c #38448E",
"C 	c #2C438C",
"D 	c #335196",
"E 	c #395AA5",
"F 	c #2C549A",
"G 	c #34549B",
"H 	c #3C63AA",
"I 	c #2C2B83",
"J 	c #334B94",
"K 	c #4C4BA4",
"L 	c #3A599E",
"M 	c #5364B3",
"N 	c #33348B",
"O 	c #232B7D",
"P 	c #132B75",
"Q 	c #5C54B3",
"R 	c #4C5CAB",
"S 	c #4A439D",
"T 	c #5846A7",
"U 	c #151C6A",
"V 	c #2B4C93",
"W 	c #535BAC",
"X 	c #635AB5",
"Y 	c #6B5BBC",
"Z 	c #6353B4",
"` 	c #5959AC",
" .	c #5B53AC",
"..	c #6254AE",
"+.	c #6A54B5",
"@.	c #3A338D",
"#.	c #342D8A",
"$.	c #2A257D",
"%.	c #23448B",
"&.	c #4C64B2",
"*.	c #445CA9",
"=.	c #5B63B4",
"-.	c #4B3B9C",
";.	c #4B3395",
">.	c #3B2C8C",
",.	c #442D92",
"'.	c #1B4286",
").	c #345CA2",
"!.	c #4969B2",
"~.	c #6463BC",
"{.	c #6766BC",
"].	c #7364C5",
"^.	c #5344A4",
"/.	c #DADCE9",
"(.	c #432C8D",
"_.	c #8572BA",
":.	c #393391",
"<.	c #3C449A",
"[.	c #4462AB",
"}.	c #624BAE",
"|.	c #6C6AC4",
"1.	c #7566C6",
"2.	c #706DB7",
"3.	c #372784",
"4.	c #544CAA",
"5.	c #3863A6",
"6.	c #4564A9",
"7.	c #5968B8",
"8.	c #44439C",
"9.	c #3B4494",
"0.	c #746BCA",
"a.	c #6669C2",
"b.	c #3B4C9C",
"c.	c #243C89",
"d.	c #4C349B",
"e.	c #644CB2",
"f.	c #5C5BB4",
"g.	c #645CBA",
"h.	c #444CA2",
"i.	c #3C54A2",
"j.	c #6C64C2",
"k.	c #8874D8",
"l.	c #7671CC",
"m.	c #7656BE",
"n.	c #8566CE",
"o.	c #7C64CA",
"p.	c #3C3492",
"q.	c #A7A7CE",
"r.	c #5B3BA4",
"s.	c #6555B9",
"t.	c #8363CD",
"u.	c #8B66D3",
"v.	c #8B6BD5",
"w.	c #7B6BCD",
"x.	c #2C2883",
"y.	c #4D3CA1",
"z.	c #7B5BC4",
"A.	c #7353BD",
"B.	c #443C9A",
"C.	c #56379D",
"D.	c #6B4BB5",
"E.	c #7746B9",
"F.	c #744CBA",
"G.	c #846CD2",
"H.	c #4D3095",
"I.	c #5C44AB",
"J.	c #5857B4",
"K.	c #9669D9",
"L.	c #9256CD",
"M.	c #8655C8",
"N.	c #4B2E94",
"O.	c #643CAB",
"P.	c #6943AD",
"Q.	c #6C44B2",
"R.	c #6C54BA",
"S.	c #8B5BCC",
"T.	c #745BC2",
"U.	c #543CA2",
"V.	c #7970CF",
"W.	c #9871E1",
"X.	c #AA71E9",
"Y.	c #A45BDA",
"Z.	c #975AD3",
"`.	c #5C34A2",
" +	c #322A85",
".+	c #7343B5",
"++	c #8344BD",
"@+	c #6344AD",
"#+	c #7B55C2",
"$+	c #9473DD",
"%+	c #A577E9",
"&+	c #914ECB",
"*+	c #6A36A9",
"=+	c #53349C",
"-+	c #453699",
";+	c #783BB3",
">+	c #874AC3",
",+	c #7B4BBD",
"'+	c #845CCA",
")+	c #6C3BAF",
"!+	c #6B3BAC",
"~+	c #913EC1",
"{+	c #853BBA",
"]+	c #7536AC",
"^+	c #A49CD4",
"/+	c #433B95",
"(+	c #5B4AB0",
"_+	c #A265DD",
":+	c #6334A5",
"<+	c #633AA4",
"[+	c #9978E4",
"}+	c #433394",
"|+	c #7D4CC1",
"1+	c #5E2FA0",
"2+	c #354599",
"3+	c #2C4492",
"4+	c #344C9A",
"5+	c #3D4DA1",
"6+	c #545BB2",
"7+	c #5D4DB1",
"8+	c #27458A",
"9+	c #2B5296",
"0+	c #4E5DB1",
"a+	c #244D91",
"b+	c #1E5292",
"c+	c #245394",
"d+	c #265899",
"e+	c #4949A5",
"f+	c #1D4489",
"g+	c #2E5EA0",
"h+	c #1A4B8C",
"i+	c #234A8E",
"j+	c #3062A4",
"k+	c #2A4995",
"l+	c #2C5B9C",
"m+	c #184588",
"n+	c #042A6D",
"  .     + @ .   # #   $ % & * * = = - ; - > , ' ) ! ~ { ] ^ / / ( _ : : < ~ [ } | . ",
"  1 2 3 + 4 @ 5 $ 6 # ) = * * * * = 7 8 ; 9 0 9 a b c { d e f f _ : [ g h < i j | . ",
"k 2 2 l k 2 1 5 1 m n o p = 8 * 8 * 8 & o 9 9 4 q r d d s ^ t u _ e e e v j i w k 1 ",
") + k l l x y 5 $ z z ; = 0 - * * = 8 8 ; A 5 B C [ D ^ s E F G H _ _ ^ C | | y k 2 ",
"k k q l x I x m l 1 n = ; & - ; & % * & n ) C J J ^ f ^ D K ^ L M / ^ [ [ J j N 4 | ",
". l 4 l l O x x P m z z ; ; - ; = & % z 1 J J G L G f g g s Q R d < d h ~ K d S T < ",
"N + O ) p A l I y m P n p 0 U - - % % z . V V G t L W X Y Z s ` [ g d ` ( W  ...+.j ",
"b N @.- U p p I #.I ) , , I - 0 $.) z   %.V t &.*.f =.d X  .g d } {  . .W / =.W Z -.",
"< ;.2 l p p , $.#.#.>.,.>.I I O ) #.+ '.V t ).!.!.( ~.X Z Z  .Z d < K } : {.].~.W d ",
"^./.+ P l l p , p p $.>.(._., I @.:.<.r e [.u [.M _ X X d K c }. .] Z W W |.1.2.].Y ",
"~ q | m o - - 9 o - o I >.3., ;.-.-.S 4.R M !.5.6.7._ 8.S b b 5 9.-. . .` ~.0.{.7.a.",
"b.+ c.1 ; - ; ; = - o , , , #.#.d.-.e.f.g.].{._ 5._ F 3 q P k l 5 b w h.} f.|.a.|.=.",
"i.c.w l p p 9 - ; o o p , p x w w ^.K =.].|.].: J i.V . @ z n ) x N @.! K { j.k.l.~.",
"R h.5 y , $.$.A n ) , O p ) ! c T m.n.j.j.o.Y } w q J   k l A O @.p.q.r.}.s.t.u.v.w.",
"].s c @.x.$., x 2 x y y.! <.s j.|.o.u.z.z.A.+.c B.p.y @ b I #.I C.C.D.E.m.F.A.m.G.G.",
"o.j.+.r.p.>.,.H.#.:.B.^.I.J.=.w.k.K.K.L.M.z.z.c ,.N.>.>.p.-.>.>.r.O.P.D.D.D.Q.Z Y R.",
"S.v.T.A.}.U.I.T B.-.p.y.T g.a.V.k.W.X.Y.Z.E.F.}.`.(. +$.3.>.@.#.U.D.}..+++.+Q.D.@+D.",
"F.z.#+Y ] ] F.F.] y.;.;.w s Y /.$+%+W.X.Y.&+F.r.*+=+>.I (.(.-+8.+.Z D.I.;+>+;+++.+,+",
"#+M.'+Y D.e.D.R.s..+-+B.^.< s.].k.X.%+K.S.M.,+)+d.p.;.H.>.H.,.I.] Z e.!+~+~+{+{+*+.+",
"M.S.S.m.F.>+@+y.T F.r.U.4.s.4.Y K.$+$+t.,+r.)+O.=+;.;.;.H.;.,.C.4.e.e.E.>+{+]+]+^+++",
"M.S.'+F.F.E.)+r./+^.(+I.e.s.g.z._+K.K.M.] d.`.*+!+r.r.r.d.=+>.=+}.A.M.++{+;+]+]+;+)+",
"&+S.t.#+#+E.Q.,+e.K e.4.(+Z '+S.$+$+K.z.4.p.H.,.:+<+r.O.C.C.d.d.E.Z.Z.++)+]+C.:+]+{+",
"#+S.S.t.m.,+A.D.@+] ] T 4.e.z._+[+%+$+n.] p.>.#.>.O.C.!+<+!+:+:+,+S.&+>+{+!+`.:+:+E.",
"'+z.S.#+z.Y e.D.z.R.,+}.F.R.o.u.V.a.V.n.s.^.w I p.U.-.<+]+C.*+{+Z.M.,+>+;+r.O.:+`.Q.",
"D.s.A.S.M.o.T.m.z.o.z.#+Y z.G.$+T.~.l.1.f.T w d.-+-+B.}+=+]+*+>+L.L.|+)+)+=+*+1+=+e.",
"T ] D.D.s.Z I.e.z.o.j.o.1.o.W.k.w.V.w.j.f.J.Q B.c d./+d.;.*+)+M.Z.M.&+)+r.d.r.r.B.< ",
"c q./.F.z.e.^.T T ] f.].].o.$+[+k.a.|.0.|.|.z.Q 4.r.;.r.`.)+)+#+'+z.Z c ] -.w 4.-.h.",
"2+<.<.h.f.}.^.8.S < Y /.Y k.[+%+%+$+o.k.0.|.j.T.+.] c U.D.@+T R.s.s : b.! 3+2+4+3+D ",
"b.5+2+h.f.I.c h.Q J.6+].G.V.[+k.[+G.t.].1.w.Y Y R.7+4.] 4.7+Q g.Z g h.9.3+3+2+4+8+b.",
"9+i.: 0+J.K K (+4.4.b.f.].|.V.V.k.o.o.T.o.'+,+] c T Y Z s.J.s J.{ { <.<.3+a+a+b+c+F ",
"d+/.E H E i.b.Q 4.e+s ^ R M w.l.|.T.g.{ Z s.K 8.S T e. .Z J.T.Q ~.s F b.F f+9+b+b+f+",
"F 5.g+H u F 4+{ f.s G u R ( 7.7.~.=.: } h.] Z ^.-.] I.] 4.] D.4.Q 6+i.c+b+V V c+c+h+",
").H [.!.u ).b.4.d { 6+: R ~._ W [.M i.b.8.w ^.-.B./+c 4.D.}.c K h.8.i.9+a+c+F c+c+d+",
"5.&.!.H !.E : : 4+s *.G &.M 7.R i.s i.3+5 w B.}+}+C.C.] ^.K < ~ ^.w @ 3+i+9+D V 9+t ",
"F H ).g+H /.F ^ i.*.[.H j+j+R M W h.k+3+r r 2 2 ,.B.-.T ~  .g c /+S y r 9.^ G u D F ",
": 5.M ).g+d+d+G E *.[.!.5.R f : 4+r i+C @ k N b b @.^.^.X T. .9.8.j C | b v G G G L ",
"f _ f F l+l+c+c+f i.f u M *.u f 4+C @ # y 2 b y y p.8.f.g.f.< g K 8.8+C r r [ : f [.",
"5.i.l+).d+d+F i+a+J J : W d ^ V V '.1 3 k P 4 + q C g : W f.Y  .K h.8+v v 9.j ~ L _ ",
"G 9+9+F d+c+h+a+4+} J b.h.c.  @ 8+    1 P , O -.-.b j K d =._ g.W : s 9.9.B j B ^ L ",
"D V i+i+f+f+V 9+C c.a+8+# 3 3 z z z 5 a n n O 4 N S ~ g ^ =.!._ [.=.: j ~ [ v B 9.v ",
"@ @ i+'.'.. 3+m+'.  # # 3 n+z n+% % | l o ; ) I y /+Z c b.f !.!.[.[._ : 6 <  .j v V ",
"%..   '.  # # m+m+'.'.3 % n+n+% % ; ) o ; = A ' 2 !  .<  .W 6.M ( *.R d  .< S < 8.q "};
