/* XPM */
static char *result[] = {
/* columns rows colors chars-per-pixel */
"24 24 15 1 ",
"  c white",
". c #484848",
"X c #373534",
"o c #686868",
"O c #222329",
"+ c gray35",
"@ c #DDDDE8",
"# c gray98",
"$ c #FDE2D4",
"% c #6F5850",
"& c #EFBD9F",
"* c #885137",
"= c #9AA5AF",
"- c #55423C",
"; c #B37B5A",
/* pixels */
"            XXX         ",
"         XXXoooX        ",
"       XXoooooooX       ",
"      X++++..+oooX      ",
"      X+......+oo=OO    ",
"      X.......+oo#ooO   ",
"      X.......###ooO    ",
"     O=...@@@#oooXO     ",
"    O+.=@@ooooXXX%X     ",
"   O+.....XXXX#X&X      ",
"    OOOOXXX&%O#.$;      ",
"      X-%-X&%&$$$;      ",
"      X%--XOX*&&;       ",
"       O--O=@=O         ",
"        OOO@##.         ",
"          O=@#@.        ",
"          .*$$*O        ",
"         O@*&$*O        ",
"         Oo@**oX        ",
"        OX.+ooo.X       ",
"         O..+o.X        ",
"          O$$&          ",
"          O%%%          ",
"           OOO          "
};
