/* XPM */
static char *result[] = {
/* columns rows colors chars-per-pixel */
"24 24 15 1 ",
"  c white",
". c #373534",
"X c #686868",
"o c #222329",
"O c #484848",
"+ c #DDDDE8",
"@ c gray98",
"# c #9AA5AF",
"$ c gray35",
"% c #FDE2D4",
"& c #6F5850",
"* c #EFBD9F",
"= c #885137",
"- c #55423C",
"; c #B37B5A",
/* pixels */
"          ...           ",
"         .XXX...        ",
"        .XXXXXXX..      ",
"       .XXX+OO$$$$.     ",
"     oo#XX#@+O++O$.     ",
"    oXX@XX#+@+@@+O.     ",
"     oXX@@@#+#@#OO.     ",
"      o.XXX@#+#OOO#o    ",
"      .&...XXXX++#O$o   ",
"       .*.@....OOOOO$o  ",
"       ;%O@o&*...oooo   ",
"       ;%%%*&*.-&-.     ",
"        ;**=.o.--&.     ",
"          o#+#o--o      ",
"          O@@+ooo       ",
"         O+@+#o         ",
"         o=%%=O         ",
"         o=%*=+o        ",
"         .X==+Xo        ",
"        .OXXX$O.o       ",
"         .OX$OOo        ",
"           *%%o         ",
"           &&&o         ",
"           ooo          "
};
