/* XPM */
static char *_8ba85aa3f8a4a9fb2a1c19e15048f26SjkR0w8717KoeJDf[] = {
/* columns rows colors chars-per-pixel */
"42 42 172 2 ",
"   c #182B17",
".  c #193517",
"X  c #133E10",
"o  c #183C17",
"O  c #1B351B",
"+  c #1B3C1B",
"@  c #203F1F",
"#  c #1D3222",
"$  c #1E3B21",
"%  c #222329",
"&  c #223C24",
"*  c #383534",
"=  c #194615",
"-  c #144813",
";  c #1A4916",
":  c #1C441C",
">  c #1E4B1C",
",  c #155415",
"<  c #1C5516",
"1  c #175E13",
"2  c #1D5C14",
"3  c #1E531B",
"4  c #1E5B1C",
"5  c #21441E",
"6  c #214C1E",
"7  c #284D1E",
"8  c #205D17",
"9  c #23531D",
"0  c #235C1E",
"q  c #285B1E",
"w  c #1B620F",
"e  c #1F631A",
"r  c #226E16",
"t  c #24641D",
"y  c #2A641D",
"u  c #246A1D",
"i  c #296D1E",
"p  c #25711D",
"a  c #2B741D",
"s  c #267B1E",
"d  c #2D7B1D",
"f  c #30771F",
"g  c #317D1E",
"h  c #387C1F",
"j  c #1E4521",
"k  c #1E4A21",
"l  c #224422",
"z  c #234C22",
"x  c #234328",
"c  c #254C29",
"v  c #284C2D",
"b  c #245323",
"n  c #295624",
"m  c #255B22",
"M  c #295C24",
"N  c #26552A",
"B  c #29542D",
"V  c #2A5B2C",
"C  c #2C5832",
"Z  c #335E3A",
"A  c #1F6220",
"S  c #266322",
"D  c #2A6324",
"F  c #256C22",
"G  c #2B6C23",
"H  c #276228",
"J  c #2B632B",
"K  c #2D6C2B",
"L  c #326E23",
"P  c #31652D",
"I  c #316C2A",
"U  c #277320",
"Y  c #2C7424",
"T  c #2D7B23",
"R  c #2E752A",
"E  c #307425",
"W  c #327C24",
"Q  c #32742B",
"!  c #337B2A",
"~  c #397B2D",
"^  c #2C6330",
"/  c #2F6C30",
"(  c #306234",
")  c #337335",
"_  c #387331",
"`  c #347C31",
"'  c #55423C",
"]  c #484848",
"[  c gray35",
"{  c #6F5850",
"}  c #686868",
"|  c #885137",
" . c #268514",
".. c #2C831C",
"X. c #2F8F1D",
"o. c #318F17",
"O. c #32841F",
"+. c #328B1E",
"@. c #37951E",
"#. c #38941F",
"$. c #35991D",
"%. c #3EA51E",
"&. c #2E8123",
"*. c #2F8924",
"=. c #348324",
"-. c #398123",
";. c #368C23",
":. c #3A8C24",
">. c #36842B",
",. c #39822B",
"<. c #368C2C",
"1. c #3A8E2D",
"2. c #359422",
"3. c #3B9424",
"4. c #369922",
"5. c #3C9B24",
"6. c #3C962A",
"7. c #3E992D",
"8. c #3E8130",
"9. c #3C8934",
"0. c #3E9836",
"q. c #37A023",
"w. c #3CA226",
"e. c #3DA52D",
"r. c #3DAD2A",
"t. c #3DA632",
"y. c #48BB1F",
"u. c #428D2C",
"i. c #429C27",
"p. c #44962D",
"a. c #449B2B",
"s. c #428B39",
"d. c #469735",
"f. c #449E32",
"g. c #429338",
"h. c #43A323",
"j. c #48A024",
"k. c #44AA25",
"l. c #45A22D",
"z. c #45AB2C",
"x. c #4AA92A",
"c. c #4AAB2C",
"v. c #51AF25",
"b. c #43B323",
"n. c #4BBE25",
"m. c #47B229",
"M. c #4AB52B",
"N. c #4BBA2C",
"B. c #51BA2B",
"V. c #46A431",
"C. c #4BA633",
"Z. c #4EA830",
"A. c #4DAD3B",
"S. c #53A739",
"D. c #54AF3A",
"F. c #4FBF32",
"G. c #54B435",
"H. c #53BA33",
"J. c #55B839",
"K. c #4FC52B",
"L. c #53C42C",
"P. c #58CA2C",
"I. c #5EC436",
"U. c #65C93F",
"Y. c #61B941",
"T. c #64C049",
"R. c #6ED345",
"E. c #9AA5AF",
"W. c #EFBD9F",
"Q. c #FDE2D4",
"!. c #DDDDE8",
"~. c gray98",
/* pixels */
"w.N N.i R S r = m ! T 0 O $ m * * * * * * * * * * N.O 9 l l 6 $ v & $ $ $ b > > > l ",
"5.3 B.G.b G ;.6 i b > b V k 0.* * * * * * * * * * + 9 ! J l l - w.m N 0 z e N z z : ",
":.2.k.Z.i K a m a < 9 m * * * } } } } } } } } } } * * * * l l >.D.5.m G M r.0 k.6.3 ",
"W :.3.p.:.b T a N.m * * [ } } } } } } } } } } } } } } [ [ * c ! <.D.;.M 2 W H a + 7.",
"=.a d I >.4 t 1 P.K * * [ } } } } } } } } } } } } } } [ [ * H G D > Y b t 0 ,.W W g ",
"i a 5.=.*.0 s R.U.l * * [ } } } } } } } } } } } } } } [ [ * m u S V.6 = m 3 0 t c.t ",
"G =.i i >.m L.y.2 G * * [ } } } } } } } } } } } } } } [ [ * b N 0 b.m : m Y =.T g d ",
"a t Y 9 Y >.I.n.* * E.E.] [ [ [ [ [ [ [ [ [ [ [ [ [ [ ] ] E.* * 5.5.G j t G z +.z n ",
";.D <.; G +.:.* ] ] !.!.] ] ] ] ] ] ] ] ] ] ] ] ] ] ] ] ] !.] ] * * z > T D =.7 0 D ",
"6 9.c.b n D =.* ] ] !.!.] ] ] ] ] ] ] ] ] ] ] ] ] ] ] ] ] !.] ] * * N S ( n ! <.i m.",
"b 2.l.l D * * } } } [ [ !.] ] ] ] ] ] ] ] ] ] ] ] ] ] !.!.[ } } } } * V q 6 T z i.9 ",
"9 G 3.5 V * * } } } [ [ !.] ] ] ] ] ] ] ] ] ] ] ] ] ] !.!.[ } } } } * = l Y b =.0 ;.",
"> > =.> : * * } } } } } [ !.!.~.~.~.~.~.~.~.~.~.~.!.!.[ [ } } } } } * & K T Y 9 z.-.",
"l m ! z l & > * ] ] [ [ [ [ [ [ [ [ [ [ [ [ [ [ [ [ [ [ [ [ ] ] * * R N >.4 F.D k.0 ",
"Y m T : . 6 u * ] ] [ [ [ [ [ [ [ [ [ [ [ [ [ [ [ [ [ [ [ [ ] ] * * v S Y 2.w.9 5.=.",
"b 0 ,.l.w : S X.* * * * ] [ [ [ [ [ [ [ [ [ [ [ [ [ [ ] ] * * * 7.> 1.` m T z.0 5.v.",
"< 0 u > I.z D o.* * * * ] [ [ [ [ [ [ [ [ [ [ [ [ [ [ ] ] * * * l r.J.Q : z T < t ;.",
"~ b > 6 B.3 =.l.* * ' ' { * * * * * * * * * * * * * * { { ' * * b V T 4.> k 0.9.C.;.",
",.z M 0 ..k.W $.* * ' ' { { { { { { { { { { { { { { { { { ' * * S.t V d.6.3 <.9 =.p.",
",.> D S W h.:.:.* * ' ' { { { { { { { { { { { { { { { { { ' * * 5.p.S o >.a e =.> ! ",
"y D m D m.G W * ' ' ' ' ' { { ' ' { { { { { { { ' { { { { ' ' ' * * W : W y 0 8.a i ",
":.I 0 x.#.D y * ' ' ' ' ' { { ' ' { { { { { { { ' { { { { ' ' ' * * z.D G 9 9 = t 1.",
"S < a ,.L i y 0 c.=.% % % ' ' ' ' ' ' ' ' ' ' ' ' ' ' % % % p.> S =.=.W T n m >.D C.",
"=.=.W t t D q >.i I % % % ' ' ' ' ' ' ' ' ' ' ' ' ' ' % % % I U > f.W m m S l p.9 d ",
"u.G D 5 M D m E ,.M l m S % % * * ' ' ' ' ' ' ' * % % T.G.P J < O z.= T > J G ~ g :.",
"  =.~ ! S I 6 G ! z z + E.~.~.E.E.* * * * * * * E.~.~.E.E.a l > 5.> p.0 ;.9 b =.T E ",
"l ! Q 0 > 0 0 a E l k l E.~.~.E.E.* * * * * * * E.~.~.E.E.f C.d.L 2.> t T g j.9 2.Q ",
"b M l E m 3 a G ! 6 | | E.!.!.~.~.~.~.~.~.~.~.~.~.!.!.E.E.| G 3.;.d W 9 G O.G h h.n ",
"M N j = 6.m m G K P | | E.!.!.~.~.~.~.~.~.~.~.~.~.!.!.E.E.| 9 Q >.1.G Y 9 9 S : :.O ",
"+ N n Y 5.= G S | | Q.Q.W.E.E.E.E.!.!.!.!.!.!.!.E.E.E.W.W.Q.| | 6 4 F Y t b r _ Y : ",
"5 c G G a R Q m | | W.W.% ] ] !.!.E.E.E.E.E.E.E.!.] ] % % W.| | z t.> t j 0 h.. t , ",
"N N < n 6.M X O | | W.W.% ] ] !.!.E.E.E.E.E.E.E.!.] ] % % W.| | b e.k.q 0 @.5.< 3 &.",
"V b 4 N.S ; u > 2 ! | | ] [ [ ] ] !.!.!.!.!.!.!.] [ [ ] ] | ^ v A 4.` o.2.Y G t K.p ",
"J 3 3 p k.d u z.&.a.| | ] [ [ ] ] !.!.!.!.!.!.!.] [ [ ] ] | / B T A.G 9 < t t t L.N.",
"6 4  .: z.U 9 B.u S * * [ } } } } } } } } } } } } } } [ [ * m.) T A.+ b.0 0 0 b.#.k.",
"t  .l 5 ..#.i k.0 < ,.T * ] ] } } } } } } } } } } ] ] * * 2.@.M.g.A.&.M.Q S S k.5.h.",
"s z p c &.=.u #.t 6 0 2.* ] ] } } } } } } } } } } ] ] * * T &.f.9.T a.r S 6 2 W d w.",
"l q.x m b D Q ;.Y.p.F 7.% W.W.W.W.% % % % % % % W.W.W.% % G >.Q m T V.N > 0 ;.>.d l ",
">.x N z m >.0 a a 8 c.9 % W.W.W.W.% % % % % % % W.W.W.% % > ,.9 m 9 6.: 4 l >.D F $ ",
"C S l > 3 Y 9 ..w.+.W T % { { { { % k s.! u.% % { { { % % 9 ~ n t ! c N l 6 z G $ j ",
"B ! N 0 9 G 0 O.5 =.Y D m.% % % % c V 0 G 9 E =.% % % y 5 G M ;.V l ( & >.b M @ + c ",
"> N m H.m u 9 d 9 t t %.&.% % % % Z S l Y J > > % % % n 5 q 5 V x B # & > k ; l B z "
};
