/* XPM */
static char *result[] = {
/* columns rows colors chars-per-pixel */
"25 25 14 1 ",
"  c #383534",
". c white",
"X c #686868",
"o c gray35",
"O c #484848",
"+ c #55423C",
"@ c #6F5850",
"# c #222329",
"$ c #DDDDE8",
"% c #9AA5AF",
"& c gray98",
"* c #885137",
"= c #EFBD9F",
"- c #FDE2D4",
/* pixels */
".........      ..........",
".......  XXXXXX  ........",
"...... oXXXXXXXXo .......",
"...... oXXXXXXXXo .......",
"..... %OooooooooO% ......",
".... O$OOOOOOOOOO$O .....",
"... XXo$OOOOOOOO$oXX ....",
"... XXXo$&&&&&&$oXXX ....",
".... OooooooooooooO .....",
".....  OooooooooO  ......",
"..... +@        @+ ......",
"..... +@@@@@@@@@@+ ......",
".... +++@+@@@@+@@++ .....",
"......##++++++++##.......",
"........# ++++ #.........",
".......%&%    %&%........",
"......*%$&&&&&&$%*.......",
".....*-=%%$$$$%%=-*......",
".....*=#O$%%%%$O#=*......",
"......*OoO$$$$OoO*.......",
"...... oXXXXXXXXo .......",
"....... OXXXXXXO ........",
".......#==####==#........",
".......#@@#..#@@#........",
"........##....##........."
};
