/* XPM */
static char *fc3a4e11af374174a48f98ade5288e29t9Hz7vTOfPfrhKGW[] = {
/* columns rows colors chars-per-pixel */
"42 42 167 2 ",
"   c #182B17",
".  c #193517",
"X  c #133E10",
"o  c #183C17",
"O  c #1B351B",
"+  c #1B3C1B",
"@  c #203F1F",
"#  c #1D3222",
"$  c #1E3B22",
"%  c #222329",
"&  c #223C24",
"*  c #373534",
"=  c #194615",
"-  c #144813",
";  c #1A4916",
":  c #1C441C",
">  c #1D4B1C",
",  c #155415",
"<  c #1C5516",
"1  c #175E13",
"2  c #1D5C14",
"3  c #1E531B",
"4  c #1E5C1C",
"5  c #21441E",
"6  c #214C1E",
"7  c #284D1E",
"8  c #205D17",
"9  c #23531D",
"0  c #235C1D",
"q  c #285B1E",
"w  c #1B620F",
"e  c #1F631A",
"r  c #226E16",
"t  c #24641D",
"y  c #2A631D",
"u  c #246A1D",
"i  c #296D1E",
"p  c #25711D",
"a  c #2B751D",
"s  c #267B1E",
"d  c #2D7B1D",
"f  c #317D1E",
"g  c #387C1F",
"h  c #1E4521",
"j  c #1E4B21",
"k  c #224422",
"l  c #234C22",
"z  c #234328",
"x  c #244C29",
"c  c #284C2D",
"v  c #245323",
"b  c #295626",
"n  c #255B22",
"m  c #295C25",
"M  c #26552A",
"N  c #29542D",
"B  c #2A5B2B",
"V  c #2C5832",
"C  c #335E3A",
"Z  c #1F6220",
"A  c #266322",
"S  c #2A6324",
"D  c #256C22",
"F  c #2B6C23",
"G  c #276228",
"H  c #2C632B",
"J  c #2D6C2B",
"K  c #326E23",
"L  c #316C2A",
"P  c #277320",
"I  c #2D7424",
"U  c #2D7B23",
"Y  c #2F762B",
"T  c #307425",
"R  c #327C24",
"E  c #32742B",
"W  c #337B2A",
"Q  c #397B2D",
"!  c #306036",
"~  c #337335",
"^  c #387331",
"/  c #347C31",
"(  c #55423C",
")  c #484848",
"_  c gray35",
"`  c #6F5850",
"'  c #686868",
"]  c #885137",
"[  c #B37B5A",
"{  c #268514",
"}  c #2C831C",
"|  c #2F8F1D",
" . c #318F17",
".. c #32841F",
"X. c #328B1E",
"o. c #38941F",
"O. c #35991D",
"+. c #3EA51E",
"@. c #2E8123",
"#. c #2F8924",
"$. c #348324",
"%. c #398123",
"&. c #368C23",
"*. c #3A8C25",
"=. c #36842B",
"-. c #39822B",
";. c #368C2C",
":. c #3A8E2D",
">. c #359422",
",. c #3B9424",
"<. c #369922",
"1. c #3C9C24",
"2. c #3C962A",
"3. c #3E9A2D",
"4. c #3E8130",
"5. c #3C8934",
"6. c #3E9836",
"7. c #37A023",
"8. c #3CA226",
"9. c #3EA62E",
"0. c #3DAD2A",
"q. c #3DA632",
"w. c #48BB1F",
"e. c #428D2C",
"r. c #429C27",
"t. c #44962E",
"y. c #439C2B",
"u. c #4A9F2C",
"i. c #428B39",
"p. c #469735",
"a. c #449E32",
"s. c #429338",
"d. c #43A323",
"f. c #48A024",
"g. c #43AA25",
"h. c #44A32D",
"j. c #45AB2C",
"k. c #4AA92A",
"l. c #4AAB2C",
"z. c #51AF25",
"x. c #43B323",
"c. c #46B329",
"v. c #4BB42B",
"b. c #4BBA2C",
"n. c #51BA2B",
"m. c #45A431",
"M. c #4BA734",
"N. c #4EA830",
"B. c #4DAD3B",
"V. c #53AD3A",
"C. c #4FBF32",
"Z. c #57B136",
"A. c #54BD32",
"S. c #57B13D",
"D. c #55B839",
"F. c #4FC52B",
"G. c #53C42C",
"H. c #58CA2C",
"J. c #5EC436",
"K. c #65C93F",
"L. c #61B941",
"P. c #6ED345",
"I. c #9AA5AF",
"U. c #EFBD9F",
"Y. c #FDE2D4",
"T. c #DDDDE8",
"R. c gray98",
/* pixels */
"8.M b.i Y A r = n W U 0 O $ n V.* * * * * * * * * * O 9 k k 6 $ c & $ $ $ v > > > k ",
"1.3 n.Z.v F &.6 i v > v B j 6.$ * * * * * * * * * * 9 R H k k - 1.M b 0 l e b l l : ",
"*.>.g.N.i J a n a < 9 n * * ) ) ' ' ' ' ' ' ' ' ' ' ) ) * * k =.V.1.n F m 0.0 k.2.3 ",
"R *.,.t.*.v U a b.n * * ' ' ' ' ' ' ' ' ' ' ' ' ' ' ' ' ' ' I.W ;.V.&.m 2 R G a o 3.",
"$.a d L =.4 t 1 H.J * * ' ' ' ' ' ' ' ' ' ' ' ' ' ' ' ' ' ' I.F F > I v t 0 -.R R f ",
"i a 1.$.#.0 s P.K.* * * _ _ ' ' ' ' ' ' ' ' ' ' R.R.I.I.) ) R.I.I.m.6 = n 3 0 t l.t ",
"F $.i i =.n G.w.2 * * * _ _ ' ' ' ' ' ' ' ' ' ' R.R.I.I.) ) R.I.I.x.n : n I $.U f d ",
"a t I 9 I =.J.* * * I.I.) ) _ _ _ _ _ _ _ _ _ I.R.R.R.R.I.I.R.* * * * h t F l X.l b ",
"&.S ;.; F X.*.* * * I.I.) ) _ _ _ _ _ _ _ _ _ I.R.R.R.R.I.I.R.* * * * > U S $.7 0 F ",
"6 5.l.v b * * ' ' _ T.T.R.R.) ) ) ) ) ) ) ) ) I.T.T.R.R.R.R.T._ _ ' ' * * b W ;.i c.",
"v ,.h.k S * * ' ' ' ' ' T.T.R.R.R.R.R.R.R.R.R.R.I.I.T.T.T.T.' ' ' ' ' * * 6 U l r.9 ",
"9 F ,.5 B * * ' ' ' ' ' T.T.R.R.R.R.R.R.R.R.R.R.I.I.T.T.T.T.' ' ' ' ' * * I v $.0 &.",
"> > $.> : v A * * ' ' ' ' ' ' ' ' ' ' ' ' ' ' ' ' ' ' ' ' ' ' ' ' * * & J U I 9 j.%.",
"k n W l k & > * * ' ' ' ' ' ' ' ' ' ' ' ' ' ' ' ' ' ' ' ' ' ' ' ' * * b =.4 C.S g.0 ",
"I n U : . 6 u 1.A.* * * * * ) ) ) ) ) ) ) ) ) ) ) ) ) ) * * * * * y.c A I >.8.9 ,.$.",
"v 0 -.h.w : A | v.* * * * * ) ) ) ) ) ) ) ) ) ) ) ) ) ) * * * * * > :./ n U j.0 ,.z.",
"< 0 u > J.l S  .g.* ` ` ( ( % % R.* * U.U.U.U.* R.R.% % ( ( ` * * 0.D.E : l U < t &.",
"Q v > 6 n.3 $.h.m.* ( ( ` ` U.U.R.) ) Y.Y.Y.Y.) R.R.U.U.` ` ( * * B U <.: j 6.5.M.&.",
"-.l m 0 } g.R O.0 * ( ( ` ` U.U.R.) ) Y.Y.Y.Y.) R.R.U.U.` ` ( * * t B p.2.3 ;.9 $.t.",
"-.> S A R d.*.* * ( ` ` ( ( [ [ Y.Y.Y.Y.Y.Y.Y.Y.Y.Y.[ [ ( ( ` ( ( * * o =.a e $.> W ",
"y F n F c.F R * * ( ` ` ( ( [ [ Y.Y.Y.Y.Y.Y.Y.Y.Y.Y.[ [ ( ( ` ( ( * * : R y 0 4.a i ",
"*.L q k.o.S y q S.u.% % ( ( ` ` ] U.U.U.U.U.U.U.] ] ` ` ( ( % t h.,.j.S F 9 9 = t :.",
"A < a Q K i y 0 l.$.% % ( ( ` ` ] U.U.U.U.U.U.U.] ] ` ` ( ( % > A $.$.R U v n =.S M.",
"$.$.R t t S q =.i L I H % % ( ( T.I.I.R.R.R.R.I.T.T.( ( % % L P > a.R n n A k t.9 d ",
"e.F S 5 m F n T -.m k n I.I.R.R.R.T.T.' ' ) ) T.R.R.R.R.I.I.H < O j.= U : H F Q f *.",
"  $.Q W A L 6 F W l l + I.I.R.R.R.T.T.' ' ) ) T.R.R.R.R.I.I.k > 1.> t.0 &.9 v $.U T ",
"k W E 0 > 0 0 a T k ] ] Y.Y.I.I.R.R.R.' ' ) ) R.R.R.I.I.Y.Y.] p.K >.: t U f f.9 ,.E ",
"v m k T n 3 a F W 6 ] ] Y.Y.I.I.R.R.R.' ' ) ) R.R.R.I.I.Y.Y.] ,.&.d R 9 F ..F g d.v ",
"m b h = 2.n n F J ] Y.Y.Y.Y.% % I.* * ) ) ) ) * I.I.% % Y.Y.Y.] ] :.F I 9 9 A : *.O ",
"+ b b I 1.o F A F ] Y.Y.Y.Y.% % I.* * ) ) ) ) * I.I.% % Y.Y.Y.] ] 4 D I t v r ^ I : ",
": x F F a Y E n k ] U.U.% % I.I.R.R.R.I.I.T.T.R.R.R.I.I.% % U.] ] q.> t h 0 d.. t , ",
"M M < b 2.m X O b 4 ] ] ) ) _ _ ' I.I.) ) ) ) I.' ' _ _ ) ) ] x v 9.g.q 0 O.1.< 3 @.",
"B v 4 b.A ; u > 2 W ] ] ) ) _ _ ' I.I.) ) ) ) I.' ' _ _ ) ) ] c Z >./  .<.I F t F.p ",
"H 3 3 p g.d u j.@.y.* * _ _ ' ' ' ' ' ' ' ' ' ' ' ' ' ' _ _ * N U B.F 9 < t t t G.b.",
"6 4 { : j.P 9 n.u A * * _ _ ' ' ' ' ' ' ' ' ' ' ' ' ' ' _ _ * ~ U B.o x.0 0 t x.o.g.",
"t { k 5 } o.i g.0 < -.U * * ) ) ' ' ' ' ' ' ' ' ' ' ) ) * * O.v.s.B.@.v.E A A g.1.d.",
"s l p l @.$.u o.t 6 0 <.* * ) ) ' ' ' ' ' ' ' ' ' ' ) ) * * @.a.5.U y.u A 6 2 R d 8.",
"k 7.z n v S E &.L.t.D 3.% % Y.Y.Y.% % % % % % % Y.Y.Y.Y.% % =.E n U m.M : 0 &.$.d k ",
"=.z b l n =.0 a a 8 l.9 % % ` ` ` % % =.: u.h % ` ` ` ` % % -.9 n 9 2.: 4 k =.S D $ ",
"V A k : 3 I 9 } 8.X.R U % % ` ` ` % % i.W e.v % ` ` ` ` % % Q v t W x M k 6 l F $ h ",
"N W b 0 9 F 0 ..5 $.I S c.9.% % % x B 0 F 9 T $.% % % % 5 F m &.B k ! & =.v m @ + l ",
"> M n A.n u 9 d 9 t t +.@.: % % % C A k I H > > % % % % 5 q 5 B z N # & > j ; k N l "
};
