/* XPM */
static char * Renko_down_xpm[] = {
"42 42 15 1",
" 	c None",
".	c #373534",
"+	c #484848",
"@	c #686868",
"#	c #9AA5AF",
"$	c #595959",
"%	c #FAFAFA",
"&	c #DDDDE8",
"*	c #6F5850",
"=	c #55423C",
"-	c #222329",
";	c #EFBD9F",
">	c #FDE2D4",
",	c #B37B5A",
"'	c #885137",
"                ..........                ",
"                ..........                ",
"            ..++@@@@@@@@@@++..            ",
"          ..@@@@@@@@@@@@@@@@@@#           ",
"          ..@@@@@@@@@@@@@@@@@@#           ",
"         ...$$@@@@@@@@@@%%##++%##         ",
"         ...$$@@@@@@@@@@%%##++%##         ",
"       ...##++$$$$$$$$$#%%%%##%....       ",
"       ...##++$$$$$$$$$#%%%%##%....       ",
"     ..@@$&&%%+++++++++#&&%%%%&$$@@..     ",
"     ..@@@@@&&%%%%%%%%%%##&&&&@@@@@..     ",
"     ..@@@@@&&%%%%%%%%%%##&&&&@@@@@..     ",
"       ..@@@@@@@@@@@@@@@@@@@@@@@@..       ",
"       ..@@@@@@@@@@@@@@@@@@@@@@@@..       ",
"         .....++++++++++++++.....         ",
"         .....++++++++++++++.....         ",
"         .**==--%..;;;;.%%--==*..         ",
"         .==**;;%++>>>>+%%;;**=..         ",
"         .==**;;%++>>>>+%%;;**=..         ",
"       ..=**==,,>>>>>>>>>>,,==*==..       ",
"       ..=**==,,>>>>>>>>>>,,==*==..       ",
"          --==**';;;;;;;''**==-           ",
"          --==**';;;;;;;''**==-           ",
"            --==&##%%%%#&&==--            ",
"            ##%%%&&@@++&%%%%##            ",
"            ##%%%&&@@++&%%%%##            ",
"          ''>>##%%%@@++%%%##>>'           ",
"          ''>>##%%%@@++%%%##>>'           ",
"         '>>>>--#..++++.##-->>>''         ",
"         '>>>>--#..++++.##-->>>''         ",
"         ';;--##%%%##&&%%%##--;''         ",
"          ''++$$@##++++#@@$$++'           ",
"          ''++$$@##++++#@@$$++'           ",
"          ..$$@@@@@@@@@@@@@@$$.           ",
"          ..$$@@@@@@@@@@@@@@$$.           ",
"            ..++@@@@@@@@@@++..            ",
"            ..++@@@@@@@@@@++..            ",
"            -->>>------->>>>--            ",
"            --***--    -****--            ",
"            --***--    -****--            ",
"              ---       ----              ",
"              ---       ----              "};
