/* XPM */
static char *d7b757faffd54a91d2abcf542886816caHgKcsX83KcUdX9z[] = {
/* columns rows colors chars-per-pixel */
"42 42 183 2 ",
"   c #182B17",
".  c #192E1A",
"X  c #193617",
"o  c #133E10",
"O  c #183C17",
"+  c #1B351C",
"@  c #173F19",
"#  c #1C3C1C",
"$  c #203F1F",
"%  c #1D3222",
"&  c #1E3C22",
"*  c #222329",
"=  c #213C24",
"-  c #373534",
";  c #194615",
":  c #144813",
">  c #1A4916",
",  c #12401A",
"<  c #1C431C",
"1  c #1E4B1D",
"2  c #155415",
"3  c #1C5516",
"4  c #175C13",
"5  c #1D5C15",
"6  c #1E531B",
"7  c #1E5B1C",
"8  c #21441E",
"9  c #214C1E",
"0  c #284D1E",
"q  c #205D17",
"w  c #23531D",
"e  c #28571E",
"r  c #25581A",
"t  c #235C1D",
"y  c #1B620F",
"u  c #1F631A",
"i  c #226E16",
"p  c #24641D",
"a  c #2A631E",
"s  c #246A1D",
"d  c #296C1E",
"f  c #25711D",
"g  c #2B741D",
"h  c #267B1E",
"j  c #2D7C1E",
"k  c #30771F",
"l  c #317D1E",
"z  c #387C1F",
"x  c #1E4421",
"c  c #1F4B21",
"v  c #224522",
"b  c #234C23",
"n  c #224429",
"m  c #28472E",
"M  c #244C29",
"N  c #284C2D",
"B  c #245323",
"V  c #295624",
"C  c #255B22",
"Z  c #2A5C25",
"A  c #25532A",
"S  c #29542D",
"D  c #2A5B2C",
"F  c #2A5332",
"G  c #2C5B31",
"H  c #335E3A",
"J  c #1F6220",
"K  c #266322",
"L  c #2A6424",
"P  c #256C23",
"I  c #2B6C23",
"U  c #276429",
"Y  c #2B622B",
"T  c #2D6C2C",
"R  c #326E23",
"E  c #31632C",
"W  c #316C2A",
"Q  c #277320",
"!  c #2C7424",
"~  c #2D7B23",
"^  c #2E742A",
"/  c #307525",
"(  c #327C24",
")  c #32742B",
"_  c #337B2A",
"`  c #397C2D",
"'  c #2C6330",
"]  c #2F6C30",
"[  c #316237",
"{  c #337335",
"}  c #387331",
"|  c #347C31",
" . c #55423C",
".. c #484848",
"X. c gray35",
"o. c #6F5850",
"O. c #686868",
"+. c #885137",
"@. c #B37B5A",
"#. c #268514",
"$. c #2C831D",
"%. c #2A881F",
"&. c #318F17",
"*. c #32841F",
"=. c #338B1F",
"-. c #37951E",
";. c #38941F",
":. c #389C18",
">. c #3EA51E",
",. c #2E8123",
"<. c #2F8922",
"1. c #2F862B",
"2. c #348324",
"3. c #398123",
"4. c #358B23",
"5. c #3A8C24",
"6. c #35842B",
"7. c #3A822B",
"8. c #358C2C",
"9. c #3A8E2D",
"0. c #359422",
"q. c #3B9424",
"w. c #359827",
"e. c #3C9B24",
"r. c #3C952A",
"t. c #3E992B",
"y. c #3C8333",
"u. c #3B8934",
"i. c #3E9836",
"p. c #37A124",
"a. c #3CA226",
"s. c #3DA52B",
"d. c #3DAD2A",
"f. c #3DA632",
"g. c #4CBC1F",
"h. c #428F2B",
"j. c #429C27",
"k. c #44962D",
"l. c #429C2B",
"z. c #499E2F",
"x. c #459735",
"c. c #439D31",
"v. c #429338",
"b. c #43A323",
"n. c #48A024",
"m. c #44AA25",
"M. c #44A42E",
"N. c #45AB2C",
"B. c #4AA92A",
"V. c #4AAB2C",
"C. c #51AF25",
"Z. c #43B323",
"A. c #4DBD25",
"S. c #47B229",
"D. c #4AB52B",
"F. c #4CBB2C",
"G. c #52B02D",
"H. c #52BB2B",
"J. c #46A431",
"K. c #4BA633",
"L. c #4EA830",
"P. c #4BA439",
"I. c #4DAD3B",
"U. c #53A739",
"Y. c #53AD3A",
"T. c #4FBF32",
"R. c #53B434",
"E. c #55B638",
"W. c #54B93A",
"Q. c #4FC52B",
"!. c #53C42C",
"~. c #58CA2C",
"^. c #58C338",
"/. c #65C93F",
"(. c #59B140",
"). c #61B941",
"_. c #64C049",
"`. c #6ED345",
"'. c #9AA5AF",
"]. c #EFBD9F",
"[. c #FDE2D4",
"{. c #DDDDE8",
"}. c gray98",
/* pixels */
"a.A F.d ^ K i ; C _ ~ t + & C Y.M [ 6.Y @ - - - - - + w v v 9 & N = & & & B 1 1 1 v ",
"e.6 H.E.B I 4.9 d B 1 B D c i.& A b c.D J.- - - - - w ( Y v v : e.A A t b u A b b < ",
"5.0.m.L.d T g C g 3 w C 8.u.A n - - - - - O.O.O.O.O.- - E v v 6.Y.e.C I Z d.t m.t.6 ",
"( 5.q.k.5.B ~ g F.C 7 T - - - - O.O.O.O.O.O.O.O.O.O.O.O.- - M _ 8.Y.4.Z 5 ( U g O t.",
"2.g j W 6.7 p 4 ~.T 1 . - - - - O.O.O.O.O.O.O.O.O.O.O.O.- - U I I 1 ! B p t 7.( ( l ",
"d g e.2.<.t h `./.v - - X.X.X.X.X.X.X.........X.O.O.O.O.O.O.- s K J.9 ; C 6 t p V.p ",
"I 2.d d 6.C !.g.5 I - - X.X.X.X.X.X.X.........X.O.O.O.O.O.O.- A t Z.C < C ! 2.~ l j ",
"g p ! w ! 6.^.A.T & - - X.X.....................X.X.O.O.O.O.'.* * * * x p I b =.b V ",
"4.L 8.> I =.5.a.x ^.- - X.X.....................X.X.O.O.O.O.'.* * * * 1 ~ L 2.0 t I ",
"9 u.V.B V L 2.v p.u.- - ........................X.X.O.O.O.O.}.O.O.O.O.* * V _ 8.d D.",
"B q.M.v L K < %.M x - - ........................}.}.}.}.}.}.O.O.O.* * D e 9 ~ b j.w ",
"w I q.8 D = P & b x.- - ........................}.}.}.}.}.}.O.O.O.* * ; v ! B 2.t 4.",
"1 1 2.1 < B K 4.<.* '.'...........{.{.{.{.{.{.}.O.O.O.O.O.O.- * * D . = T ~ ! w N.3.",
"v C ( b v = 1 j W.* '.'...........{.{.{.{.{.{.}.O.O.O.O.O.O.- * * ) ^ A 6.7 T.L m.t ",
"! C ~ < X 9 s * * X.....'.'.{.{.{.O.O.O.O.O.O.O.- - - - - - o.- - l.N P ! 0.a.w q.,.",
"B t 7.M.y < K * * X.....'.'.{.{.{.O.O.O.O.O.O.O.- - - - - - o.- - 1 9.| C ~ N.t q.C.",
"3 t s 1 ^.* * X.X.................- - - - - - - }.}.- - ].].- 2.v d.W.) < b ~ 3 p 4.",
"` B 1 9 H.6 2.* * * * * * * - - - - - ].].o.o.* }.}.....[.[.@.# B D ~ 0.1 c i.u.K.4.",
"7.b Z t $.m.( * * * * * * * - - - - - ].].o.o.* }.}.....[.[.@.v U.p D x.t.6 8.w 2.k.",
"7.1 L K ( b.5.5.w , - -  . .o.o. .- - ].].o.o.].[.[.[.[.[.[.@.y.e.k.K O 6.g u 2.1 _ ",
"a I C I D.I ( I r (.- -  . .o.o. .- - ].].o.o.].[.[.[.[.[.[.@.M.r.e ( < ( a t y.g d ",
"5.W e B.;.L a r Y.z.- - o.o. . . .- - * * - - +.].].].].@.@.v p M.q.N.L I w w ; p 9.",
"K 3 g ` R d a t V.2.- - o.o. . . .- - * * - - +.].].].].@.@.k.1 P 2.2.( ~ V C 6.L K.",
"2.2.( p p L e 6.d W ! U * *  . . .* * '.'.{.{.'.* * L l.C ! W Q 1 c.( C C K v k.w j ",
"h.I L 8 Z I C / 7.Z v C K & * * * * * {.{.}.}.}.....v _.R.E Y 3 + N.; ~ 1 Y I ` l 5.",
"  2.` _ K W 9 I _ b b # x & * * * * * {.{.}.}.}.....B ` l.g v 1 e.1 k.t 4.w B 2.~ / ",
"v _ ) t 1 t t g / v c b x + C 6 5 * * '.'.{.{.}.{.{.....Z k K.x.R 0.1 p ~ l n.w q.) ",
"B Z v / C 6 g I _ 9 X = 1.U C ~ 1 * * '.'.{.{.}.{.{.....7.K I q.4.j ( w I *.I z b.V ",
"Z A x ; r.C C I T E C M u.v B A.< ....+.+.[.[.[.+.+.* * ` K w ) 6.9.I ! w w K < 5.+ ",
"# A V ! e.@ I K I M T C 7 4 C g.t ....+.+.[.[.[.+.+.* * ` 9 B B 9 5 P ! p B i } ! < ",
"8 M I I g ^ ) C v T T U P w.u.:.* {.{.+.+.].].[.+.+.* * $.I L x b f.1 p x t b.X p 2 ",
"A A 3 V w.C o + V 5 M C ^ 4.Z G.* O.O.{.{.+.+.+.O.O.- - H.A + M B s.m.e t -.e.3 6 ,.",
"D B 7 F.K > s 1 5 _ d # ! I d q.* O.O.{.{.+.+.+.O.O.- - t.s.' N J 0.| &.0.! I p Q.f ",
"Y 6 6 f m.j s N.,.l.7 T ,.9 * * - ....X.X.O.O.O.O.O.....- - ] S ~ I.I w 3 p p p !.F.",
"9 7 #.< N.Q w H.s K =.L g b * * - ....X.X.O.O.O.O.O.....- - N.{ ~ I.O Z.t t t Z.;.m.",
"p #.v 8 $.;.d m.t 3 7.~ d Z < 1 * ........X.X.O.....- - L 0.-.D.v.I.,.D.) K K m.e.b.",
"h b f M ,.2.s ;.p 9 t 0.D + A 1 * ........X.X.O.....- - I ~ ,.c.u.~ l.i K 9 5 ( j a.",
"v p.n C B L ) 4.).k.P t.x P.t m M * * [.[.[.[.].w ! W.F.5 I 6.) C ~ J.A 1 t 4.6.j v ",
"6.n A b C 6.t g g q V.w w.I M b G * * o.o.o.o.o.e p H.B.a 1 7.w C w t.< 7 v 6.L P & ",
"G K v 1 6 ! w $.a.=.( ~ s 4 ^.u.G * * o.o.o.o.o.Z w R.q.b w ` V p _ M A v 9 b I & x ",
"S _ A t w I t *.8 2.! L S.s.B F n M D * * * * * q.r l.a 8 I Z 4.D v [ = 6.B Z $ # M ",
"1 A C T.C s w j w p p >.,.< = v D H K * * * * * 7.q.z.V 8 e 8 D n F % = 1 c > v S b "
};
