/* XPM */
static char * Renko_up_xpm[] = {
"42 42 14 1",
" 	c None",
".	c #383534",
"+	c #686868",
"@	c #595959",
"#	c #9AA5AF",
"$	c #484848",
"%	c #DDDDE8",
"&	c #FAFAFA",
"*	c #55423C",
"=	c #6F5850",
"-	c #222329",
";	c #885137",
">	c #FDE2D4",
",	c #EFBD9F",
"               ..........                 ",
"               ..........                 ",
"            ...++++++++++....             ",
"          ..@++++++++++++++@@.            ",
"          ..@++++++++++++++@@.            ",
"          ..@++++++++++++++@@.            ",
"          ..@++++++++++++++@@.            ",
"        ..##$@@@@@@@@@@@@@@$$#..          ",
"       .$$%%$$$$$$$$$$$$$$$$$%$$..        ",
"       .$$%%$$$$$$$$$$$$$$$$$%$$..        ",
"     ..+++@@%$$$$$$$$$$$$$$%%@++++.       ",
"     ..+++@@%$$$$$$$$$$$$$$%%@++++.       ",
"     ..+++++@%%&&&&&&&&&&%%@@+++++.       ",
"       .$$@@@@@@@@@@@@@@@@@@@@$$..        ",
"       .$$@@@@@@@@@@@@@@@@@@@@$$..        ",
"        ....$@@@@@@@@@@@@@@$$...          ",
"        ....$@@@@@@@@@@@@@@$$...          ",
"        ..**=..............==*..          ",
"        ..**=================*..          ",
"        ..**=================*..          ",
"       .*****==**=======*====***..        ",
"       .*****==**=======*====***..        ",
"          ---**************---            ",
"          ---**************---            ",
"             --..*******.--               ",
"            #&&##.......#&&##             ",
"            #&&##.......#&&##             ",
"          ;;#%%&&&&&&&&&&%%##;            ",
"          ;;#%%&&&&&&&&&&%%##;            ",
"        ;;>>,####%%%%%%%###,,>;;          ",
"        ;;,,-$$%%#######%$$--,;;          ",
"        ;;,,-$$%%#######%$$--,;;          ",
"          ;;$@@$$%%%%%%%$@@$$;            ",
"          ;;$@@$$%%%%%%%$@@$$;            ",
"          ..@++++++++++++++@@.            ",
"            .$$++++++++++$$..             ",
"            .$$++++++++++$$..             ",
"            -,,,,-------,,,--             ",
"            -,,,,-------,,,--             ",
"            -====-    --===--             ",
"             ----       ---               ",
"             ----       ---               "};
