/* XPM */
static char *result[] = {
/* columns rows colors chars-per-pixel */
"24 24 15 1 ",
"  c white",
". c #686868",
"X c #373534",
"o c gray98",
"O c #484848",
"+ c #222329",
"@ c #9AA5AF",
"# c #FDE2D4",
"$ c gray35",
"% c #6F5850",
"& c #55423C",
"* c #DDDDE8",
"= c #885137",
"- c #EFBD9F",
"; c #B37B5A",
/* pixels */
"         XXXXXX         ",
"       XO......OX       ",
"      X..........@      ",
"     XX$......o@Oo@     ",
"    XX@O$$$$$@oo@oXX    ",
"   X.$*oOOOOO@*oo*$.X   ",
"   X...*oooooo@**...X   ",
"    X..............X    ",
"     XXXOOOOOOOOXXX     ",
"     X%&+oX--Xo+&%X     ",
"     X&%-oO##Oo-%&X     ",
"    X&%&;######;&%&X    ",
"      +&%=----=%&+      ",
"       +&*@oo@*&+       ",
"       @oo*.O*oo@       ",
"      =#@oo.Ooo@#=      ",
"     =##+@XOOX@+##=     ",
"     =-+@oo@*oo@+-=     ",
"      =O$.@OO@.$O=      ",
"      X$........$X      ",
"       XO......OX       ",
"       +##++++##+       ",
"       +%%+  +%%+       ",
"        ++    ++        "
};
