/* XPM */
static char *f4bd54b067174ceedd366b3bb8952301f8HDZIpzKTd1NC0z[] = {
/* columns rows colors chars-per-pixel */
"42 42 182 2 ",
"   c #182B17",
".  c #192D1C",
"X  c #193617",
"o  c #133E10",
"O  c #183C17",
"+  c #1B351C",
"@  c #173919",
"#  c #1C3C1B",
"$  c #203F1F",
"%  c #1D3222",
"&  c #1E3B22",
"*  c #222329",
"=  c #213C23",
"-  c #373534",
";  c #134417",
":  c #194615",
">  c #1A4916",
",  c #1C431C",
"<  c #1E4B1D",
"1  c #155415",
"2  c #1C5516",
"3  c #175C13",
"4  c #1D5C15",
"5  c #1E531B",
"6  c #1E5B1C",
"7  c #21441E",
"8  c #214C1E",
"9  c #284D1E",
"0  c #205D17",
"q  c #23531D",
"w  c #28571E",
"e  c #25581A",
"r  c #235C1D",
"t  c #1B620F",
"y  c #1F631A",
"u  c #226E16",
"i  c #24641D",
"p  c #2A631E",
"a  c #246B1D",
"s  c #296C1E",
"d  c #25721D",
"f  c #2B741D",
"g  c #267B1E",
"h  c #2D7C1E",
"j  c #30771F",
"k  c #317D1E",
"l  c #387C1F",
"z  c #1E4422",
"x  c #1E4A21",
"c  c #224422",
"v  c #234C23",
"b  c #224429",
"n  c #28472E",
"m  c #244C29",
"M  c #284B2F",
"N  c #245323",
"B  c #295624",
"V  c #245B23",
"C  c #2A5C25",
"Z  c #25542A",
"A  c #29542D",
"S  c #2A5C2C",
"D  c #2A5332",
"F  c #2C5B31",
"G  c #335E3A",
"H  c #1F6220",
"J  c #266322",
"K  c #2A6424",
"L  c #256C23",
"P  c #2B6C23",
"I  c #276429",
"U  c #2B632B",
"Y  c #276C2B",
"T  c #2D6C2C",
"R  c #326E23",
"E  c #32632A",
"W  c #316C2A",
"Q  c #277320",
"!  c #2C7424",
"~  c #2D7C23",
"^  c #2D742A",
"/  c #307525",
"(  c #327C24",
")  c #32742B",
"_  c #337B2A",
"`  c #397C2D",
"'  c #2C6330",
"]  c #2F6C30",
"[  c #306234",
"{  c #357632",
"}  c #55423C",
"|  c #484848",
" . c gray35",
".. c #6F5850",
"X. c #686868",
"o. c #885137",
"O. c #B37B5A",
"+. c #268514",
"@. c #2C831D",
"#. c #2D8C1E",
"$. c #318F17",
"%. c #32841F",
"&. c #338C1E",
"*. c #37951E",
"=. c #38941F",
"-. c #35991D",
";. c #389C18",
":. c #3EA51E",
">. c #2E8123",
",. c #2F8922",
"<. c #2F862B",
"1. c #348324",
"2. c #398123",
"3. c #358C23",
"4. c #3A8C24",
"5. c #36842B",
"6. c #3A822B",
"7. c #358C2B",
"8. c #3C8E2C",
"9. c #359423",
"0. c #3B9424",
"q. c #3C9C24",
"w. c #34972B",
"e. c #3C962A",
"r. c #3E992B",
"t. c #3C8433",
"y. c #3B8934",
"u. c #3E9836",
"i. c #3CA226",
"p. c #3BA726",
"a. c #3DA42A",
"s. c #3DA632",
"d. c #4CBC1F",
"f. c #428D2A",
"g. c #429C27",
"h. c #44962E",
"j. c #439B2A",
"k. c #499E2F",
"l. c #459536",
"z. c #449E32",
"x. c #42A323",
"c. c #48A024",
"v. c #43AA25",
"b. c #44A22C",
"n. c #45AB2C",
"m. c #4AA92A",
"M. c #4AAB2C",
"N. c #51AF25",
"B. c #43B323",
"V. c #4DBD25",
"C. c #47B229",
"Z. c #4BB42B",
"A. c #4CBA2C",
"S. c #52B02D",
"D. c #52BB2B",
"F. c #45A431",
"G. c #4BA633",
"H. c #4EA830",
"J. c #4BA439",
"K. c #4CAC3C",
"L. c #50A331",
"P. c #53AD3A",
"I. c #4FBF32",
"U. c #54B334",
"Y. c #54BD32",
"T. c #57B13D",
"R. c #54BA3B",
"E. c #4FC52B",
"W. c #53C42C",
"Q. c #58CA2C",
"!. c #4DC431",
"~. c #5DC532",
"^. c #58C339",
"/. c #65C93F",
"(. c #59B140",
"). c #61B941",
"_. c #6ED345",
"`. c #9AA5AF",
"'. c #EFBD9F",
"]. c #FDE2D4",
"[. c #DDDDE8",
"{. c gray98",
/* pixels */
"i.Z A.s ^ J u : V _ ~ r + & V P.m - - - - - - N x.A.+ q c c 8 & M = & & & N < < < c ",
"q.5 D.U.N P 3.8 s N < N S x u.& Z - - - - - - a.1.# q ( U c c ; q.Z Z r v y Z v v , ",
"4.9.v.H.s T f V f 2 q V 7.y.Z b - X.X.X.X.X.X.- - - - - E c c 5.P.q.V P C p.r m.r.5 ",
"( 4.0.h.4.N ~ f A.V 6 T b z - - X.X.X.X.X.X.X.X.X.X.X.X.- - - _ 7.P.3.C 4 ( I f # r.",
"1.f h W 5.6 i 3 Q.T < . r z - - X.X.X.X.X.X.X.X.X.X.X.X.- - - P L < ! N i r 6.( ( k ",
"P f q.1.,.r g _./.c _ & - - X.X.X.X.X.[.[.| | |  . . . . . . .- - F.8 : V 5 r i M.i ",
"P 1.s s 5.V W.d.4 P = K.- - X.X.X.X.X.[.[.| | |  . . . . . . .- - B.V , V ! 1.~ k h ",
"f i ! q ! 5.~.V.Y * * * `.`.X.X.X.`.`.{.{.[.[.| [.[.[.[.| |  .- - q.P z i P v &.v B ",
"3.K 7.> P %.4.i.z * * * `.`.X.X.X.`.`.{.{.[.[.| [.[.[.[.| |  .- - 7.v < ~ K 1.9 r L ",
"8 y.M.N B K 1.* * X.X.X.{.{.X.X.X.`.`.[.[.{.{.[.{.{.{.{.[.[.| - - Y Z J [ B _ 7.s Z.",
"N 9.b.c K J , #.m * X.X.X.X.{.{.{.{.{.`.`.[.[.`.{.{.`.`.| | | - - b V S w 8 ~ v g.q ",
"q P 0.7 S = L & v * X.X.X.X.{.{.{.{.{.`.`.[.[.`.{.{.`.`.| | | - - v , : c ! N 1.r 3.",
"< < 1.< , N J 3.,./ * * - - X.X.X.X.X.{.{.`.`.[.`.`.| | | | | `.`.* * = Y ~ ! q n.2.",
"c V ( v c = < h R.r * * - - X.X.X.X.X.{.{.`.`.[.`.`.| | | | | `.`.* * Z 5.6 I.K v.r ",
"! V ~ , X 8 a q.Y.@ - - ....- - - - - X.X.X.X.X.X.X.[.[.[.[.`.| |  . .* * 9.i.q 0.1.",
"N r 6.b.t , J #.Z.L - - ....- - - - - X.X.X.X.X.X.X.[.[.[.[.`.| |  . .* * ~ n.r 0.N.",
"2 r a < ^.v K $.v.V i 2 - - '.'.- {.{.- - - - - - - | | | | | | | | |  . .* ~ 2 i 3.",
"` N > 8 D.5 1.b.F.V < !.O.O.].].| {.{.* * ....'.- - - - - - * * * * * * * x u.y.G.3.",
"6.v C r @.v.( -.r K -.3.O.O.].].| {.{.* * ....'.- - - - - - * * * * * * * 5 7.q 1.h.",
"6.< K J ( x.4.4.q ; b.h O.O.].].].].].'.'.....'.- - } } ....} - - h.J @ 5.f y 1.< _ ",
"p L V L Z.P ( P e (.( i O.O.].].].].].'.'.....'.- - } } ....} - - w ( , ( p r t.f s ",
"4.W r m.=.K p e T.k.f J w.V O.O.'.'.'.o.o.- - * - - } } } } ..- - 0.n.K P q q : i 8.",
"J 2 f ` R s p r M.1.K ~ V # O.O.'.'.'.o.o.- - * - - } } } } ..- - 1.1.( ~ B V 5.K G.",
"1.1.( i i K w 5.s W ! U # ( ! q 9.* * `.`.[.[.`.* * } } } } * Q < z.( V V J c h.q h ",
"f.P K 7 C L V / 6.C c V J & z 5 d | | {.{.{.{.[.* * * * * * U 2 + n.: ~ < U P ` k 4.",
"  1.` _ J W 8 P _ v v # z & U V ! | | {.{.{.{.[.* * * * * * c < q.< h.r 3.q N 1.~ / ",
"c _ ) r < r r f / c x v z + V 5 | [.[.{.{.[.[.`.* * L.( C j G.l.R 9.< i ~ k c.q 0.) ",
"N C c / V 5 f P _ 8 X = <.I V ~ | [.[.{.{.[.[.`.* * r f.6.J P 0.3.h ( q P %.P l x.B ",
"C Z z : e.C V P T E V m y.c N V.* o.o.].].].].o.| | B E ` J q ) 5.8.P ! q q J , 4.+ ",
"# Z B ! q.O P J L m T V 6 3 V d.* o.o.].].].].o.| | V ~.` 8 N N 8 6 L ! i N u { ! , ",
"7 m P ! f ^ ) V c T T I L 9.y.;.* o.o.].].'.'.o.[.[.* * @.P K z v s.< i z r x.X i 1 ",
"Z Z 2 B e.V o + B 6 m V ^ 3.C S.- X.X.o.o.o.o.[.X.X.* * D.Z + m N a.v.w r *.q.2 5 >.",
"A N 6 A.J > a < 4 _ s # ! P s 0.- X.X.o.o.o.o.[.X.X.* * r.a.' M H 9.` $.9.! P i E.d ",
"U 5 5 d v.h a n.>.j.6 T >.8 - - | X.X.X.X.X.X. .| | - - * * ] A ~ K.P q 2 i i i W.A.",
"8 6 +., n.Q q D.a J &.K f v - - | X.X.X.X.X.X. .| | - - * * n.{ ~ K.# B.r r r B.=.v.",
"i +.c 7 @.=.s v.r 2 6.~ s C , < - | | X.X. . .| | | * * K 9.*.Z.l.K.>.Z.) J J v.q.x.",
"g v d v >.1.a =.i 8 r 9.S + Z < - | | X.X. . .| | | * * L ~ >.z.y.~ j.a J 8 4 ( h i.",
"c i.b V N K ) 3.).h.L r.z J.r n m = = '.'.].].].* * R.A.4 P 5.) V ~ F.Z < r 3.1.h c ",
"5.b Z v V 5.r f f 0 M.q w.P v v F Z ) ..........* * D.m.p < 6.q V q r., 6 c 5.K L & ",
"F J c < 5 ! q @.i.&.( ~ a 3 ^.y.F Z x ..........* * U.9.v q ` B i _ m Z c 8 v P & z ",
"A _ Z r q P r %.7 1.! K C.a.N D b m S * * * * * 0.e j.p 7 P C 3.S c [ = 5.N C $ # v ",
"< Z V Y.V a q h q i i :.>., = c A G J * * * * * 6.4.k.B 7 w 7 S b D % = < x > c A v "
};
