/* XPM */
static char * Renko_right_xpm[] = {
"42 42 15 1",
" 	c None",
".	c #373534",
"+	c #686868",
"@	c #595959",
"#	c #484848",
"$	c #9AA5AF",
"%	c #222329",
"&	c #FAFAFA",
"*	c #DDDDE8",
"=	c #6F5850",
"-	c #EFBD9F",
";	c #FDE2D4",
">	c #B37B5A",
",	c #55423C",
"'	c #885137",
"                     .....                ",
"                     .....                ",
"                .....+++++..              ",
"            ....++++++++++++..            ",
"            ....++++++++++++..            ",
"          ..@@@@@@@####@++++++.           ",
"          ..@@@@@@@####@++++++.           ",
"          ..@@##########@@++++$%%%%       ",
"          ..@@##########@@++++$%%%%       ",
"          ..############@@++++&++++%%     ",
"          ..############&&&&&&+++%%       ",
"          ..############&&&&&&+++%%       ",
"         %$$#####******&++++++.%%         ",
"         %$$#####******&++++++.%%         ",
"       %%@##$$***+++++++......=..         ",
"       %%@##$$***+++++++......=..         ",
"     %%@@########.......&&..--.           ",
"       %%%%%%%.....--==%&&##;;>           ",
"       %%%%%%%.....--==%&&##;;>           ",
"          ..,,==,..--==-;;;;;;>           ",
"          ..,,==,..--==-;;;;;;>           ",
"          ..==,,,..%%..'---->>            ",
"          ..==,,,..%%..'---->>            ",
"            %%,,,%%$$**$%%                ",
"              %%%%%**&&&##                ",
"              %%%%%**&&&##                ",
"                 %%$$**&**##              ",
"                 %%$$**&**##              ",
"                 ##'';;;''%%              ",
"                 ##'';;;''%%              ",
"                %**''--;''%%              ",
"                %++**'''++..              ",
"                %++**'''++..              ",
"              %%.##@@+++++##..            ",
"              %%.##@@+++++##..            ",
"                %####@@+##..              ",
"                %####@@+##..              ",
"                 %%;;;;-                  ",
"                 %%=====                  ",
"                 %%=====                  ",
"                   %%%%%                  ",
"                   %%%%%                  "};
