/* XPM */
static char * Vegetation_46_xpm[] = {
"42 42 237 2",
"  	c #232C64",
". 	c #1C2965",
"+ 	c #252667",
"@ 	c #341A6F",
"# 	c #271C68",
"$ 	c #252659",
"% 	c #1C3453",
"& 	c #233C5B",
"* 	c #2B4463",
"= 	c #2B4C6B",
"- 	c #286A83",
"; 	c #1B647B",
"> 	c #236C82",
", 	c #234463",
"' 	c #1C3B54",
") 	c #233C54",
"! 	c #1C3C5B",
"~ 	c #153C5C",
"{ 	c #1C2C53",
"] 	c #1C2C4B",
"^ 	c #1C334C",
"/ 	c #183749",
"( 	c #1C434D",
"_ 	c #26464B",
": 	c #2B4B55",
"< 	c #233444",
"[ 	c #2C7B7C",
"} 	c #1D5364",
"| 	c #236473",
"1 	c #246A6D",
"2 	c #2B6C7A",
"3 	c #24636C",
"4 	c #244B5C",
"5 	c #2B4C5B",
"6 	c #1D6374",
"7 	c #19456B",
"8 	c #234C6A",
"9 	c #243364",
"0 	c #232C54",
"a 	c #1C435C",
"b 	c #235472",
"c 	c #233454",
"d 	c #2A778D",
"e 	c #24445B",
"f 	c #23546B",
"g 	c #232C5B",
"h 	c #1C4463",
"i 	c #15637C",
"j 	c #1B5D7A",
"k 	c #184B72",
"l 	c #1B2544",
"m 	c #1D4B5C",
"n 	c #244354",
"o 	c #24434D",
"p 	c #24525D",
"q 	c #293749",
"r 	c #234C63",
"s 	c #246B74",
"t 	c #3B8B84",
"u 	c #326572",
"v 	c #348B84",
"w 	c #2B4C63",
"x 	c #235C72",
"y 	c #1C345B",
"z 	c #1B5472",
"A 	c #23345B",
"B 	c #35A7A4",
"C 	c #2B546B",
"D 	c #1C4C6A",
"E 	c #154B64",
"F 	c #176884",
"G 	c #1C4B64",
"H 	c #145C7B",
"I 	c #2A4453",
"J 	c #2A445B",
"K 	c #2B5B64",
"L 	c #326C73",
"M 	c #1C546B",
"N 	c #236C7B",
"O 	c #247275",
"P 	c #337B7C",
"Q 	c #2C7B75",
"R 	c #2B747B",
"S 	c #235C6B",
"T 	c #245364",
"U 	c #1D3B4C",
"V 	c #1C7579",
"W 	c #237482",
"X 	c #1C6B7C",
"Y 	c #1A7888",
"Z 	c #1B6C83",
"` 	c #1B2B44",
" .	c #0F657A",
"..	c #0E5977",
"+.	c #0C6A86",
"@.	c #23647A",
"#.	c #2B6473",
"$.	c #2B6B73",
"%.	c #36878B",
"&.	c #2B5C6B",
"*.	c #1D535D",
"=.	c #2C6A6D",
"-.	c #1C4A55",
";.	c #1D5B65",
">.	c #1C7383",
",.	c #285876",
"'.	c #2B5C72",
").	c #2C827D",
"!.	c #2B7C83",
"~.	c #2A9696",
"{.	c #155768",
"].	c #15536C",
"^.	c #0E758F",
"/.	c #178995",
"(.	c #1C5C73",
"_.	c #2B5463",
":.	c #389489",
"<.	c #348C8B",
"[.	c #357984",
"}.	c #2B636C",
"|.	c #245B65",
"1.	c #1D626C",
"2.	c #24838B",
"3.	c #1D6B74",
"4.	c #29857B",
"5.	c #23344C",
"6.	c #154C6B",
"7.	c #0E506B",
"8.	c #24737C",
"9.	c #327C82",
"0.	c #337374",
"a.	c #2B535C",
"b.	c #2A434D",
"c.	c #244A55",
"d.	c #2C7275",
"e.	c #2B848B",
"f.	c #19316E",
"g.	c #1D737C",
"h.	c #243B4C",
"i.	c #15435C",
"j.	c #155473",
"k.	c #32747A",
"l.	c #325463",
"m.	c #1B1C65",
"n.	c #1C2C5C",
"o.	c #1C3D62",
"p.	c #153755",
"q.	c #1D2B3C",
"r.	c #17557A",
"s.	c #3A7C7B",
"t.	c #427778",
"u.	c #32535D",
"v.	c #2A3C4C",
"w.	c #192756",
"x.	c #1C2434",
"y.	c #1B2639",
"z.	c #191D31",
"A.	c #193766",
"B.	c #338483",
"C.	c #3A7877",
"D.	c #39676B",
"E.	c #36575D",
"F.	c #233C63",
"G.	c #2C2A6E",
"H.	c #18274A",
"I.	c #1D3344",
"J.	c #222C3B",
"K.	c #20212F",
"L.	c #232C4C",
"M.	c #31464E",
"N.	c #212736",
"O.	c #257B7D",
"P.	c #43887C",
"Q.	c #25565A",
"R.	c #2C6265",
"S.	c #2A3C53",
"T.	c #23323E",
"U.	c #325973",
"V.	c #246265",
"W.	c #326265",
"X.	c #33646B",
"Y.	c #365768",
"Z.	c #325B64",
"`.	c #1D4354",
" +	c #283767",
".+	c #2B5A5E",
"++	c #3B837C",
"@+	c #3A7474",
"#+	c #2A3458",
"$+	c #3A8483",
"%+	c #347A75",
"&+	c #1D5B6C",
"*+	c #247B83",
"=+	c #1B6469",
"-+	c #2A736D",
";+	c #336B6D",
">+	c #2C8A84",
",+	c #1A555B",
"'+	c #2B7482",
")+	c #369795",
"!+	c #2C8384",
"~+	c #254C73",
"{+	c #2A3C5B",
"]+	c #296A65",
"^+	c #155B74",
"/+	c #348B92",
"(+	c #47A798",
"_+	c #27635D",
":+	c #233B45",
"<+	c #2B647A",
"[+	c #449789",
"}+	c #32A68F",
"|+	c #222C45",
"1+	c #298A93",
"2+	c #25456A",
"3+	c #257A76",
"4+	c #258384",
"5+	c #34837D",
"6+	c #325D6A",
"7+	c #154859",
"8+	c #479B94",
"9+	c #155C81",
"0+	c #154463",
"a+	c #0F455D",
"b+	c #2C8B8B",
"c+	c #356C76",
"d+	c #48AEA5",
"e+	c #191D53",
"f+	c #1C8489",
"g+	c #4CC6B5",
"h+	c #2B948B",
"i+	c #35927B",
"j+	c #277A8A",
"k+	c #334B65",
"l+	c #334A58",
"m+	c #156678",
"n+	c #427D81",
"  . + @ # $ % % & * = = - ; > , ' ) ) ! ~ { ] ^ ^ % / ( _ : < [ } | 1 2 [ 3 4 5 6 7 ",
"8     9 9 0 a b c d = = e f g & h i j k * { ] l ] m n / o p q : e r 6 s t u v w x & ",
"y z A , % f ) } f B C = b D f E F i G H ! a ] ^ a G m n I J K L } M N x O P Q s R ! ",
"8 w r S T ) 3 U V N 8 * r S W X Y ; Z z h G ` ^ ]  ...+.4 4 f @.| r f #.$.= P $.P %.",
"L T &.*.O =.-.;.N >.,.'.).C !.@.~.b N @.{.].' %  .^./.G @.(.N f r >.| _.#.S [ :.<.[.",
"}.K _.) *.|.p 1.2.C _.= 2 N 3., N 4.} h 5.G >.y 6.+.7...i @.3 f 8.9.s T S |.0.R %.0.",
"=.a.b.T 3 c.O d.[ e.2 f.0 % a g.X M h.^ i.5.h.& X ^.F i j.; S m 3.Q 4 5 &.P <.t P k.",
"l.K _ c.p 5.3 $.!.:.B # m.n.o.p.M E < ` ` q.o ) @.Z F r.H /.8 j (.3 S } s Q e.s.s.k.",
"t.u.K =.&.c.v.I r n.w.@ . y { { ] ^ x.x.y.z.' e 2 j F 7 A.H Y G @.w n (.6 &.B.C.D.D.",
"E.E.: K d.n a.c $ $ F.G.    y H.H.I.y.J.J.K.5.L.a b k A.7 p.! , G a !.4 } }.0.L D.D.",
"D.E.M.&.v.a.< 5.5.& 8 $ o.w.! h I.q.q.x.N.< < ' A & F.. . y F.* & 5 O.| T c.l.0.P.C.",
"1 a.v.5 Q.K R.u.5 S.&.& g S ! r I.q.I.J.T.I n G U., b F.9 o.  g * F.1 |.v.d.$.l.t.P ",
"1 V.b.}.W.X.0.Y.X.Z.$.#.5 &.o `.-.I.n h.: u.4 f > f |.|.9    +F.0 n < b.p f w $.S &.",
"1 *..+R.K C.0.L _.++@+u.I _.1.;.{.;.&.|.d.!.@.W | @.S f  + +$ #+c q a.a.: e r & a `.",
"p R.X.=.K D.P s.$+D.%+L =.c.`.{.{.&+| :.v t *+3 ~.@.M & ] & 0 L.5.S.K a.R._.< ' ' =+",
"U -+-+.+P ;+;+;+0.>+X.0.0.p *.,+i X '+)+:.;+!+)+!+e.~+y {+n q c 5.5.&.5 n _.n `.|.-+",
"-.-..+.+-+0.P P =.&.%+0.R.]+U ^+].^+(.}.}.1 O &./+9.(+'.f } T N N S T 5 T R 4 $.K Q.",
"c.: : _+V.1 C.X.}.k.9.0.: a.:+;.&+j.x <+!.$.<.!./+<.[+&.s n 3 R 2 _.@.K 3.d._.a..+_ ",
": d.=.=+O.:.$+P $+s.B.k.: .+b.T | <+'.W 2 [.9.2 |.;+[.[ 1 O Q.s >+R f s 8.|.}+9.X.c.",
"4 |.|+3 O >+%+d.X.v !+K I : : 1 | V &.'+1+R [ S $.$.P 0.d.$.=+1 3 1.5 3 N _.d.O.2 3.",
"} T &.O 3 3 | s !+Q $.p : : Q.4 S T 2+8 X s O.4 [ :.P t R s 3+p *.s s !+P l.8.3 S  .",
"M n T 5 ~+4 r x |.4+Q d.c.K 4 n e f F., 4 | _.&.v t 5+5+!.s g.|.| P $.}.l.6+}.m {.] ",
"' 5.5.) 4 e r T f s =+4 $.h.=+I.|+L.2+c J T T O.B.d.<.*+!+O N &.T !+p L 0.3 5 7+p.l ",
"` L.) {+A ' I.a ) n |.V 3 T h.` 4 4 e e q ;.r $.}+8+X | | 6 m S M U 4 X.Z.!.&+7+/ |+",
"! 0 0 $ n.c r n 5.n 6 w | 3.) I.v.} | T &.s 6 &+X Z X '+*+S w ^+i % ) n P '+1./ / l ",
"0 A A c I n < 8.h.8.T S S y } m m a , f e n &+X F ; j ,.%.&.| X j a ) T 9.#.;.7+l l ",
"A g e J 5.w v.n O.!+S & h ! M ' i.^ G n |.S M j.j 9+- @.K T T &.4 p o `.S 8.m % ^ ! ",
"0 A r 3.n #.5 &+T X G ].6.z H i.m q.7+E 8.(.M G j x )+u O T |.T c._ 4 m J w E ' ' 5.",
"e b x | '+| 4 e | M i G M Z G 0+a+~ 6.k &+(.} a h ; e.2.&.&+) b.:+_ |.|.3.8.' G m & ",
"&+N x #.b+e.#.6 } M ; j M j > - G D j F S 6 E 0+H H D 6 3.T 7+:+:+.+s 3.2.3.X j G T ",
"} 8.L c+k.<.)+}.C *+W X G h % & G z z z 6 p.~ { A.0+A.a m `.*.-.|.3 8.W S 6 i >.g.M ",
"6 S d.X.!.3 B d+'+N G m r e & e f f Z 6.&+p.{ ~ n.e+e+& ' a 3+O.[ s S | 3 |.8.d.>+8.",
"S N #._.C @.s 2.#.8.&.T 8.R c+C x !+&.f+~.~ H.0+w.% ) A w G } |.$.%.)+!.!+8.>+O =.$.",
"1 | !.6+)+2.*+1+8.g+h+v t.!+%.R #.a e E r H.n.r.h ! M M 5.M } | $.!.>+R }.c+!.s |.O ",
"i+$+8.| N D f j+*+&.}.W.;+l.R l.e D ! % G D o.G M 4 @.e (.} 4 I 6+R v 5+&.0.9.d.d.5+",
"5+N T | e } x f N k+l+M._.Y.R.5 I c ] % D e x f Z 4 6 Z e r @.4 c.K )+3.8.L $.}.=.3+",
"n S S 3 N c c * , Y.l+_.X.B.}.l+5 L.% { r = x T |.m+F Z i ; 6 } a.f s )+!.&.L $.d.$.",
"n f e &.w c 5.S.'.k+l+u.C.n+u.I J ' ] c e G T M *+X i 6 M T Z &+f |.5 d #.4+P L l.5 ",
") c S.w , A 0 c & c 5 a.X.(+K 5 n ] 5.a & f G G X G X &+a 3 '+e r w k+s !.K e.#.I J ",
", #+#+G.+ $ 0 0 L.J J B.a.t 5 R V.3 c 0 & G h D 7 D `.4 4.!+j+r 4 & W h+s T 8.r ) #+",
"2+g $ G.  $ ] % 0 e J u _.&.S K : J.m ! A 8 k o.i.a 7+T ;.U h.q q ) Y R !+2 r r ;  +",
"2+m.# @ G.0 & % o.e k+w &.!+e 6+v.4 ! p.A o.7 7 ' % `.c.h.p n < < S W j+8.| r r Z ~+"};
