/* XPM */
static char * Vegetation_32_xpm[] = {
"42 42 211 2",
"  	c #3CA323",
". 	c #245323",
"+ 	c #4CBB2B",
"@ 	c #2A6C1E",
"# 	c #2D7B2A",
"$ 	c #256323",
"% 	c #236C15",
"& 	c #154414",
"* 	c #255B23",
"= 	c #337B2B",
"- 	c #235B1D",
"; 	c #1B351C",
"> 	c #1E3C22",
", 	c #53AC3B",
"' 	c #24442A",
") 	c #2E6238",
"! 	c #35832B",
"~ 	c #2B642B",
"{ 	c #193C16",
"] 	c #1D4B1C",
"^ 	c #42A424",
"/ 	c #22541D",
"( 	c #224423",
"_ 	c #294C24",
": 	c #224C1E",
"< 	c #213624",
"[ 	c #294C2C",
"} 	c #213C24",
"| 	c #234C23",
"1 	c #3C9B24",
"2 	c #1E5B1B",
"3 	c #53BC2C",
"4 	c #53B433",
"5 	c #2B6C24",
"6 	c #348B23",
"7 	c #2A5C2B",
"8 	c #1E4B21",
"9 	c #3A9536",
"0 	c #1D3522",
"a 	c #26532A",
"b 	c #449B33",
"c 	c #44A333",
"d 	c #3CA32B",
"e 	c #338324",
"f 	c #1C3C1C",
"g 	c #327C24",
"h 	c #154B14",
"i 	c #1E631B",
"j 	c #1A4416",
"k 	c #3A8C24",
"l 	c #349323",
"m 	c #43AB24",
"n 	c #4AA42C",
"o 	c #2C6C2A",
"p 	c #2B731E",
"q 	c #1D531C",
"r 	c #358B2A",
"s 	c #388A34",
"t 	c #266329",
"u 	c #347B32",
"v 	c #3B8C33",
"w 	c #4CAB3B",
"x 	c #1E4421",
"y 	c #265A2A",
"z 	c #326626",
"A 	c #359A2A",
"B 	c #295C24",
"C 	c #3DAA2B",
"D 	c #49AC25",
"E 	c #3C942B",
"F 	c #3B9424",
"G 	c #42952C",
"H 	c #2D7B23",
"I 	c #1E4429",
"J 	c #2E6B32",
"K 	c #266B23",
"L 	c #2C7324",
"M 	c #439433",
"N 	c #3B8433",
"O 	c #163617",
"P 	c #1C5B15",
"Q 	c #25731C",
"R 	c #3C9B2B",
"S 	c #2C7B1D",
"T 	c #326D2B",
"U 	c #24631D",
"V 	c #16580D",
"W 	c #57C82A",
"X 	c #182D1A",
"Y 	c #1E5A21",
"Z 	c #2E822A",
"` 	c #256B1D",
" .	c #3C9432",
"..	c #4BAC33",
"+.	c #3A842C",
"@.	c #327C1E",
"#.	c #2D8B23",
"$.	c #257B1C",
"%.	c #70CF49",
"&.	c #67C945",
"*.	c #52B047",
"=.	c #2A4D31",
"-.	c #489739",
";.	c #326C33",
">.	c #1D441C",
",.	c #45AB33",
"'.	c #215C16",
").	c #4BAC2C",
"!.	c #53C32C",
"~.	c #46B71E",
"{.	c #295734",
"].	c #2D6332",
"^.	c #2D732A",
"/.	c #44B324",
"(.	c #267323",
"_.	c #31751E",
":.	c #226316",
"<.	c #58C636",
"[.	c #4BBB24",
"}.	c #5BC443",
"|.	c #2C5B33",
"1.	c #254C2A",
"2.	c #459B3A",
"3.	c #45A63A",
"4.	c #32742B",
"5.	c #359B24",
"6.	c #338B1E",
"7.	c #295424",
"8.	c #2A6424",
"9.	c #398B1E",
"0.	c #294529",
"a.	c #2A5432",
"b.	c #44A42B",
"c.	c #44AB2C",
"d.	c #237315",
"e.	c #349517",
"f.	c #2D8B1D",
"g.	c #254C1A",
"h.	c #295C1E",
"i.	c #36A326",
"j.	c #29542C",
"k.	c #4A9C34",
"l.	c #35932A",
"m.	c #45BA27",
"n.	c #276B29",
"o.	c #316434",
"p.	c #4CB32C",
"q.	c #1E3C28",
"r.	c #165614",
"s.	c #298725",
"t.	c #54BC33",
"u.	c #337432",
"v.	c #358332",
"w.	c #429C25",
"x.	c #21451E",
"y.	c #278519",
"z.	c #2C831D",
"A.	c #439C2C",
"B.	c #3B8C2B",
"C.	c #327424",
"D.	c #233E29",
"E.	c #398424",
"F.	c #54BB3B",
"G.	c #163C15",
"H.	c #1B4C16",
"I.	c #29641E",
"J.	c #4DC334",
"K.	c #2D8323",
"L.	c #1D6315",
"M.	c #349B1D",
"N.	c #315C37",
"O.	c #315C29",
"P.	c #4CC328",
"Q.	c #397C2C",
"R.	c #52BC27",
"S.	c #2E9423",
"T.	c #38A61D",
"U.	c #316D25",
"V.	c #4BA433",
"W.	c #53A639",
"X.	c #174519",
"Y.	c #42A81E",
"Z.	c #387636",
"`.	c #59B843",
" +	c #429525",
".+	c #24551A",
"++	c #3A951E",
"@+	c #53B33B",
"#+	c #499B2D",
"$+	c #32841E",
"%+	c #428D2C",
"&+	c #68B74F",
"*+	c #31642C",
"=+	c #397829",
"-+	c #428929",
";+	c #49A426",
">+	c #3B9C1E",
",+	c #3DA532",
"'+	c #1B5415",
")+	c #0E3A12",
"!+	c #51B42D",
"~+	c #4D9543",
"{+	c #1F6321",
"]+	c #277A15",
"^+	c #52AC34",
"/+	c #45B32B",
"(+	c #26880F",
"_+	c #66D337",
":+	c #34941D",
"<+	c #448838",
"[+	c #3CA31E",
"  . + @ # $ % & * = # - ; > * , ' ) ! ~ { * ] . ^ + ; / ( _ : < [ } > > > . ] ] ] | ",
"1 2 3 4 . 5 6 : @ . ] . 7 8 9 0 a | b 7 c a 8 d e f . g ~ ( ( h 1 . . - | i . | | j ",
"k l m n @ o p * p q / * r s a ' t u v ] w x l ( - | y y z ( ( ! , A * 5 B C - D E / ",
"g k F G k . H p + * 2 o ' I } J K L M b ] N ( O ; ( x ( : | _ # r , 6 B P g t Q { R ",
"e p S T ! 2 U V W o q X - x Y Z t ` =  .y = [ ; 8 ( ' ] .._ ~ 5 5 ] L . U - +.g g @.",
"@ p 1 e #.- $.%.&.' = 0 j [ a L # *.. ~ y =.0 -./ ' ;.$ c >.* ` $ ,.: j * q '.U ).U ",
"5 e @ @ ! * !.~.P 5 } w {.I x y ! u ].] ( > ' '.> ^.: ^. .a . . - /.* >.* (.e H _.S ",
"p :.(./ L ! <.[.o x }.|.1.{.> * ].> 7 2.0 3.( - $ B . V 4.1.$ . 5.1 5 x :.5 : 6.: 7.",
"6 8.r ] 5 6.9.d x <.c 0.a.a ' ].' x ' 9 f b.c.* d.*  .e.f.m i q ).r | ] # t e g.h.5 ",
": v ... y $ e ( i.s ' j.{.x [ ' J x . $ Z N k.l.1 - r 6 m.5 $ 6 e n.. t o.y = r @ p.",
". F b.( 8.$ >.f.1.x q.' r.R = o $ #.d Z d s.t.d F e R 4 d t c.u.v.' * 7 - : H | w./ ",
"/ 5 F x.y < K 0 8 M E 3.! s # y.c.H a . 5.^ l.d z./ A.6.B.7 $ u.x | >.j ( L . e - 6 ",
"] ] 6 ] >./ t r #.C.~ L (.8 > *.> * 7 = c 2 R F e : = - - A.].} } 7 X D.o # L / c.E.",
"( * g | ( } ] S F.- G.1 >.|.H.N >.' a z.2 A.p I.B $ 5 x.B.u.< } j.4.^.. ! 2 J.$ m '.",
"L * # >.O : ` A t.{ L 5.| + ' j.A . l K $ g 5 h.>.x.8.>.B D.} M . A._ K (.l   / F K.",
". - ! b.L.>.$ 6.p.5 * l M.N.> } ,.R % $ r.M.5 / B x.x.| 7.j.g O.R ] B.u * H c.- F D ",
"q - ` ] <.| $ 6.m y i q <.j.a a j.t.@ P.K A.E ( : h.I.x.. p 7 e ( C F.4.>.8 H r.U 6 ",
"Q.. ] : R.q e b.,.* ] J.r Q 8 . x S.y.T.6 '.(.U.U.:.. f >.| L ; . 7 H 5.>.8  .s V.6 ",
"! : y - z.m g M.- $ M.6 H >.w ; . s.] /.<.] = f t L a : . N x : W.U y M E 2 s / e G ",
"! ] 8.$ # ^ E.k / X.b.S 6 2 L.8 h 6 U Y.).] H * Q.R x.y >.x.Z.N A G $ { ! p i e ] g ",
"I.5 * 5 p.5 @.5 '.`.g U f $.* 6 i 6.^  +p ..K * g H | 1.e ( j.b.E .+g >.g I.- N p @ ",
"k T - ).++8.I..+@+#+p $ A y # 6 v H 9.$+U # - y 6 E.2 1.. G ( U c F c.8.5 / / j U B.",
"$ q p ! U.@ I.- ).e 8.# * f K K.l - D I./ 5 x.] L 2 u.a . / G ] K e e g # . * ! t V.",
"e e g U U 8.- ! @ T L ~ f g L / l F p 9.g 5 : ( 5 { $ A.* L T (.] b g * * $ ( G .+S ",
"%+5 $ x.B 5 B C.! B ( * t > x q Q S q e C.'.- : j 5 ( &+4 *+~ q ; D j H >.o K Q.@.E.",
"X e Q.= $ T : 5 =+| | f x > ~ * (.K L _._./ g B - B . = A.p ( ] 1 ] G - 6 .+. e H C.",
"( Q.4.- ] - - p C.( 8 ( x ; y q 2 . ` U ] K >.: ; >.V.g B _.V.M U.l >.I.H _.w./ F 4.",
"/ B ( C.* q p 5 = : O } Z t * # ] ^.U U B ++. >.= | - -++.$ 5 F 6 S g / 5 $+5 @.;+. ",
"8.. x j E * - 5 o *+* _ v ( * [.j 5 - . * x.. = 0.= y z Q.$ / 4.! B.K L / / $ j k ; ",
"f . 7.L R { K $ 5 _ o * 2 V y [.- - d ~ U : B } ' 8.* <.Q.: . . : 2 K (.U . ` u.L >.",
"x.1.5 5 p ^.4.* ( o o t K F v >+e H >.4.] . ; } 8.. * z.z.5 K x | ,+] U 8 - ^ ; U r.",
"a a '+y A y )+; y 2 _ y ^.r B !+P ! {.. / f ~+_ ` ~ 8.- R.a ; 1.. d m - - M.R q 2 K.",
"7 . 2 + $ j ` ] P = @ f L 5 @ F E T 8 i g a o . B y = K R d ].1.{+l u f.5.(.5 U P.Q ",
"~ q q Q m z.` c.K.A.2 o K.: e +.5 . d Z.H j.- E y / % q U e J j.H w 5 / q U U U !.p.",
": 2 y.>.c.(./ 3 ` $ 6.t p _ 5 _ x.]+( B b x 7 ^+- Q.$ m g e /+u.H w f /.U - U /.++D ",
"U (+( x.y.++@ m - '++.H @ B >.] $ j y | l h : k e B - _+t 5.M.p.M w K.p.4.$ $ D A ^ ",
"S | Q _ Z e ` :+:.: - 5.7 ; . ] y [ F.( U b.x.8.B.| / W 5 # K.k.v H A.% $ / P g S   ",
"( i.' * . t 4.e `.G K R x 3.2 [ 1.} } Z | #+: U./ L F.+ P 5 ! 4.* H c . >.- 6 ! S ( ",
"! ' . | * ! - p p '.)./ l.5 _ | |.a 4.+.>.#+>.-.- U 3 ).I.: ! / * / E >.- ( ! 8.K > ",
"|.$ ( >.q L / $+  9.g # ` P J.s {.a 8 <+=+%+. k B / 4 ++_ .+Q.. U = ' a ' : | 5 0 x ",
"j.= . - / 5 - $+x.e L $ /+d . {.' 1.7 - 5 / C.e F .+A.@ x.5 O.k 7 ( o.} ! . y x.f _ ",
"] a * t.* ` / S / :.U [+K.>.} ( 7 N.t ( L ~ ] H.+.k #+.+x.h.x.7 ' a.0 < ] 8 j ' j.| "};
