/* XPM */
static char * Vegetation_35_xpm[] = {
"42 42 189 2",
"  	c #5A5B2D",
". 	c #464923",
"+ 	c #6A7337",
"@ 	c #525325",
"# 	c #4C4B25",
"$ 	c #54532C",
"% 	c #565A32",
"& 	c #4D4B2B",
"* 	c #5B5B33",
"= 	c #454224",
"- 	c #4A452A",
"; 	c #433D24",
"> 	c #92934F",
", 	c #524D31",
"' 	c #56592C",
") 	c #4A4525",
"! 	c #5A4C2C",
"~ 	c #514D2C",
"{ 	c #464229",
"] 	c #494515",
"^ 	c #5A6327",
"/ 	c #4E512A",
"( 	c #5D6734",
"_ 	c #3E4119",
": 	c #4E5124",
"< 	c #555332",
"[ 	c #69653B",
"} 	c #5A5533",
"| 	c #615D34",
"1 	c #6C733C",
"2 	c #875839",
"3 	c #97654A",
"4 	c #43341D",
"5 	c #3E3B1D",
"6 	c #747B43",
"7 	c #696536",
"8 	c #44431D",
"9 	c #5A5B25",
"0 	c #D79907",
"a 	c #59552D",
"b 	c #858748",
"c 	c #423D1D",
"d 	c #7B4B35",
"e 	c #633B26",
"f 	c #543C2A",
"g 	c #3E3A23",
"h 	c #6B6B42",
"i 	c #63633A",
"j 	c #8A7419",
"k 	c #A97658",
"l 	c #CEA930",
"m 	c #E9A706",
"n 	c #4B4B1E",
"o 	c #565339",
"p 	c #626334",
"q 	c #5B3B25",
"r 	c #4B341D",
"s 	c #644B33",
"t 	c #B37A5C",
"u 	c #B4866B",
"v 	c #514D25",
"w 	c #4E4A31",
"x 	c #4A3E29",
"y 	c #644332",
"z 	c #6C3E32",
"A 	c #7A4534",
"B 	c #5D5B39",
"C 	c #656A3A",
"D 	c #5D6233",
"E 	c #524325",
"F 	c #744A35",
"G 	c #8A533C",
"H 	c #783C2A",
"I 	c #835442",
"J 	c #795844",
"K 	c #453B15",
"L 	c #767A49",
"M 	c #6A6C3B",
"N 	c #7A8347",
"O 	c #5A5539",
"P 	c #4C3629",
"Q 	c #533B25",
"R 	c #674939",
"S 	c #5E6239",
"T 	c #643C2C",
"U 	c #6B3C2C",
"V 	c #A98408",
"W 	c #6D7746",
"X 	c #4C4631",
"Y 	c #4E5825",
"Z 	c #533423",
"` 	c #625D3A",
" .	c #5B3529",
"..	c #673728",
"+.	c #6B422D",
"@.	c #4B2D1C",
"#.	c #746A39",
"$.	c #443E29",
"%.	c #46491D",
"&.	c #646A35",
"*.	c #443522",
"=.	c #8B574A",
"-.	c #532D1D",
";.	c #53331E",
">.	c #625D2C",
",.	c #4A3B0C",
"'.	c #3C351D",
").	c #744C3A",
"!.	c #635434",
"~.	c #4A451D",
"{.	c #655827",
"].	c #D6A928",
"^.	c #F7B508",
"/.	c #39300D",
"(.	c #53442B",
"_.	c #4B3D24",
":.	c #96892F",
"<.	c #B78706",
"[.	c #63422D",
"}.	c #5B4725",
"|.	c #3A3717",
"1.	c #765A16",
"2.	c #6A5539",
"3.	c #656341",
"4.	c #887827",
"5.	c #5A5524",
"6.	c #765737",
"7.	c #5C3C2B",
"8.	c #58541B",
"9.	c #7B4C3A",
"0.	c #5B4C32",
"a.	c #9B8317",
"b.	c #734433",
"c.	c #5B432C",
"d.	c #72743C",
"e.	c #786619",
"f.	c #C89717",
"g.	c #706515",
"h.	c #776826",
"i.	c #A87A07",
"j.	c #6A6C35",
"k.	c #C58B06",
"l.	c #62632D",
"m.	c #74523B",
"n.	c #8B6652",
"o.	c #84533D",
"p.	c #8B5543",
"q.	c #65492B",
"r.	c #665818",
"s.	c #7C523C",
"t.	c #8F712E",
"u.	c #767939",
"v.	c #655C42",
"w.	c #545A25",
"x.	c #878837",
"y.	c #727443",
"z.	c #957550",
"A.	c #C89408",
"B.	c #6C4B35",
"C.	c #3B2C19",
"D.	c #B3760D",
"E.	c #643E31",
"F.	c #8A644A",
"G.	c #733C2D",
"H.	c #77463A",
"I.	c #633524",
"J.	c #4C3523",
"K.	c #553529",
"L.	c #875B48",
"M.	c #8B5B44",
"N.	c #C69A27",
"O.	c #977817",
"P.	c #6B4F11",
"Q.	c #58371C",
"R.	c #8D5235",
"S.	c #6C4433",
"T.	c #B68A17",
"U.	c #A47A17",
"V.	c #3C3622",
"W.	c #7C5443",
"X.	c #7A4E42",
"Y.	c #966755",
"Z.	c #452C1A",
"`.	c #C99276",
" +	c #A4674C",
".+	c #5C622D",
"++	c #A88827",
"@+	c #5C4432",
"#+	c #554834",
"  . + + @ # @ $ % & * = - - ; = > , & ' * $ * = $ $ ) , ! ~ { & ] ! & * ~ * % # - & ",
"% . $ ^ % / @ & - $ . / & , , = ( @ _ ) ' : @ < & < & & = = - $ # [ @ # } * $ $ | $ ",
"1 @ 2 3 4 $ [ @ ~ $ } = ) = 5   ; ( 6 7 % 7 # $ $ * 8 ) = ) = @ 9 0 @ a * ~ - - < @ ",
"b c d e f @ & ~ $ $ 5 g ) - = ) 5 h & i i j k ~ * *   @ # l = $ ) m n o & p , } < - ",
", - q r s s . ) . . $ # $ { - ) * ) ~ $ h t u 3 ) * v a   @ w & $ # 8 * + & $ { & { ",
"; x y z A s . & B / # / C D % g ; E i $ F G H I f J ~   * D 8 & # K L @ M N < ~ = w ",
"O - P Q R } * * $ ) & & S p } # ) T D B d A d U T y F V # # & . . % ) . W L = - ; X ",
", & o ) v # - } ' # p @ Y S - ; Z f % `  .U ..+.@.Z Z #./ . # @ . # $ & / i { - $.g ",
"- ) i - { - o i @ ) %.) &.$ *   | 4 . ~ *.=.d F -.;.>.& @ ,.%.  ) ) c ) # $ - = = ; ",
"{ - < & B } # . p @ # ' : .   M = ) * * '.)...-.!.~.) a # ) # * # ' = # ' n {.].^.*.",
"& ~ , $ # { ; - ' * ) m /.# = - ; ; < v Q (.! E ) _.{ < ) ; = $ @ # v ) . @ M :.<.{ ",
"~ ) o B % D ) = % } i $ ) ; ) ) & = &   * $ ! ) 7 ) ) ) = = @ p @ ) ; p = - ) [.T }.",
"E ~ ) g ) i % & $ % p ) |.& 1.- ; = j ] % a ~ ; < < ~ $ $ . $ $   5 $ & a = { T 2.f ",
"E ; g ; - $ / @ 3.$ ;   4.8 5 & = B $ - # - - - { { ; - . & 5.# $ a * ) ~ 3 6.7.Q r ",
"Q , & - = $ = } . $ &.$ 8.p &.: & , $ - ) ) & { { g & & , - , ) ' & n O ) 9.9.T E r ",
"} 0.o { = = & & } ) . ~ @ ' 6 & = , & ~ } ) a.c ; $., , } { - = # : p $ c b.s {.(.c.",
"| ) & ) ~ { g B ) & 8 ) $ # ~ & ) ) = ~ $ - # @ d.; { & < - { ) a # ~ ~ , ; $ e.O ! ",
"g 5 ) ) o X - & ~ = 5 . : $ ~   ) ~ - = ) & #   L ) - & , ; - c f.~ & ; ) - $ & } ; ",
"- $ - - & & < g.8 & @ ) $ ) = & i . ; = = ; h.l $ i.{ & { - & & j.$ ) ) - $ a $ - - ",
"f.k.< - - $.- < ~ ) 5 5 ; = = - $ & ) & ; ; ~ a ) ) = ; & = g - & &   $ # 4.# = ) - ",
"* c { , $.$.{ ~ & & B g = c ; ~ ~ & - { ; $ * , $ ~ ; ; $.; - = # ) )   $ i @ - $ $ ",
"} # - - $.$.w & - , ) ) { ) $ ~ ~ ; { g ; @ & & ) ) ; g { { = g { ; D l.@ D Y : i / ",
"= - { $.- , - Q m.A , { & { - ; , ; ; ; - & { ~ ) ) _.{ < , = g = & ) # ) % W / . $ ",
"& - - { - X { n.o.A ! ) { ~ ) $.~ , - - - - ; ~ (.{.A $.- < # o $.- / ] , & D + ( @ ",
"* - - - ~.{ p.c.q.q *.!.; - o , ) ) - w - ~ ~ - w - Q *.& w ~ ) { 5 ) - - &.) /     ",
"$ < - v r., +.s.*.t.{ ) ; ; - 2.h.~.~ $.w & ~.- ) = - - { g ; ) - ) S D ) u.: = $ } ",
"$ , & ` { v.! v } - & , & - 9.d.) } a = & & = c & ) - & - { , ) ~.$ D p w.8.j x.m ; ",
"$ & , y.$ & a $ } ; ; ; ; ; !.| z.@ ; = & ) } % ; } A.; I v a g.@ } ~.j.$ #   / K D ",
"- ~ , * * @ $ @ ).B.C.D.- - , ) ; # ~ . & M $ $ # $ A.*.E._.Q ) * $ & F.|   & / ' # ",
"& } < $ @ $ p ) R _.*.E - (.- - )  .B.& & p # @ < & ; _.z G.H.! ~ $ s t 2 $ @ / W $ ",
"; i & $ - = } - 0.; g & ~ } c *.) T T - < w.# $ 8 < { Z I.I.J.~ ~ $ [.y 2 ) $ $ i D ",
"o & - ! ! $ $ 5 ) = { ~ ~ & v ~ (.T s < * p . ) K.; ; 4 Z Z c ) $ $ *.r ) g & & & , ",
"- & (.L.M.# p a ! _.- - $ @ a ) N.) ; - i [ i 7 [.) - - O.'.c 5 & & = ) - - - } o o ",
"- - ; 7.4 P.& F b.c.{ (.c a | $ ~ & ~ ~ ~ ~ Q.R.K.; $ & & , 8 & ~ & # ~ ~ & @ & & o ",
"- ; & ~ & ) 5 S.B.E ~ { } ~ ~ ~ ~ k.~ ~ < ) - ! - * $ = ; - # ) $ < $ * T.>.= . g , ",
"{ ; - & %   |.@ B.` { = } } ) ~ a # & & . $ ) { & ) } { o & & & } ~ } ) U.c $ # % & ",
"$ $ - & $ . , & a # = o , w ! ~ a a   ) ) & ~.= ) & = V.B X w ) $ $ } } < p ~.n @ # ",
"v * ~ ~ & ) # & ~ / $ & _.~ W.W.O ) $ * { - * #.& & = '.& & $.3 8 $   ~ & $ n + +   ",
"# # # @ & @ $ ` & ) ; = X.Y.Z.d d !.  %.- ; , *.@ * & ; - '._.S.M.@ p @   @ S N     ",
"* # ) 8 = $ ~.# / ) = = T S.I `.G ` : * $ 5 ) & ' - B { 9.k e q.(.) @ p ) & $ * %.) ",
"~ $ # # l.  $ $ @ ) ) >.T S.F  +F < $ = w.& &   * # ; $.[.A I.@.c # # ~ % & @ # * @ ",
"$ = p + #   n .+n ' $ >.++@+y T r } $ i D ' # & % $ ~ ~ #+ .Q c.; ) = $ $ i * ) p $ "};
