/* XPM */
static char * Vegetation_55_xpm[] = {
"42 42 193 2",
"  	c #54722C",
". 	c #798D45",
"+ 	c #7B9453",
"@ 	c #6C8B43",
"# 	c #627C35",
"$ 	c #5C7B34",
"% 	c #6A8443",
"& 	c #537225",
"* 	c #738C4B",
"= 	c #4D6B2B",
"- 	c #495E24",
"; 	c #6A843C",
"> 	c #557333",
", 	c #4E712C",
"' 	c #435C24",
") 	c #3C5423",
"! 	c #526534",
"~ 	c #5C6B43",
"{ 	c #4A542D",
"] 	c #4C5C33",
"^ 	c #536C2C",
"/ 	c #5D8243",
"( 	c #5A7434",
"_ 	c #6A7E43",
": 	c #4B642B",
"< 	c #456224",
"[ 	c #5B753A",
"} 	c #647C4A",
"| 	c #557A3B",
"1 	c #5D7B3B",
"2 	c #64833C",
"3 	c #6B8A3D",
"4 	c #638235",
"5 	c #627C3B",
"6 	c #728C44",
"7 	c #536D33",
"8 	c #4B6425",
"9 	c #526C25",
"0 	c #425C1D",
"a 	c #445C2A",
"b 	c #5A6C3C",
"c 	c #66893C",
"d 	c #4B6A1D",
"e 	c #697D3B",
"f 	c #637D42",
"g 	c #7A944C",
"h 	c #698435",
"i 	c #596C26",
"j 	c #61763B",
"k 	c #5A742D",
"l 	c #596D2C",
"m 	c #36531C",
"n 	c #588339",
"o 	c #3A4D1D",
"p 	c #455C19",
"q 	c #4C6432",
"r 	c #4A5D2C",
"s 	c #4C6A25",
"t 	c #617534",
"u 	c #5E8134",
"v 	c #648343",
"w 	c #596E33",
"x 	c #395716",
"y 	c #6A8A36",
"z 	c #5B7A2D",
"A 	c #7B9A4C",
"B 	c #84A254",
"C 	c #617C2E",
"D 	c #739244",
"E 	c #546C3A",
"F 	c #51662B",
"G 	c #4D7125",
"H 	c #66892C",
"I 	c #54733B",
"J 	c #697C36",
"K 	c #56792D",
"L 	c #636C4B",
"M 	c #5C6443",
"N 	c #64734B",
"O 	c #74924B",
"P 	c #6C8B4B",
"Q 	c #466739",
"R 	c #5B754A",
"S 	c #45632B",
"T 	c #425524",
"U 	c #747A58",
"V 	c #485435",
"W 	c #4C6B33",
"X 	c #567934",
"Y 	c #5D812D",
"Z 	c #44621D",
"` 	c #45681A",
" .	c #626549",
"..	c #5A5D3C",
"+.	c #4C5433",
"@.	c #6B854A",
"#.	c #5C7B42",
"$.	c #365323",
"%.	c #44542B",
"&.	c #545C3B",
"*.	c #53563A",
"=.	c #6C8B52",
"-.	c #829B4D",
";.	c #5A643D",
">.	c #444D2B",
",.	c #3D542A",
"'.	c #3D5B23",
").	c #4E7233",
"!.	c #64844A",
"~.	c #4E723A",
"{.	c #76875B",
"].	c #444E28",
"^.	c #3C4D23",
"/.	c #5E813B",
"(.	c #88A464",
"_.	c #88A559",
":.	c #344A17",
"<.	c #3D5A1C",
"[.	c #466A33",
"}.	c #779A47",
"|.	c #597426",
"1.	c #839C5B",
"2.	c #30500E",
"3.	c #5C7443",
"4.	c #456432",
"5.	c #587A26",
"6.	c #4A762C",
"7.	c #6D913D",
"8.	c #658A43",
"9.	c #466925",
"0.	c #718544",
"a.	c #658A4B",
"b.	c #749353",
"c.	c #84A54C",
"d.	c #658352",
"e.	c #3D5C2A",
"f.	c #456A2C",
"g.	c #2D4815",
"h.	c #4D6C3A",
"i.	c #627444",
"j.	c #5D6B49",
"k.	c #5E6549",
"l.	c #6D9244",
"m.	c #6D924B",
"n.	c #6B8453",
"o.	c #4D643A",
"p.	c #54633B",
"q.	c #344C1B",
"r.	c #485625",
"s.	c #4D5C3A",
"t.	c #829C54",
"u.	c #5D7C4A",
"v.	c #445C32",
"w.	c #556B42",
"x.	c #7B945B",
"y.	c #7C9B5B",
"z.	c #72864A",
"A.	c #7B8664",
"B.	c #365925",
"C.	c #5D824A",
"D.	c #738D52",
"E.	c #75935A",
"F.	c #798D4C",
"G.	c #516525",
"H.	c #4A641E",
"I.	c #557A42",
"J.	c #3B541D",
"K.	c #759954",
"L.	c #7C9A53",
"M.	c #5A8645",
"N.	c #677754",
"O.	c #8A8F72",
"P.	c #728553",
"Q.	c #4F802F",
"R.	c #6C7B53",
"S.	c #868967",
"T.	c #84865C",
"U.	c #747649",
"V.	c #676A3C",
"W.	c #636B45",
"X.	c #6B6C42",
"Y.	c #63643B",
"Z.	c #525534",
"`.	c #394C25",
" +	c #6B744C",
".+	c #696D4B",
"++	c #556442",
"@+	c #6B7453",
"#+	c #658935",
"$+	c #676D52",
"%+	c #535B35",
"&+	c #616544",
"*+	c #5B5D42",
"  . + @ # $   % & $   * = - ; % > , $ = ' - ) ! ~ { ] ^ / ( _ : : < [ } | 1 2 $ 3 4 ",
"; # ^ # @ 5 ^ $ 6 ^ % ( ; ; 2 ( ( = > 7 8 & 9 0 : a b / = c ( d e ^ % > f $ ( g h 3 ",
"# % 7 i j 8 ^ $ 8 k e [ l k # 1 : > 5 # k 8 ^ ^ : m n a   ( - k ^ % 3 ( ( 2 2 & (   ",
"8 ^ ( o : e 8 ( j p # % # i ^ $ 1 % q 8 - r s 0 f : > r s k t f 7 # # [ k u > ^ % v ",
": : $ w 5 x 8 : $ y 3 3 & . ; z     '   ( A 7 s   > = 7 5 B C 9 z D g 2 c $ # # E [ ",
"= - E ^ F 7 @ 3   ^ # z $ 4 h t 0 ( @ @ % $ $ ^ v + > = G c H C t % 4 % 2 c I I I q ",
") : _ J $ $ 4 3 K ( b L M N 7 j $ > # k $ g # 2 2 v * > + O $ 2 ; 2 $ P s b Q R S S ",
"T 7 e 9 9 # ; ^ $ 7 M M L U V 5   1   ( ( s ( c @ ( 1 W | X u Y $ Z >   ^ ` S ] q a ",
"8 r j # k ; ^ D ( [  .M  ...+.) s 1 8 ^ 8 5 [ v S @.q #.> W 2 f @ 1 v = 8 = $.q %.( ",
"w 7 % k 5 s > #.a ~  .&.*.+.] E 7 S - 1 < ^ : > I > I =.W 7 I [ 1 $ w s $ 1 : [ = [ ",
"J -.^ v # f < [ [ ;.*.>.{ ' a ,.: 0 '.< s S a : = ).!.~.R | [ ^ ( : - # ; ^ 3 2 * e ",
"4   e + P ' S [ 1 {.].].) ^.o ) E 8 7 1 : : S a 7 S S /.n (.< ( F w 7 w ( 8 ( ^ # 2 ",
"_.$ $   7 [ [ [ c {.:.:.a E '.T $ 4 4 X ' ) ) <.S a a [.I I   D D   h 8 8 w k $ z ( ",
"}.5   # ^ %   X 2 4 |.3 < ^ < 1.|.4 @ 2 ^ 2.S = [ '.3.4.> : > |.s ; J k 5.^ J 0 k ( ",
"O 6.> % 8 z 7.  ( F 3 D Z 8 8.1 1 k @ z 3 : 2 S 1 8.'.@.[ 9.^ k 8 t k 0.; 4 ( [ > ; ",
"a.| O @.|.z X   > S [ 2 c 2 b.> s ( 2 }.A = f A Z s [ =.< [ 6 e e t k ; @ c.$ * % 1 ",
"4.3./ ~.u @ W / | a 2 $ X > X = s P v @ s O z ( 2 1 ( W [ $ > # 6 $ 4 k 5 2 a./.I d.",
"4.e.f.,.1 I I [.I S q W X , E g.( [   1 v 2 $ = [ = = = @.1 2 8 # : 9 ^ [ > } h.a S ",
") q [.$.W = I h.q E 7 = ' '.b.<.v 7 : 3 A ^ $ > 0   % [ > ).> ) i.j.- Z A 7 W [.e.W ",
"a 7 S < 4.#.I W ) f v @ P 1 >   ( 4 @ ( ^ =   ^ [ n > 0 W R I j.M k.q : : z ' a S : ",
"8 : ( w > #./.S [ = 1 ^ ^ #.2 % l.  $   f ( 7 i.E m.8 /.'.I n.o.&.;.p.: : 8 $ S q.q ",
"@ z 4 8 ( =.[ r.  - = 7 4 >   3 @ v 9 d - ! L  .!.I W =.v q p.q s.N S ) 8 # s $ < s ",
"4 3 $ k j w : 6   8 t.! # # 1 2 * 2 8 : r.i.;.;.d.o.u.~.v.w.x.r b j > y.: O     g   ",
"Y @ 8 y.t |.^ 2 k 2 _.( h 4 u     5 # 5 _ z.b %.A.h.B.| | C./ D.@.^ }.O ( * t * ^ 8 ",
"X O   $ ( h $ s ^ e i g w 2 1 O v 7 < [ ^ % 7 q S q $.1 ^ / f u # D z z ^ j 3 2 ^ > ",
"5 > [ ^ 3 i ( = k ; ( 2 7 = f 1 ) % : [ s > a.I v E.v 8 8 [ [ P ( f $ K z ^ 2 g 2 2 ",
"f ' w F.G.9 w = 7 # [ I > 1 )., ( = = 7 = 8 8.[ m.W 8.B 4 1 1 _ = 2 z s 2 K ' b.( P ",
"  9 y s 3 Z ^ 8 ( = = S 2 = > > ' ' G ' 8 = 9.l.% x.| > ^ > <.E : 7 # v 3 G X 8.P 3.",
"7 @ g k # H.= [ v : 7 W '.^ % q 1 2 G     k ).2 @.= [ W Q 1 ^ $ I $ P 1 G !.a.I I.!.",
"> $ 3 e H.; s : : 7 ) J.< K.f <.@ <.z A s L.$ I > 4.,.a E G   # ) ( 8.u > ).I.M.).I ",
"[ 8 2 [   s < <.s > < '.p = v v @ v k 7 5 v > > < a s.N.W : % ( - 8 U O.P.S 4.h.f.I ",
"' 7 >   $ # Z $   > = Q.# $ # i $ 3 2 I > W S 8 = T q m a 1 ^ * ( R.S.T.U.N 3.Q [.W ",
": S S [ = = = ^ X 2   8 3 5 k (   $ # < 1 ~ J.( 1 m q = = # - = : U T.U.V.W.p.> S '.",
"S E # < !.k * P ^ e u > 6 & k # 4 $ ( I I 7 r = 1 v %.8 ' ; > % r M X.Y.Y.Z.+.o : `.",
"# @.t.! : ( v 3.^ ^ % 8 k w w 2 D @ 8 <.q ' T w 5 s s 3 5 |.z % :  +.+Z.Z.Z.+.&.[ ( ",
"+ j $   ; ! <.: i.( = > 9.k ( s ; ( s s E E ( p H.z k 3 ( 8 $ [ 7 E N Z.Z.++%.) P.j ",
"^ # w ( j @+N ;.~ v ( 8 s [ ( 5 8 ^ ^ 8 ^ 4 x t 3 # @ e G.$ c ( #+w F r { ,.`.f j % ",
"8 G.F N ~ M L M b f [ 5 ( 1 1 # e ^ = @.# g # e e # k 8 1 [ $ @ c ; 7 u 1 ' a 1 2 z ",
"# * t W.&.] N r : [ ( w ^ F F $ % s * ( k ; F N $+8   ( ( 8 8   > 2 s v v   v 7 ^ ( ",
"J.^ ^ ! s.T %+8 r ! J.$ [ J.- ^   8 6 % # # U S.&+*+[ ^ [   7 f 1 > < 8.$ @ = f 8 : ",
"; : ^ O r % ' 8 ) 8 2 $   F ^ i 7 P ( % o ^ E  ...*.^.[ b.5 5 [ S ' <.( @   ( z K ( ",
"$ @ ^ ^ s % < S # & k # 8 a j [ : b.( 1 <.= 7 L &.*.r.% X f H.F q I ' 9.1 | %   3 4 "};
