/* XPM */
static char * Vegetation_51_xpm[] = {
"42 42 204 2",
"  	c #24330A",
". 	c #1B1405",
"+ 	c #1C2305",
"@ 	c #232405",
"# 	c #2B3C04",
"$ 	c #243B04",
"% 	c #232C05",
"& 	c #2C4304",
"* 	c #77892B",
"= 	c #1C2B04",
"- 	c #233404",
"; 	c #16120A",
"> 	c #1E3209",
", 	c #0E0A04",
"' 	c #1C1B0A",
") 	c #241B0C",
"! 	c #342A14",
"~ 	c #445B0A",
"{ 	c #6E8312",
"] 	c #5D730B",
"^ 	c #141305",
"/ 	c #3C2B0D",
"( 	c #0E1103",
"_ 	c #030202",
": 	c #0D0503",
"< 	c #231C13",
"[ 	c #241E19",
"} 	c #342C22",
"| 	c #2A1E19",
"1 	c #1D2309",
"2 	c #161B04",
"3 	c #1E2B09",
"4 	c #162A03",
"5 	c #1B1C05",
"6 	c #231C05",
"7 	c #130B05",
"8 	c #2B230C",
"9 	c #34330B",
"0 	c #657914",
"a 	c #242C0A",
"b 	c #33440A",
"c 	c #2B3B0A",
"d 	c #253B09",
"e 	c #4A3622",
"f 	c #1C1511",
"g 	c #162204",
"h 	c #161A09",
"i 	c #254204",
"j 	c #2B1C0C",
"k 	c #332B0C",
"l 	c #333C0B",
"m 	c #4A6407",
"n 	c #384613",
"o 	c #3A4504",
"p 	c #24230A",
"q 	c #3B340B",
"r 	c #333305",
"s 	c #1B140B",
"t 	c #42362A",
"u 	c #3C352A",
"v 	c #2D2521",
"w 	c #1E3304",
"x 	c #2B340A",
"y 	c #2D4A04",
"z 	c #264209",
"A 	c #22150B",
"B 	c #221405",
"C 	c #492D13",
"D 	c #1A0D05",
"E 	c #3C2A13",
"F 	c #140D09",
"G 	c #4A3C2B",
"H 	c #262119",
"I 	c #2D430A",
"J 	c #2A1D13",
"K 	c #332413",
"L 	c #63441A",
"M 	c #533C1C",
"N 	c #2B2B0B",
"O 	c #110603",
"P 	c #44331C",
"Q 	c #716A2C",
"R 	c #4A341C",
"S 	c #210E05",
"T 	c #33230C",
"U 	c #332B1C",
"V 	c #150707",
"W 	c #311E11",
"X 	c #2A160A",
"Y 	c #291605",
"Z 	c #362606",
"` 	c #2A3404",
" .	c #2B2C05",
"..	c #2A1C06",
"+.	c #3C3224",
"@.	c #344B04",
"#.	c #2C2214",
"$.	c #334B0A",
"%.	c #392612",
"&.	c #422D0D",
"*.	c #523513",
"=.	c #3A250D",
"-.	c #44330D",
";.	c #35311C",
">.	c #624E33",
",.	c #594934",
"'.	c #433422",
").	c #3A2619",
"!.	c #311E0C",
"~.	c #341C06",
"{.	c #554E2F",
"].	c #715C38",
"^.	c #4B4327",
"/.	c #343312",
"(.	c #422D13",
"_.	c #443213",
":.	c #323C04",
"<.	c #43540B",
"[.	c #422E1A",
"}.	c #6A5533",
"|.	c #3B2C1B",
"1.	c #523D23",
"2.	c #453A24",
"3.	c #3B4C04",
"4.	c #445A05",
"5.	c #4C3A0D",
"6.	c #4B3413",
"7.	c #695739",
"8.	c #4C3B23",
"9.	c #5A452A",
"0.	c #655233",
"a.	c #484616",
"b.	c #3B3B0B",
"c.	c #435304",
"d.	c #334404",
"e.	c #5C4A2C",
"f.	c #624C2C",
"g.	c #6D5A35",
"h.	c #332D05",
"i.	c #3A3405",
"j.	c #4A5407",
"k.	c #3B4C0A",
"l.	c #536404",
"m.	c #3A2E22",
"n.	c #564717",
"o.	c #5A4425",
"p.	c #3B3B05",
"q.	c #584A26",
"r.	c #4C5C03",
"s.	c #1A0E09",
"t.	c #35520B",
"u.	c #4C3A1C",
"v.	c #54432A",
"w.	c #3B440B",
"x.	c #2D4A0A",
"y.	c #3C5A07",
"z.	c #4B5C0B",
"A.	c #3C321D",
"B.	c #3B5304",
"C.	c #533B14",
"D.	c #47460A",
"E.	c #2A2405",
"F.	c #355204",
"G.	c #5A3D15",
"H.	c #B0A589",
"I.	c #64590B",
"J.	c #66670B",
"K.	c #424D03",
"L.	c #4C3A14",
"M.	c #5B6B0B",
"N.	c #565A08",
"O.	c #485712",
"P.	c #1E1913",
"Q.	c #5C4215",
"R.	c #424C0B",
"S.	c #89784B",
"T.	c #2D2A13",
"U.	c #575716",
"V.	c #262114",
"W.	c #32251A",
"X.	c #191413",
"Y.	c #55431B",
"Z.	c #433C0C",
"`.	c #2C241B",
" +	c #443A13",
".+	c #2E291C",
"++	c #221611",
"@+	c #3C530A",
"#+	c #2F2A21",
"$+	c #353124",
"%+	c #4C620B",
"&+	c #0D0A08",
"*+	c #AA964E",
"=+	c #1C3808",
"-+	c #383B14",
";+	c #3D382A",
">+	c #433C31",
",+	c #342924",
"'+	c #52390D",
")+	c #53640B",
"!+	c #3C3313",
"~+	c #423A2C",
"{+	c #4B3C32",
"]+	c #938A4F",
"  . + @ + # $ % & * = - ; > , ' ) ! ~ { ] , ^ / @ , = ( _ , : : < [ } | | ; > = ^ = ",
"1 > 2 3 & & - % 4 5 2 6 7 >   ) 8 9 9 0 ~ 7 a b c a d 7 = + a ' ' [ e } f 1 1 = . ; ",
"' g , & $ + % = ^ g 2 , 2 h i d j k l m b n l o p % q '     5 r ; s t u v ' 1 ' ) ' ",
"5 w 2 w = x y $ 4 = # h 5 4 z + A A k B 8 A A C D D ; E 7 F ; % ^ F G t } H [ < p . ",
"- - h > 1 1 1 & - & I d ^ 4 = I ^ J ! E K B L 7 . F . M 7 ! # % N O P Q a ; < ! a & ",
"+ ^ : , ) < p ^ . 8 p 5 5 $ - % & : ! R e S T 7 5 k p $ N 7 # # & F ) K U < a p c & ",
"% + & 7 V W X A 8 Y Z Y x % ` 5 z # F  .V / k ..) +.d - % 2 . & @.7 7 #.k x ` p % % ",
"g $.x ; 7 J A < %.&.*.=...& - $.& ` # s : / -.;.>.,.V N @ . y & N . ` ` ` 1 % g 5 , ",
"3 1 @ : V ) '.).!.~./ T x = - 2 F ' % N W V : {.].).s ^./.; 1 # 5 @.@.x @ @   1 5 ; ",
"b a # h O O '.K %.(._./ ) p :.<.o ) T _.[.j : }.|.R 1.'.2.|.' . @.3.. @ a 1 ; = 2 p ",
"7 7 ` @.^ 7 K K =._.=...Y A # 4.3.) 5.T 6.j 7.8.J K 9.0.0.e P O 5 a.@ @ %   ^ 3 1 D ",
"/ b.3.<.c.: O K E E K j j  .3.o d.) !.5.6.. P [.%.|.1.e.f.g.].: q h.i.5 ' l 7 7 O ..",
") j.] k.l.; < m.V j j B B D 6 B d.8 X -.n.7 R %.P P 8.8.o.}.0.: 7 q q p.5 V 7 q.{.).",
"' 3.j.r.l.O J m.m.#.#.s.s.t.i D @.5 D b.-.O [.9.K |.^.u.v.v.P : 7 7 N 2 ) ) #.e e |.",
"T j w. .p ` U < #.#.J #.F x.x y.m z.o <.k.7 j X A K '.K E A.K : O S 7 ; . ! E E P P ",
"(.(.!.~.E a |.'.A.; O ) B , 6 ` :.@ B.<.@ 1 ' j s K P T E |.j : O 8 5 g ' ) . : A.'.",
"[.(.=.=.C.=.K :.9 : . A Y D.E.:. .F.d.- a , F + a . 2 . 7 . p 7 s.7 ^ 2 1 ; N N A.P ",
"R C G.L L H.T # ` : O s I.J.l.K.3.d.d.- 2 7   & = a 1 ; ; 7 % ^ : 7 1 2 4 w ' ! t A.",
"(.6.G.L.n.i.9 & - 5 A ; I.J.M.N.~ ` 2 4 5 3 2 d 2 2 : , , O.; ; ; F P.% d ^ ' A.+.[.",
"&.Q.L =.R.$.#   d 3 ' ^ N.c.3.` . 7 ' +   ^ h > $ ( 7 ) F S.F F ; F N N 5 ; ) A.< E ",
"E L.Q.6.k $.I x $ % 7 7 E.r 4.% % 7 > g 7 : : F ^ 7 D V ) ).h F f f < 8 8 p ; #.' T ",
"/ 6.n._.8 2 d.- + 1 p T.k  .l @ a , i i 7  .N n.U.7 O V.s W.< X.s < s #.' ) ) ) 8 j ",
"=.(.Y.L.D B.& $ ' 7 . 6 ) 8 @ 5 5 , z - g 6 h.Z.6 O < < < } `.P.F s f V A 8 K K j K ",
"T /  +/ k . . ` 2 - 6 ) a ' ; 2 ; ^ 4 4 = ' 8 -.s O `.H .+.+[ `.f < ) O ++#.) K =.X ",
") ) @+/ 8 E.$ ; - # ` ` 5 ^ ^ , h h , 4 ; F k B 7 F #+`.$+`.#+< < H '.F s #.8 (.(.T ",
"j @.4.%+~ 4.i - w $ @ ` g 5 + 2 h ^ , ^ , F s.F O : `.#+U `.P.< P.#.: &+< K A._.(.=.",
"j = $.~ 6 y g h   ` 1 ` + 5 1 5 2 1 7 d & F : : A s 7 #+} H < V.`.j : &+J K %./ / =.",
"u., . ..% ^ = ^   , ' 5 - 4 + ^ , 7 . y % 7 s A s ` 5 ' H h P.F : , g , s E E =.E *+",
"#.D V 7 7 , 1 1 F 7 7 2 $ = ; : 7 @ ) 7 =+a s < -+b # 7 , , , 2 2 ^ = ( F T ) K C.(.",
".+;+} f 7 W.F ' s s j d.` ^ . 7 ) ) ) . ' a 5 @ - ` d.$ + ^ , 2 + 7 = &+, D B K %.|.",
">+>+,+X.++W.J ++f ++;     1 : F p.r k ' - d $ 5 . y ` $ w l 7 = 4 h w 2 1 , O K K 7 ",
"u ;+} ).A J #.< < ++A F 7 : D s D.r X ; A I   . ..: d.# % ; ; = >   & = 1 F s.: 7 #+",
"t ;+u.P #.< 8 < #.| J ++s 7 s '+i.h.T ).#.#.; j E . 8 ` + ^ = = - % % - & ' F p a v ",
"m.#.N - @ ` ..s p #..+#.J ++D 7 < !.'.m.U m.#.; s q j 6 c 2 7 > i + 1 d.$.# ' 7 l J ",
"U K ' & - c ` ; #.#.W..+< < ) : < P '.+.$+#.' 7 :.)+D.@.& 5 +   - + +  .^ ^ F s.; U.",
"A.T.a 2 ` . + a s < ) A 7 , : 7 #.A.V.< , : 7 + t.<.3.% % % % ^ $ - ' & d.5 F 5 . !+",
"E.) F  .@ 2 @ = ` : F s ; ' s : 7 7 ; F 7 ; s.b k.; @.` @ % 2 - %   @ B.# 9 F ' ) !+",
"7 ' F ` p ^ $ 5 . F .+~+$+#.< U : s 8 N V.) s F s ' ' + $.# $ . 1 @ a # & . 7 . 6 : ",
"V F , 6 . 5 5 + s #.U +.;+V.' {+: F ) x p p ) s J A . x.& #   ^ ; @ % ; F ; % . % p ",
"^ , b p N y % ' < < .+} u +.W.: 7 s.8  .b.! 8 j A D ) p $   F . ' '   p c I . a a 7 ",
"% % o & 5 B.y ` h & F < .+0.h : ' A i.0 M.A K (.6./ j p $ ; s - $ % ; = N A s @ ` ' ",
". ^ d.@.& # d.- = d.$.]+f h F 7 . N o 0 ] <.K *.C.Y.6 F 7 7 5 + ; 7 f J W.5 4 + 2 ` "};
