/* XPM */
static char *result[] = {
/* columns rows colors chars-per-pixel */
"64 64 7 1 ",
"  c #6E5967",
". c #926475",
"X c #AD707B",
"o c #B77F83",
"O c #C39490",
"+ c #D1B1A5",
"@ c #DCCABE",
/* pixels */
"                                                                ",
"                                                                ",
"                                                                ",
"                                                                ",
"      .XXXXXXXXXXXXXXXXXXXXXX.   .XXXXXXXXXXXXXXXXXXXXXXX.      ",
"      XXXXXXXXXXXXXXXXXXXXXXXX     X..X.XXXXXXXXXXXXXXXXXX      ",
"      XXXXXXXXXXXXXXXXXXXXXXXX   XXXXXXXXXXXXXXXXXXXXXXXXX      ",
"      .XXXXXXXXXXXXXXXXXXXXXX.   .XXXXXXXXXXXXXXXXXXXXXXX.      ",
"                                                                ",
"      .XXXXXXXX  .XXXXXXXXXXXXXXXXXXXXXXXXXXXX.  .XXXXXXX.      ",
"      XXXXXXXXX  XXXXXXXXXXXXXXXXXXXXXXXXXXXXXX  XXXXXXXXX      ",
"      XXXXXoOOo  XXXoOOOOOOOOOOOOOOOOOOOOOOoXXX  oOOoXXXXX      ",
"      XXXXXOOOO  .XXOOOOOOOOOOOOOOOOOXXOXOXXX    OOOOXXXXX      ",
"      XXXXXOOOO    XooOooOOOOOOOOO+O+++O++OOXX.    OX.X..X      ",
"      XXXXXOOOO  XXXOO++O+OOOOOOOOOOOOOOOOOOXXX  OOOOXXXXX      ",
"      .XXXXoOOX  .XXoOOOOOOOOOOOOOOOOOOOOOOoXX.  XOOoXXXX.      ",
"                                                                ",
"    .XXXXXXoO++OOOO@@@+O++OOOX   XOOO+O+@@++O++OOOOOoXXXXXX.    ",
"    XXXXXXXOOOOOOOOOOOOOOOOOOO   OOOOOOOOOOOOOOOOOOOOXXXXXXX    ",
"    XXXXXXXOOOOOOOOOOOOOOOOOOO   OOOOOOOOOOOOOOOOOOOOXXXXXXX    ",
"    XXXXXXXOOOOOOOOOOOOOOOOOOo   OOOOOOOOOOOOOOOOOOOOX.X.X      ",
"    XXXXXXXOOOOOOOOOOXOXXO       OOOOOOOOOOOOOOOOOOOOXXXXXXX    ",
"    XXXXXXXOOOOOOOOOOOO+O++OOO   OOOOOOOOOOOOOOOOOOOOXXXXXXX    ",
"    .XXXXXXoOOOOOOOOOOOOOOOOOX   XOOOOOOOOOOOOOOOOOOoXXXXXX.    ",
"                                                                ",
"      .XXXXoOOX  OOO+O+++@@@++OOOOOOOOOOOOOOOOX  XOOoXXXX.      ",
"      XXXXXOOOO  OOOOOOOOOOOOOOOOOOOOOOOOOOOOOO  OOOOXXXXX      ",
"      XXXXXOOOO  OOOOOoXXXXXXXXXXXXXXXXXXoOOOOO  OOOOXXXXX      ",
"      X.X..O     OOOOoXXXXXXXXXXXXXXXXXXXXoOOOO  OOOOXXXXX      ",
"      XXXXXOOOo  OOOOXXXXXXXXXXXXXXXXXXXXXXOOOO  OOOOXXXXX      ",
"      XXXXXOOOO  OOOOXXXXXXX.      .XXXXXXXOOOO  OOOOXXXXX      ",
"      .XXXXoOOX  OOOoXXXXXXX        .XXXXXXoOOX  XOOoXXXX.      ",
"                                                                ",
"    .XXXXXXoOOOOOOOOoXXXX.            .XXXXoO+OOOOOOoXXXXXX.    ",
"    XXXXXXXOOOOOOOOOOXXXXX            XXXXXOOOOOOOOOOXXXXXXX    ",
"    XXXXXXXOOOOOOOOOOXXXXX.          .XXXXXOOOOOOOOOOXXXXXXX    ",
"      XXX..XOXOOOOOOOXXXXXXXXX. .XXXXXXXXXXOOOOOOOOOOXXXXXXX    ",
"    XXXXXXXOOOOOOOOOOXXXXXXXXXX XXXXXXXXXXXOOOOOOOOOOXXXXXXX    ",
"    XXXXXXXOOOOOOOOOOXXXXXXXXXX XXXXXXXXXXXOOOOOOOOOOXXXXXXX    ",
"    .XXXXXXoOOOOOOOOoXXXXXXXXX. .XXXXXXXXXXoOOOOOOOOoXXXXXX.    ",
"                                                                ",
"      .XXXXoOOX  XOOOoXXXXXXXXXXXXXXXXXXXXoOOOX  XOOoXXXX.      ",
"      XXXXXOOOO  OOOOOoXXXXXXXXXXXXXXXXXXoOOOOO  OOOOXXXXX      ",
"      XXX..XO    OOOOOOOOOOOOOOOOOOOOOOOOOOOOOO     O.X.XX      ",
"      XXXXXOOOo  OOOOOOOOOOOOOOOOOOOOOOOOOOOOOO  oOOOXXXXX      ",
"      XXXXXOOOO  OOOOOOOOOOOOOOOOOOOOOOOOOOOOOO  OOOOXXXXX      ",
"      XXXXXOOOO  OOOOOOOOOOOOOOOOOOOOOOOOOOOOOO  OOOOXXXXX      ",
"      .XXXXoOOX  XOOOOOOOOOOOOOOOOOOOOOOOOOOOOX  XOOoXXXX.      ",
"                                                                ",
"    .XXXXXXoO++@@++O+OOOOOOOOX   XOO+O+@@@@+O++OOOOOoXXXXXX.    ",
"    XXXXXXXOOOOOOOOOOOOOOOOOOO   OOOOOOOOOOOOOOOOOOOOXXXXXXX    ",
"    XXXXXXXOOOOOOOOOOOOOOOOOOO   OOOOOOOOOOOOOOOOOOOOXXXXXXX    ",
"    XXXXXXXOOOOOOOOOOOOOOOOOOo   OOOOOOOOOOOOOOOOOOOOXX..X      ",
"    XXXXXXXOOOOOOOOOOXOXXO       OOOOOOOOOOOOOOOOOOOOXXXXXXX    ",
"    XXXXXXXOOOOOOOOOOOO+O++OOO   OOOOOOOOOOOOOOOOOOOOXXXXXXX    ",
"    .XXXXXXoOOOOOOOOOOOOOOOOOX   XOOOOOOOOOOOOOOOOOOoXXXXXX.    ",
"                                                                ",
"      .XXXXOOOX  .XXOOO+@@++OOOOOOOOOOOOOOOoXX.  XOOOXXXX.      ",
"      XXXXXoOOO  XXXoOOOOOOOOOOOOOOOOOOOOOOOXXX  OOOoXXXXX      ",
"      XXX..X     XXXXXXXXXXXXXXXXXXXXXX.X..X     XXXXXXXXX      ",
"      XXXXXXXXX  XXXXXXXXXXXXXXXXXXXXXXXXXXXXXX  XXXXXXXXX      ",
"      .XXXXXXX.  .XXXXXXXXXXXXXXXXXXXXXXXXXXXX.  .XXXXXXX.      ",
"                                                                ",
"                                                                "
};
