/* XPM */
static char * Wall2_xpm[] = {
"42 42 7 1",
" 	c #6E5967",
".	c #AD707B",
"+	c #926475",
"@	c #B77F83",
"#	c #C39490",
"$	c #D1B1A5",
"%	c #DCCABE",
"                                          ",
"                                          ",
"                                          ",
"    ................   .+.............    ",
"    ................  ................    ",
"                                          ",
"    +..... +..................+ +....+    ",
"    ...@#@ ..@##############@.. @#@...    ",
"    ...### +.###########...#..  ###...    ",
"    ...### ..#$$$############.. ###...    ",
"                                          ",
"   ....@#$##%%$#$##.  ##$#%%$#$###@....   ",
"   ....#############  #############....   ",
"   ....############@  #############+..    ",
"   ....########$$$##  #############....   ",
"   ....@###########.  ############@....   ",
"    +..@#. ##$$$%%$$##########. .#@..+    ",
"    ...### #################### ###...    ",
"    ..+#   ###..............### ###...    ",
"    ...##@ ###..............### ###...    ",
"    +..@#. ##@....      ....@#. .#@..+    ",
"                                          ",
"   ....#######...        ...#######....   ",
"   ....#######...+      +...#######....   ",
"   ....#######...... .......#######....   ",
"   ....#######...... .......#######....   ",
"                                          ",
"    +..@#. .##..............##. .#@..+    ",
"    ..+.#  ####################   #.+.    ",
"    ...##@ #################### @##...    ",
"    ...### #################### ###...    ",
"                                          ",
"   ....@#$%$#$#####.  ###$%%$#$###@....   ",
"   ....#############  #############....   ",
"   ....############@  #############.+.    ",
"   ....########$$$##  #############....   ",
"   ....@###########.  ############@....   ",
"    +..##. +.##$%$##########@.+ .##..+    ",
"    ...@## ..@###############.. ##@...    ",
"    ...... .................... ......    ",
"    +....+ +..................+ +....+    ",
"                                          "};
