/* XPM */
static char * Wall_xpm[] = {
"42 42 11 1",
" 	c #584B57",
".	c #3F3851",
"+	c #FBCA97",
"@	c #E27F6D",
"#	c #EDA27F",
"$	c #D25654",
"%	c #AE444E",
"&	c #9E3B57",
"*	c #89365C",
"=	c #CD7363",
"-	c #BF5753",
" ........................................ ",
".+++++.+++++++++++.@++++++.@+++++++.+++++.",
".+++++.+++++++++++.@++++++.@+++++++.+++++.",
".++++#.@#+++++++#@.@#+++#@.@#++++#@.#++++.",
".#+++@.@@@@@@@@@@@.@@@@@@@.@@@@@@@@.@+++#.",
".@@@@$..............................$@@@@.",
"..........................................",
".++@@..%%%.&%%%&&%%%&.%%%%.&%%%.*%%..@@++.",
".++#@................................@#++.",
".+++@...%====.==============.====%...@+++.",
".+++@................................@+++.",
".+++@..%%=.%====.%==%.====.%===.%%%..@+++.",
".+++@..%%=.%====.%==%.====.%===.%%%..@+++.",
".++#@................................@#++.",
".@@@@...%===%................%===%...@@@@.",
"........*===*................*===*........",
".++@@..%%=.%%%..@@@@..@@@@..%%=.%%%..@@++.",
".++#@..%%=.=%%..@@++..++@@..%%=.=%%..@#++.",
".+++@...........@+++..+++@...........@+++.",
".+++@...*===*...@+++..+++@...*===*...@+++.",
".+++@...*===*................*===*...@+++.",
".+++@................................@+++.",
".+++@..%%=.=%%..@+++..+++@..%%=.=%%..@+++.",
".+++@..%%=.-%%..@+++..+++@..%%=.%%%..@+++.",
".++#@..*.===*...@@++..++@@...*===*...@#++.",
".++@@..%.===%...@@@@..@@@@...%===%...@@++.",
"..........................................",
".@@@@..%%=..................%%=.%%%..@@@@.",
".++#@..%%=.......*%%*.%%%%*.%%=.%%%..@#++.",
".+++@................................@+++.",
".+++@...%=========.=====.====.===%...@+++.",
".+++@................................@+++.",
".+++@..%%=.%===%%===%.====.%===.%%%..@+++.",
".++#@..%%=.%===%%===%.====.%===.%%%..@#++.",
".++@@................................@@++.",
"..........................................",
".@@@@$..............................$@@@@.",
".#+++@.@@@@@@@@.@@@@@@@.@@@@@@@@@@@.@+++#.",
".++++#.@#++++#@.@#+++#@.@#+++++++#@.#++++.",
".+++++.+++++++@.++++++@.+++++++++++.+++++.",
".+++++.+++++++@.++++++@.+++++++++++.+++++.",
" ........................................ "};
