/* XPM */
static char *_275addbb2b042f4d04a017a6424a527Dr1eGIcxQNJRd9lc[] = {
/* columns rows colors chars-per-pixel */
"64 64 13 1 ",
"  c #3F3851",
". c #584B57",
"X c #89365C",
"o c #9E3B57",
"O c #AE444E",
"+ c #BF5753",
"@ c #D25654",
"# c #CD7363",
"$ c #E27F6D",
"% c #EDA27F",
"& c #FBCA97",
"* c #FFEAB7",
"= c #FFFAD6",
/* pixels */
".                                                              .",
" %&*=**&% $%&&*=**&*=*&*&&%$ $%&=*&*&&%$ $%&&*==***&%$ %&**=*&% ",
" &&&&&&&& $&&&&&&&&&&&&&&&&$ $&&&&&&&&&$ $&&&&&&&&&&&$ &&&&&&&& ",
" &&&&&&&& $&&&&&&&&&&&&&&&&$ $&&&&&&&&&$ $&&&&&&&&&&&$ &&&&&&&& ",
" &&&&&&&& $%&&&&&&&&&&&&&&%$ $%&&&&&&&%$ $%&&&&&&&&&%$ &&&&&&&& ",
" %&&&&&&% $$%&&&&&&&&&&&&%$$ $$%&&&&&%$$ $$%&&&&&&&%$$ %&&&&&&% ",
" $%&&&&%$ $$$$$$$$$$$$$$$$$$ $$$$$$$$$$$ $$$$$$$$$$$$$ $%&&&&%$ ",
" $$$$$$$$ @$$$$$$$$$$$$$$$$@ @$$$$$$$$$@ @$$$$$$$$$$$@ $$$$$$$$ ",
" @$$$$$$@                                              @$$$$$$@ ",
"                                                                ",
" $$$$$$@         XoOOOoX XoOOOoX XoOOOoX XoOOOoX        @$$$$$$ ",
" %&&%$$$  XOOOOX oOOOOOo oOOOOOo oOOOOOo oOOOOOo XOOOX  $$$%&&% ",
" &&&&%$$                                                $$%&&&& ",
" &&&&&$$    X######O O####O O######O O####O O#####+X    $$&&&&* ",
" *&&&&$$    O####### ###### ######## ###### #######O    $$&&&&* ",
" *&&&&$$    X######O O####O O######O O####O O#####+X    $$&&&&& ",
" =&&&&$$                                                $$&&&&* ",
" =&&&&$$  XOO+#O O######O O####O O#####O O#####O O+OOX  $$&&&&= ",
" *&&&&$$  OOO### ######## ###### ####### ####### ##OOO  $$&&&&* ",
" &&&&&$$  XOO+#O O######O O####O O#####O O#####O O+OOX  $$&&&&& ",
" &&&&%$$                                                $$%&&&& ",
" %&&%$$$    X+####+X  XOOOX  XOOOOOX        X+####+X    $$$%&&% ",
" $$$$$$@    O######O                        O######O    @$$$$$$ ",
"            X+####+X                        X+####+X            ",
" $$$$$$@                @$$$$$@  O#####O                @$$$$$$ ",
" %&&%$$$  XOO+#O O+OOX  $$$$$$$  $$$$$$$  XOOO#O O+OOX  $$$%&&% ",
" &&&&%$$  OOO### ##OOO  $$$%&&&  &&&%$$$  OOOO## ##OOO  $$%&&&& ",
" &&&&&$$  XOO+#O O+OOX  $$%&&&&  &&&&%$$  XOOO#O O+OOX  $$&&&&* ",
" *&&&&$$                $$&&&&&  &&&&&$$                $$&&&&= ",
" &&&&&$$    X#####+X    $$&&&&&  &&&&&$$    X+####+X    $$&&&&= ",
" *&&&&$$    O######O    @$&&*=*  *=*&&$@    O######O    $$&&&&* ",
" *&&&&$$    X#####+X                        X+####+X    $$&&&&& ",
" &&&&&$$                                                $$&&&&* ",
" *&&&&$$  XOO+#O +OOOX  @$&&*=*  *=*&&$@  XOO+#O O+OOX  $$&&&&* ",
" =&&&&$$  OOO### #OOOO  $$&&&&&  &&&&&$$  OOO### ##OOO  $$&&&&& ",
" =&&&&$$  XOO+#O +OOOX  $$&&&&&  &&&&&$$  XOO+#O O+OOX  $$&&&&* ",
" *&&&&$$                $$%&&&&  &&&&%$$                $$&&&&& ",
" &&&&%$$   X +####+X    $$$%&&&  &&&%$$$    X+####+X    $$%&&&& ",
" %&&%$$$   O ######O    $$$$$$$  $$$$$$$    O######O    $$$%&&% ",
" $$$$$$@   X +####+X    @$$$$$@  @$$$$$@    X+####+X    @$$$$$$ ",
"                                                                ",
" $$$$$$@  XOO+#O                          XOO+#O O+OOX  @$$$$$$ ",
" %&&%$$$  OOO###                          OOO### ##OOO  $$$%&&% ",
" &&&&%$$  XOO+#O          XOOOOX XOOOOOOX XOO+#O O+OOX  $$%&&&& ",
" &&&&&$$                                                $$&&&&& ",
" *&&&&$$    X +#####O O####O O######O O####O O####+X    $$&&&&* ",
" =&&&&$$    O ####### ###### ######## ###### ######O    $$&&&&= ",
" *&&&&$$    X +#####O O####O O######O O####O O####+X    $$&&&&* ",
" &&&&&$$                                                $$&&&&& ",
" *&&&&$$  XOO+#O O#####O O#####O O#####O O#####O O+OOX  $$&&&&* ",
" *&&&&$$  OOO### ####### ####### ####### ####### ##OOO  $$&&&&& ",
" &&&&%$$  XOO+#O O#####O O#####O O#####O O#####O O+OOX  $$%&&&& ",
" %&&%$$$                                                $$$%&&% ",
" $$$$$$@    XOOOOOOX        XOOOOOOX        XOOOOOOX    @$$$$$$ ",
"                                                                ",
" @$$$$$$@                                              @$$$$$$@ ",
" $$$$$$$$ @$$$$$$$$$$$@ @$$$$$$$$$@ @$$$$$$$$$$$$$$$$@ $$$$$$$$ ",
" $%&&&&%$ $$$$$$$$$$$$$ $$$$$$$$$$$ $$$$$$$$$$$$$$$$$$ $%&&&&%$ ",
" %&&&&&&% $$%&&&&&&&%$$ $$%&&&&&%$$ $$%&&&&&&&&&&&&%$$ %&&&&&&% ",
" &&&&&&&& $%&&&&&&&&&%$ $%&&&&&&&%$ $%&&&&&&&&&&&&&&%$ &&&&&&&& ",
" &&&&&&&& $&&&&&&&&&&&$ $&&&&&&&&&$ $&&&&&&&&&&&&&&&&$ &&&&&&&& ",
" &&&&&&&& $&&&&&&&&&&&$ $&&&&&&&&&$ $&&&&&&&&&&&&&&&&$ &&&&&&&& ",
" %&*=**&% $%&&*&*=*&&%$ $%&&*&*=&%$ $%&&*&*=*&**=*&&%$ %&**=*&% ",
".                                                              ."
};
